G04 #@! TF.GenerationSoftware,KiCad,Pcbnew,5.1.5+dfsg1-2build2*
G04 #@! TF.CreationDate,2021-03-11T17:09:23+01:00*
G04 #@! TF.ProjectId,70cm_preamp,3730636d-5f70-4726-9561-6d702e6b6963,rev?*
G04 #@! TF.SameCoordinates,Original*
G04 #@! TF.FileFunction,Copper,L2,Bot*
G04 #@! TF.FilePolarity,Positive*
%FSLAX46Y46*%
G04 Gerber Fmt 4.6, Leading zero omitted, Abs format (unit mm)*
G04 Created by KiCad (PCBNEW 5.1.5+dfsg1-2build2) date 2021-03-11 17:09:23*
%MOMM*%
%LPD*%
G04 APERTURE LIST*
%ADD10C,0.250000*%
%ADD11C,2.250000*%
%ADD12C,2.050000*%
%ADD13C,0.800000*%
G04 APERTURE END LIST*
D10*
X44560119Y-31502380D02*
X44893452Y-31026190D01*
X45131547Y-31502380D02*
X45131547Y-30502380D01*
X44750595Y-30502380D01*
X44655357Y-30550000D01*
X44607738Y-30597619D01*
X44560119Y-30692857D01*
X44560119Y-30835714D01*
X44607738Y-30930952D01*
X44655357Y-30978571D01*
X44750595Y-31026190D01*
X45131547Y-31026190D01*
X43560119Y-31407142D02*
X43607738Y-31454761D01*
X43750595Y-31502380D01*
X43845833Y-31502380D01*
X43988690Y-31454761D01*
X44083928Y-31359523D01*
X44131547Y-31264285D01*
X44179166Y-31073809D01*
X44179166Y-30930952D01*
X44131547Y-30740476D01*
X44083928Y-30645238D01*
X43988690Y-30550000D01*
X43845833Y-30502380D01*
X43750595Y-30502380D01*
X43607738Y-30550000D01*
X43560119Y-30597619D01*
X43274404Y-30502380D02*
X42941071Y-31502380D01*
X42607738Y-30502380D01*
X75447023Y-31216666D02*
X74970833Y-31216666D01*
X75542261Y-31502380D02*
X75208928Y-30502380D01*
X74875595Y-31502380D01*
X74542261Y-31502380D02*
X74542261Y-30502380D01*
X73970833Y-31502380D01*
X73970833Y-30502380D01*
X73637500Y-30502380D02*
X73066071Y-30502380D01*
X73351785Y-31502380D02*
X73351785Y-30502380D01*
D11*
X68060000Y-34260000D03*
X73140000Y-34260000D03*
X73140000Y-39340000D03*
X68060000Y-39340000D03*
D12*
X70600000Y-36800000D03*
D11*
X45060000Y-39340000D03*
X45060000Y-34260000D03*
X50140000Y-34260000D03*
X50140000Y-39340000D03*
D12*
X47600000Y-36800000D03*
D13*
X54300000Y-35300000D03*
X53100000Y-35400000D03*
X53100000Y-38200000D03*
X54300000Y-38300000D03*
X57300000Y-35300000D03*
X57300000Y-38250000D03*
X62100000Y-37900000D03*
X62000000Y-35650000D03*
X63300000Y-35000000D03*
X63300000Y-38600000D03*
X59900000Y-38200000D03*
X59900000Y-35400000D03*
X58600000Y-38200000D03*
X51900000Y-38200000D03*
X51900000Y-35400000D03*
X55800000Y-37900000D03*
X54500000Y-39700000D03*
X57100000Y-39700000D03*
X55000000Y-41300000D03*
X56600000Y-41300000D03*
X61050000Y-38650000D03*
X61050000Y-34950000D03*
X55800000Y-35800000D03*
X58600000Y-35400000D03*
X64900000Y-38200000D03*
X64900000Y-35400000D03*
X66300000Y-35400000D03*
X66300000Y-38200000D03*
D10*
G36*
X72558333Y-32342500D02*
G01*
X75600000Y-32342500D01*
X75600001Y-43200000D01*
X42550000Y-43200000D01*
X42550000Y-40564761D01*
X44017672Y-40564761D01*
X44128809Y-40841142D01*
X44439560Y-40993964D01*
X44774153Y-41083226D01*
X45119733Y-41105496D01*
X45463016Y-41059919D01*
X45790812Y-40948246D01*
X45991191Y-40841142D01*
X46102328Y-40564761D01*
X49097672Y-40564761D01*
X49208809Y-40841142D01*
X49519560Y-40993964D01*
X49854153Y-41083226D01*
X50199733Y-41105496D01*
X50543016Y-41059919D01*
X50870812Y-40948246D01*
X51071191Y-40841142D01*
X51182328Y-40564761D01*
X67017672Y-40564761D01*
X67128809Y-40841142D01*
X67439560Y-40993964D01*
X67774153Y-41083226D01*
X68119733Y-41105496D01*
X68463016Y-41059919D01*
X68790812Y-40948246D01*
X68991191Y-40841142D01*
X69102328Y-40564761D01*
X72097672Y-40564761D01*
X72208809Y-40841142D01*
X72519560Y-40993964D01*
X72854153Y-41083226D01*
X73199733Y-41105496D01*
X73543016Y-41059919D01*
X73870812Y-40948246D01*
X74071191Y-40841142D01*
X74182328Y-40564761D01*
X73140000Y-39522434D01*
X72097672Y-40564761D01*
X69102328Y-40564761D01*
X68060000Y-39522434D01*
X67017672Y-40564761D01*
X51182328Y-40564761D01*
X50140000Y-39522434D01*
X49097672Y-40564761D01*
X46102328Y-40564761D01*
X45060000Y-39522434D01*
X44017672Y-40564761D01*
X42550000Y-40564761D01*
X42550000Y-39399733D01*
X43294504Y-39399733D01*
X43340081Y-39743016D01*
X43451754Y-40070812D01*
X43558858Y-40271191D01*
X43835239Y-40382328D01*
X44877566Y-39340000D01*
X45242434Y-39340000D01*
X46284761Y-40382328D01*
X46561142Y-40271191D01*
X46713964Y-39960440D01*
X46803226Y-39625847D01*
X46817797Y-39399733D01*
X48374504Y-39399733D01*
X48420081Y-39743016D01*
X48531754Y-40070812D01*
X48638858Y-40271191D01*
X48915239Y-40382328D01*
X49957566Y-39340000D01*
X50322434Y-39340000D01*
X51364761Y-40382328D01*
X51641142Y-40271191D01*
X51793964Y-39960440D01*
X51883226Y-39625847D01*
X51897797Y-39399733D01*
X66294504Y-39399733D01*
X66340081Y-39743016D01*
X66451754Y-40070812D01*
X66558858Y-40271191D01*
X66835239Y-40382328D01*
X67877566Y-39340000D01*
X68242434Y-39340000D01*
X69284761Y-40382328D01*
X69561142Y-40271191D01*
X69713964Y-39960440D01*
X69803226Y-39625847D01*
X69817797Y-39399733D01*
X71374504Y-39399733D01*
X71420081Y-39743016D01*
X71531754Y-40070812D01*
X71638858Y-40271191D01*
X71915239Y-40382328D01*
X72957566Y-39340000D01*
X73322434Y-39340000D01*
X74364761Y-40382328D01*
X74641142Y-40271191D01*
X74793964Y-39960440D01*
X74883226Y-39625847D01*
X74905496Y-39280267D01*
X74859919Y-38936984D01*
X74748246Y-38609188D01*
X74641142Y-38408809D01*
X74364761Y-38297672D01*
X73322434Y-39340000D01*
X72957566Y-39340000D01*
X71915239Y-38297672D01*
X71638858Y-38408809D01*
X71486036Y-38719560D01*
X71396774Y-39054153D01*
X71374504Y-39399733D01*
X69817797Y-39399733D01*
X69825496Y-39280267D01*
X69779919Y-38936984D01*
X69668246Y-38609188D01*
X69561142Y-38408809D01*
X69284761Y-38297672D01*
X68242434Y-39340000D01*
X67877566Y-39340000D01*
X66835239Y-38297672D01*
X66558858Y-38408809D01*
X66406036Y-38719560D01*
X66316774Y-39054153D01*
X66294504Y-39399733D01*
X51897797Y-39399733D01*
X51905496Y-39280267D01*
X51859919Y-38936984D01*
X51748246Y-38609188D01*
X51641142Y-38408809D01*
X51364761Y-38297672D01*
X50322434Y-39340000D01*
X49957566Y-39340000D01*
X48915239Y-38297672D01*
X48638858Y-38408809D01*
X48486036Y-38719560D01*
X48396774Y-39054153D01*
X48374504Y-39399733D01*
X46817797Y-39399733D01*
X46825496Y-39280267D01*
X46779919Y-38936984D01*
X46668246Y-38609188D01*
X46561142Y-38408809D01*
X46284761Y-38297672D01*
X45242434Y-39340000D01*
X44877566Y-39340000D01*
X43835239Y-38297672D01*
X43558858Y-38408809D01*
X43406036Y-38719560D01*
X43316774Y-39054153D01*
X43294504Y-39399733D01*
X42550000Y-39399733D01*
X42550000Y-38115239D01*
X44017672Y-38115239D01*
X45060000Y-39157566D01*
X46102328Y-38115239D01*
X45991191Y-37838858D01*
X45680440Y-37686036D01*
X45345847Y-37596774D01*
X45000267Y-37574504D01*
X44656984Y-37620081D01*
X44329188Y-37731754D01*
X44128809Y-37838858D01*
X44017672Y-38115239D01*
X42550000Y-38115239D01*
X42550000Y-36654233D01*
X46120000Y-36654233D01*
X46120000Y-36945767D01*
X46176876Y-37231700D01*
X46288441Y-37501043D01*
X46450409Y-37743445D01*
X46656555Y-37949591D01*
X46898957Y-38111559D01*
X47168300Y-38223124D01*
X47454233Y-38280000D01*
X47745767Y-38280000D01*
X48031700Y-38223124D01*
X48292158Y-38115239D01*
X49097672Y-38115239D01*
X50140000Y-39157566D01*
X51182328Y-38115239D01*
X67017672Y-38115239D01*
X68060000Y-39157566D01*
X69102328Y-38115239D01*
X68991191Y-37838858D01*
X68680440Y-37686036D01*
X68345847Y-37596774D01*
X68000267Y-37574504D01*
X67656984Y-37620081D01*
X67329188Y-37731754D01*
X67128809Y-37838858D01*
X67017672Y-38115239D01*
X51182328Y-38115239D01*
X51071191Y-37838858D01*
X50760440Y-37686036D01*
X50425847Y-37596774D01*
X50080267Y-37574504D01*
X49736984Y-37620081D01*
X49409188Y-37731754D01*
X49208809Y-37838858D01*
X49097672Y-38115239D01*
X48292158Y-38115239D01*
X48301043Y-38111559D01*
X48543445Y-37949591D01*
X48749591Y-37743445D01*
X48911559Y-37501043D01*
X49023124Y-37231700D01*
X49080000Y-36945767D01*
X49080000Y-36654233D01*
X69120000Y-36654233D01*
X69120000Y-36945767D01*
X69176876Y-37231700D01*
X69288441Y-37501043D01*
X69450409Y-37743445D01*
X69656555Y-37949591D01*
X69898957Y-38111559D01*
X70168300Y-38223124D01*
X70454233Y-38280000D01*
X70745767Y-38280000D01*
X71031700Y-38223124D01*
X71292158Y-38115239D01*
X72097672Y-38115239D01*
X73140000Y-39157566D01*
X74182328Y-38115239D01*
X74071191Y-37838858D01*
X73760440Y-37686036D01*
X73425847Y-37596774D01*
X73080267Y-37574504D01*
X72736984Y-37620081D01*
X72409188Y-37731754D01*
X72208809Y-37838858D01*
X72097672Y-38115239D01*
X71292158Y-38115239D01*
X71301043Y-38111559D01*
X71543445Y-37949591D01*
X71749591Y-37743445D01*
X71911559Y-37501043D01*
X72023124Y-37231700D01*
X72080000Y-36945767D01*
X72080000Y-36654233D01*
X72023124Y-36368300D01*
X71911559Y-36098957D01*
X71749591Y-35856555D01*
X71543445Y-35650409D01*
X71301043Y-35488441D01*
X71292159Y-35484761D01*
X72097672Y-35484761D01*
X72208809Y-35761142D01*
X72519560Y-35913964D01*
X72854153Y-36003226D01*
X73199733Y-36025496D01*
X73543016Y-35979919D01*
X73870812Y-35868246D01*
X74071191Y-35761142D01*
X74182328Y-35484761D01*
X73140000Y-34442434D01*
X72097672Y-35484761D01*
X71292159Y-35484761D01*
X71031700Y-35376876D01*
X70745767Y-35320000D01*
X70454233Y-35320000D01*
X70168300Y-35376876D01*
X69898957Y-35488441D01*
X69656555Y-35650409D01*
X69450409Y-35856555D01*
X69288441Y-36098957D01*
X69176876Y-36368300D01*
X69120000Y-36654233D01*
X49080000Y-36654233D01*
X49023124Y-36368300D01*
X48911559Y-36098957D01*
X48749591Y-35856555D01*
X48543445Y-35650409D01*
X48301043Y-35488441D01*
X48292159Y-35484761D01*
X49097672Y-35484761D01*
X49208809Y-35761142D01*
X49519560Y-35913964D01*
X49854153Y-36003226D01*
X50199733Y-36025496D01*
X50543016Y-35979919D01*
X50870812Y-35868246D01*
X51071191Y-35761142D01*
X51182328Y-35484761D01*
X67017672Y-35484761D01*
X67128809Y-35761142D01*
X67439560Y-35913964D01*
X67774153Y-36003226D01*
X68119733Y-36025496D01*
X68463016Y-35979919D01*
X68790812Y-35868246D01*
X68991191Y-35761142D01*
X69102328Y-35484761D01*
X68060000Y-34442434D01*
X67017672Y-35484761D01*
X51182328Y-35484761D01*
X50140000Y-34442434D01*
X49097672Y-35484761D01*
X48292159Y-35484761D01*
X48031700Y-35376876D01*
X47745767Y-35320000D01*
X47454233Y-35320000D01*
X47168300Y-35376876D01*
X46898957Y-35488441D01*
X46656555Y-35650409D01*
X46450409Y-35856555D01*
X46288441Y-36098957D01*
X46176876Y-36368300D01*
X46120000Y-36654233D01*
X42550000Y-36654233D01*
X42550000Y-35484761D01*
X44017672Y-35484761D01*
X44128809Y-35761142D01*
X44439560Y-35913964D01*
X44774153Y-36003226D01*
X45119733Y-36025496D01*
X45463016Y-35979919D01*
X45790812Y-35868246D01*
X45991191Y-35761142D01*
X46102328Y-35484761D01*
X45060000Y-34442434D01*
X44017672Y-35484761D01*
X42550000Y-35484761D01*
X42550000Y-34319733D01*
X43294504Y-34319733D01*
X43340081Y-34663016D01*
X43451754Y-34990812D01*
X43558858Y-35191191D01*
X43835239Y-35302328D01*
X44877566Y-34260000D01*
X45242434Y-34260000D01*
X46284761Y-35302328D01*
X46561142Y-35191191D01*
X46713964Y-34880440D01*
X46803226Y-34545847D01*
X46817797Y-34319733D01*
X48374504Y-34319733D01*
X48420081Y-34663016D01*
X48531754Y-34990812D01*
X48638858Y-35191191D01*
X48915239Y-35302328D01*
X49957566Y-34260000D01*
X50322434Y-34260000D01*
X51364761Y-35302328D01*
X51641142Y-35191191D01*
X51793964Y-34880440D01*
X51883226Y-34545847D01*
X51897797Y-34319733D01*
X66294504Y-34319733D01*
X66340081Y-34663016D01*
X66451754Y-34990812D01*
X66558858Y-35191191D01*
X66835239Y-35302328D01*
X67877566Y-34260000D01*
X68242434Y-34260000D01*
X69284761Y-35302328D01*
X69561142Y-35191191D01*
X69713964Y-34880440D01*
X69803226Y-34545847D01*
X69817797Y-34319733D01*
X71374504Y-34319733D01*
X71420081Y-34663016D01*
X71531754Y-34990812D01*
X71638858Y-35191191D01*
X71915239Y-35302328D01*
X72957566Y-34260000D01*
X73322434Y-34260000D01*
X74364761Y-35302328D01*
X74641142Y-35191191D01*
X74793964Y-34880440D01*
X74883226Y-34545847D01*
X74905496Y-34200267D01*
X74859919Y-33856984D01*
X74748246Y-33529188D01*
X74641142Y-33328809D01*
X74364761Y-33217672D01*
X73322434Y-34260000D01*
X72957566Y-34260000D01*
X71915239Y-33217672D01*
X71638858Y-33328809D01*
X71486036Y-33639560D01*
X71396774Y-33974153D01*
X71374504Y-34319733D01*
X69817797Y-34319733D01*
X69825496Y-34200267D01*
X69779919Y-33856984D01*
X69668246Y-33529188D01*
X69561142Y-33328809D01*
X69284761Y-33217672D01*
X68242434Y-34260000D01*
X67877566Y-34260000D01*
X66835239Y-33217672D01*
X66558858Y-33328809D01*
X66406036Y-33639560D01*
X66316774Y-33974153D01*
X66294504Y-34319733D01*
X51897797Y-34319733D01*
X51905496Y-34200267D01*
X51859919Y-33856984D01*
X51748246Y-33529188D01*
X51641142Y-33328809D01*
X51364761Y-33217672D01*
X50322434Y-34260000D01*
X49957566Y-34260000D01*
X48915239Y-33217672D01*
X48638858Y-33328809D01*
X48486036Y-33639560D01*
X48396774Y-33974153D01*
X48374504Y-34319733D01*
X46817797Y-34319733D01*
X46825496Y-34200267D01*
X46779919Y-33856984D01*
X46668246Y-33529188D01*
X46561142Y-33328809D01*
X46284761Y-33217672D01*
X45242434Y-34260000D01*
X44877566Y-34260000D01*
X43835239Y-33217672D01*
X43558858Y-33328809D01*
X43406036Y-33639560D01*
X43316774Y-33974153D01*
X43294504Y-34319733D01*
X42550000Y-34319733D01*
X42550000Y-33035239D01*
X44017672Y-33035239D01*
X45060000Y-34077566D01*
X46102328Y-33035239D01*
X49097672Y-33035239D01*
X50140000Y-34077566D01*
X51182328Y-33035239D01*
X67017672Y-33035239D01*
X68060000Y-34077566D01*
X69102328Y-33035239D01*
X72097672Y-33035239D01*
X73140000Y-34077566D01*
X74182328Y-33035239D01*
X74071191Y-32758858D01*
X73760440Y-32606036D01*
X73425847Y-32516774D01*
X73080267Y-32494504D01*
X72736984Y-32540081D01*
X72409188Y-32651754D01*
X72208809Y-32758858D01*
X72097672Y-33035239D01*
X69102328Y-33035239D01*
X68991191Y-32758858D01*
X68680440Y-32606036D01*
X68345847Y-32516774D01*
X68000267Y-32494504D01*
X67656984Y-32540081D01*
X67329188Y-32651754D01*
X67128809Y-32758858D01*
X67017672Y-33035239D01*
X51182328Y-33035239D01*
X51071191Y-32758858D01*
X50760440Y-32606036D01*
X50425847Y-32516774D01*
X50080267Y-32494504D01*
X49736984Y-32540081D01*
X49409188Y-32651754D01*
X49208809Y-32758858D01*
X49097672Y-33035239D01*
X46102328Y-33035239D01*
X45991191Y-32758858D01*
X45680440Y-32606036D01*
X45345847Y-32516774D01*
X45000267Y-32494504D01*
X44656984Y-32540081D01*
X44329188Y-32651754D01*
X44128809Y-32758858D01*
X44017672Y-33035239D01*
X42550000Y-33035239D01*
X42550000Y-32342500D01*
X45782143Y-32342500D01*
X45782143Y-30400000D01*
X72558333Y-30400000D01*
X72558333Y-32342500D01*
G37*
X72558333Y-32342500D02*
X75600000Y-32342500D01*
X75600001Y-43200000D01*
X42550000Y-43200000D01*
X42550000Y-40564761D01*
X44017672Y-40564761D01*
X44128809Y-40841142D01*
X44439560Y-40993964D01*
X44774153Y-41083226D01*
X45119733Y-41105496D01*
X45463016Y-41059919D01*
X45790812Y-40948246D01*
X45991191Y-40841142D01*
X46102328Y-40564761D01*
X49097672Y-40564761D01*
X49208809Y-40841142D01*
X49519560Y-40993964D01*
X49854153Y-41083226D01*
X50199733Y-41105496D01*
X50543016Y-41059919D01*
X50870812Y-40948246D01*
X51071191Y-40841142D01*
X51182328Y-40564761D01*
X67017672Y-40564761D01*
X67128809Y-40841142D01*
X67439560Y-40993964D01*
X67774153Y-41083226D01*
X68119733Y-41105496D01*
X68463016Y-41059919D01*
X68790812Y-40948246D01*
X68991191Y-40841142D01*
X69102328Y-40564761D01*
X72097672Y-40564761D01*
X72208809Y-40841142D01*
X72519560Y-40993964D01*
X72854153Y-41083226D01*
X73199733Y-41105496D01*
X73543016Y-41059919D01*
X73870812Y-40948246D01*
X74071191Y-40841142D01*
X74182328Y-40564761D01*
X73140000Y-39522434D01*
X72097672Y-40564761D01*
X69102328Y-40564761D01*
X68060000Y-39522434D01*
X67017672Y-40564761D01*
X51182328Y-40564761D01*
X50140000Y-39522434D01*
X49097672Y-40564761D01*
X46102328Y-40564761D01*
X45060000Y-39522434D01*
X44017672Y-40564761D01*
X42550000Y-40564761D01*
X42550000Y-39399733D01*
X43294504Y-39399733D01*
X43340081Y-39743016D01*
X43451754Y-40070812D01*
X43558858Y-40271191D01*
X43835239Y-40382328D01*
X44877566Y-39340000D01*
X45242434Y-39340000D01*
X46284761Y-40382328D01*
X46561142Y-40271191D01*
X46713964Y-39960440D01*
X46803226Y-39625847D01*
X46817797Y-39399733D01*
X48374504Y-39399733D01*
X48420081Y-39743016D01*
X48531754Y-40070812D01*
X48638858Y-40271191D01*
X48915239Y-40382328D01*
X49957566Y-39340000D01*
X50322434Y-39340000D01*
X51364761Y-40382328D01*
X51641142Y-40271191D01*
X51793964Y-39960440D01*
X51883226Y-39625847D01*
X51897797Y-39399733D01*
X66294504Y-39399733D01*
X66340081Y-39743016D01*
X66451754Y-40070812D01*
X66558858Y-40271191D01*
X66835239Y-40382328D01*
X67877566Y-39340000D01*
X68242434Y-39340000D01*
X69284761Y-40382328D01*
X69561142Y-40271191D01*
X69713964Y-39960440D01*
X69803226Y-39625847D01*
X69817797Y-39399733D01*
X71374504Y-39399733D01*
X71420081Y-39743016D01*
X71531754Y-40070812D01*
X71638858Y-40271191D01*
X71915239Y-40382328D01*
X72957566Y-39340000D01*
X73322434Y-39340000D01*
X74364761Y-40382328D01*
X74641142Y-40271191D01*
X74793964Y-39960440D01*
X74883226Y-39625847D01*
X74905496Y-39280267D01*
X74859919Y-38936984D01*
X74748246Y-38609188D01*
X74641142Y-38408809D01*
X74364761Y-38297672D01*
X73322434Y-39340000D01*
X72957566Y-39340000D01*
X71915239Y-38297672D01*
X71638858Y-38408809D01*
X71486036Y-38719560D01*
X71396774Y-39054153D01*
X71374504Y-39399733D01*
X69817797Y-39399733D01*
X69825496Y-39280267D01*
X69779919Y-38936984D01*
X69668246Y-38609188D01*
X69561142Y-38408809D01*
X69284761Y-38297672D01*
X68242434Y-39340000D01*
X67877566Y-39340000D01*
X66835239Y-38297672D01*
X66558858Y-38408809D01*
X66406036Y-38719560D01*
X66316774Y-39054153D01*
X66294504Y-39399733D01*
X51897797Y-39399733D01*
X51905496Y-39280267D01*
X51859919Y-38936984D01*
X51748246Y-38609188D01*
X51641142Y-38408809D01*
X51364761Y-38297672D01*
X50322434Y-39340000D01*
X49957566Y-39340000D01*
X48915239Y-38297672D01*
X48638858Y-38408809D01*
X48486036Y-38719560D01*
X48396774Y-39054153D01*
X48374504Y-39399733D01*
X46817797Y-39399733D01*
X46825496Y-39280267D01*
X46779919Y-38936984D01*
X46668246Y-38609188D01*
X46561142Y-38408809D01*
X46284761Y-38297672D01*
X45242434Y-39340000D01*
X44877566Y-39340000D01*
X43835239Y-38297672D01*
X43558858Y-38408809D01*
X43406036Y-38719560D01*
X43316774Y-39054153D01*
X43294504Y-39399733D01*
X42550000Y-39399733D01*
X42550000Y-38115239D01*
X44017672Y-38115239D01*
X45060000Y-39157566D01*
X46102328Y-38115239D01*
X45991191Y-37838858D01*
X45680440Y-37686036D01*
X45345847Y-37596774D01*
X45000267Y-37574504D01*
X44656984Y-37620081D01*
X44329188Y-37731754D01*
X44128809Y-37838858D01*
X44017672Y-38115239D01*
X42550000Y-38115239D01*
X42550000Y-36654233D01*
X46120000Y-36654233D01*
X46120000Y-36945767D01*
X46176876Y-37231700D01*
X46288441Y-37501043D01*
X46450409Y-37743445D01*
X46656555Y-37949591D01*
X46898957Y-38111559D01*
X47168300Y-38223124D01*
X47454233Y-38280000D01*
X47745767Y-38280000D01*
X48031700Y-38223124D01*
X48292158Y-38115239D01*
X49097672Y-38115239D01*
X50140000Y-39157566D01*
X51182328Y-38115239D01*
X67017672Y-38115239D01*
X68060000Y-39157566D01*
X69102328Y-38115239D01*
X68991191Y-37838858D01*
X68680440Y-37686036D01*
X68345847Y-37596774D01*
X68000267Y-37574504D01*
X67656984Y-37620081D01*
X67329188Y-37731754D01*
X67128809Y-37838858D01*
X67017672Y-38115239D01*
X51182328Y-38115239D01*
X51071191Y-37838858D01*
X50760440Y-37686036D01*
X50425847Y-37596774D01*
X50080267Y-37574504D01*
X49736984Y-37620081D01*
X49409188Y-37731754D01*
X49208809Y-37838858D01*
X49097672Y-38115239D01*
X48292158Y-38115239D01*
X48301043Y-38111559D01*
X48543445Y-37949591D01*
X48749591Y-37743445D01*
X48911559Y-37501043D01*
X49023124Y-37231700D01*
X49080000Y-36945767D01*
X49080000Y-36654233D01*
X69120000Y-36654233D01*
X69120000Y-36945767D01*
X69176876Y-37231700D01*
X69288441Y-37501043D01*
X69450409Y-37743445D01*
X69656555Y-37949591D01*
X69898957Y-38111559D01*
X70168300Y-38223124D01*
X70454233Y-38280000D01*
X70745767Y-38280000D01*
X71031700Y-38223124D01*
X71292158Y-38115239D01*
X72097672Y-38115239D01*
X73140000Y-39157566D01*
X74182328Y-38115239D01*
X74071191Y-37838858D01*
X73760440Y-37686036D01*
X73425847Y-37596774D01*
X73080267Y-37574504D01*
X72736984Y-37620081D01*
X72409188Y-37731754D01*
X72208809Y-37838858D01*
X72097672Y-38115239D01*
X71292158Y-38115239D01*
X71301043Y-38111559D01*
X71543445Y-37949591D01*
X71749591Y-37743445D01*
X71911559Y-37501043D01*
X72023124Y-37231700D01*
X72080000Y-36945767D01*
X72080000Y-36654233D01*
X72023124Y-36368300D01*
X71911559Y-36098957D01*
X71749591Y-35856555D01*
X71543445Y-35650409D01*
X71301043Y-35488441D01*
X71292159Y-35484761D01*
X72097672Y-35484761D01*
X72208809Y-35761142D01*
X72519560Y-35913964D01*
X72854153Y-36003226D01*
X73199733Y-36025496D01*
X73543016Y-35979919D01*
X73870812Y-35868246D01*
X74071191Y-35761142D01*
X74182328Y-35484761D01*
X73140000Y-34442434D01*
X72097672Y-35484761D01*
X71292159Y-35484761D01*
X71031700Y-35376876D01*
X70745767Y-35320000D01*
X70454233Y-35320000D01*
X70168300Y-35376876D01*
X69898957Y-35488441D01*
X69656555Y-35650409D01*
X69450409Y-35856555D01*
X69288441Y-36098957D01*
X69176876Y-36368300D01*
X69120000Y-36654233D01*
X49080000Y-36654233D01*
X49023124Y-36368300D01*
X48911559Y-36098957D01*
X48749591Y-35856555D01*
X48543445Y-35650409D01*
X48301043Y-35488441D01*
X48292159Y-35484761D01*
X49097672Y-35484761D01*
X49208809Y-35761142D01*
X49519560Y-35913964D01*
X49854153Y-36003226D01*
X50199733Y-36025496D01*
X50543016Y-35979919D01*
X50870812Y-35868246D01*
X51071191Y-35761142D01*
X51182328Y-35484761D01*
X67017672Y-35484761D01*
X67128809Y-35761142D01*
X67439560Y-35913964D01*
X67774153Y-36003226D01*
X68119733Y-36025496D01*
X68463016Y-35979919D01*
X68790812Y-35868246D01*
X68991191Y-35761142D01*
X69102328Y-35484761D01*
X68060000Y-34442434D01*
X67017672Y-35484761D01*
X51182328Y-35484761D01*
X50140000Y-34442434D01*
X49097672Y-35484761D01*
X48292159Y-35484761D01*
X48031700Y-35376876D01*
X47745767Y-35320000D01*
X47454233Y-35320000D01*
X47168300Y-35376876D01*
X46898957Y-35488441D01*
X46656555Y-35650409D01*
X46450409Y-35856555D01*
X46288441Y-36098957D01*
X46176876Y-36368300D01*
X46120000Y-36654233D01*
X42550000Y-36654233D01*
X42550000Y-35484761D01*
X44017672Y-35484761D01*
X44128809Y-35761142D01*
X44439560Y-35913964D01*
X44774153Y-36003226D01*
X45119733Y-36025496D01*
X45463016Y-35979919D01*
X45790812Y-35868246D01*
X45991191Y-35761142D01*
X46102328Y-35484761D01*
X45060000Y-34442434D01*
X44017672Y-35484761D01*
X42550000Y-35484761D01*
X42550000Y-34319733D01*
X43294504Y-34319733D01*
X43340081Y-34663016D01*
X43451754Y-34990812D01*
X43558858Y-35191191D01*
X43835239Y-35302328D01*
X44877566Y-34260000D01*
X45242434Y-34260000D01*
X46284761Y-35302328D01*
X46561142Y-35191191D01*
X46713964Y-34880440D01*
X46803226Y-34545847D01*
X46817797Y-34319733D01*
X48374504Y-34319733D01*
X48420081Y-34663016D01*
X48531754Y-34990812D01*
X48638858Y-35191191D01*
X48915239Y-35302328D01*
X49957566Y-34260000D01*
X50322434Y-34260000D01*
X51364761Y-35302328D01*
X51641142Y-35191191D01*
X51793964Y-34880440D01*
X51883226Y-34545847D01*
X51897797Y-34319733D01*
X66294504Y-34319733D01*
X66340081Y-34663016D01*
X66451754Y-34990812D01*
X66558858Y-35191191D01*
X66835239Y-35302328D01*
X67877566Y-34260000D01*
X68242434Y-34260000D01*
X69284761Y-35302328D01*
X69561142Y-35191191D01*
X69713964Y-34880440D01*
X69803226Y-34545847D01*
X69817797Y-34319733D01*
X71374504Y-34319733D01*
X71420081Y-34663016D01*
X71531754Y-34990812D01*
X71638858Y-35191191D01*
X71915239Y-35302328D01*
X72957566Y-34260000D01*
X73322434Y-34260000D01*
X74364761Y-35302328D01*
X74641142Y-35191191D01*
X74793964Y-34880440D01*
X74883226Y-34545847D01*
X74905496Y-34200267D01*
X74859919Y-33856984D01*
X74748246Y-33529188D01*
X74641142Y-33328809D01*
X74364761Y-33217672D01*
X73322434Y-34260000D01*
X72957566Y-34260000D01*
X71915239Y-33217672D01*
X71638858Y-33328809D01*
X71486036Y-33639560D01*
X71396774Y-33974153D01*
X71374504Y-34319733D01*
X69817797Y-34319733D01*
X69825496Y-34200267D01*
X69779919Y-33856984D01*
X69668246Y-33529188D01*
X69561142Y-33328809D01*
X69284761Y-33217672D01*
X68242434Y-34260000D01*
X67877566Y-34260000D01*
X66835239Y-33217672D01*
X66558858Y-33328809D01*
X66406036Y-33639560D01*
X66316774Y-33974153D01*
X66294504Y-34319733D01*
X51897797Y-34319733D01*
X51905496Y-34200267D01*
X51859919Y-33856984D01*
X51748246Y-33529188D01*
X51641142Y-33328809D01*
X51364761Y-33217672D01*
X50322434Y-34260000D01*
X49957566Y-34260000D01*
X48915239Y-33217672D01*
X48638858Y-33328809D01*
X48486036Y-33639560D01*
X48396774Y-33974153D01*
X48374504Y-34319733D01*
X46817797Y-34319733D01*
X46825496Y-34200267D01*
X46779919Y-33856984D01*
X46668246Y-33529188D01*
X46561142Y-33328809D01*
X46284761Y-33217672D01*
X45242434Y-34260000D01*
X44877566Y-34260000D01*
X43835239Y-33217672D01*
X43558858Y-33328809D01*
X43406036Y-33639560D01*
X43316774Y-33974153D01*
X43294504Y-34319733D01*
X42550000Y-34319733D01*
X42550000Y-33035239D01*
X44017672Y-33035239D01*
X45060000Y-34077566D01*
X46102328Y-33035239D01*
X49097672Y-33035239D01*
X50140000Y-34077566D01*
X51182328Y-33035239D01*
X67017672Y-33035239D01*
X68060000Y-34077566D01*
X69102328Y-33035239D01*
X72097672Y-33035239D01*
X73140000Y-34077566D01*
X74182328Y-33035239D01*
X74071191Y-32758858D01*
X73760440Y-32606036D01*
X73425847Y-32516774D01*
X73080267Y-32494504D01*
X72736984Y-32540081D01*
X72409188Y-32651754D01*
X72208809Y-32758858D01*
X72097672Y-33035239D01*
X69102328Y-33035239D01*
X68991191Y-32758858D01*
X68680440Y-32606036D01*
X68345847Y-32516774D01*
X68000267Y-32494504D01*
X67656984Y-32540081D01*
X67329188Y-32651754D01*
X67128809Y-32758858D01*
X67017672Y-33035239D01*
X51182328Y-33035239D01*
X51071191Y-32758858D01*
X50760440Y-32606036D01*
X50425847Y-32516774D01*
X50080267Y-32494504D01*
X49736984Y-32540081D01*
X49409188Y-32651754D01*
X49208809Y-32758858D01*
X49097672Y-33035239D01*
X46102328Y-33035239D01*
X45991191Y-32758858D01*
X45680440Y-32606036D01*
X45345847Y-32516774D01*
X45000267Y-32494504D01*
X44656984Y-32540081D01*
X44329188Y-32651754D01*
X44128809Y-32758858D01*
X44017672Y-33035239D01*
X42550000Y-33035239D01*
X42550000Y-32342500D01*
X45782143Y-32342500D01*
X45782143Y-30400000D01*
X72558333Y-30400000D01*
X72558333Y-32342500D01*
M02*
