G04 #@! TF.GenerationSoftware,KiCad,Pcbnew,5.1.5+dfsg1-2build2*
G04 #@! TF.CreationDate,2021-03-11T17:09:23+01:00*
G04 #@! TF.ProjectId,70cm_preamp,3730636d-5f70-4726-9561-6d702e6b6963,rev?*
G04 #@! TF.SameCoordinates,Original*
G04 #@! TF.FileFunction,Copper,L1,Top*
G04 #@! TF.FilePolarity,Positive*
%FSLAX46Y46*%
G04 Gerber Fmt 4.6, Leading zero omitted, Abs format (unit mm)*
G04 Created by KiCad (PCBNEW 5.1.5+dfsg1-2build2) date 2021-03-11 17:09:23*
%MOMM*%
%LPD*%
G04 APERTURE LIST*
%ADD10C,0.187500*%
%ADD11C,2.250000*%
%ADD12C,2.050000*%
%ADD13C,0.100000*%
%ADD14R,1.000000X1.500000*%
%ADD15R,1.000000X1.800000*%
%ADD16R,2.200000X1.840000*%
%ADD17R,1.550000X0.810000*%
%ADD18R,2.200000X0.810000*%
%ADD19C,0.800000*%
%ADD20C,1.300000*%
%ADD21C,0.810000*%
%ADD22C,0.250000*%
G04 APERTURE END LIST*
D10*
X56657142Y-31602380D02*
X56657142Y-30602380D01*
X56657142Y-31078571D02*
X57228571Y-31078571D01*
X57228571Y-31602380D02*
X57228571Y-30602380D01*
X57657142Y-31316666D02*
X58133333Y-31316666D01*
X57561904Y-31602380D02*
X57895238Y-30602380D01*
X58228571Y-31602380D01*
X59038095Y-30602380D02*
X58561904Y-30602380D01*
X58514285Y-31078571D01*
X58561904Y-31030952D01*
X58657142Y-30983333D01*
X58895238Y-30983333D01*
X58990476Y-31030952D01*
X59038095Y-31078571D01*
X59085714Y-31173809D01*
X59085714Y-31411904D01*
X59038095Y-31507142D01*
X58990476Y-31554761D01*
X58895238Y-31602380D01*
X58657142Y-31602380D01*
X58561904Y-31554761D01*
X58514285Y-31507142D01*
X59514285Y-31602380D02*
X59514285Y-30602380D01*
X60085714Y-31602380D02*
X59657142Y-31030952D01*
X60085714Y-30602380D02*
X59514285Y-31173809D01*
X60847619Y-31078571D02*
X60514285Y-31078571D01*
X60514285Y-31602380D02*
X60514285Y-30602380D01*
X60990476Y-30602380D01*
X61371428Y-30602380D02*
X61371428Y-31411904D01*
X61419047Y-31507142D01*
X61466666Y-31554761D01*
X61561904Y-31602380D01*
X61752380Y-31602380D01*
X61847619Y-31554761D01*
X61895238Y-31507142D01*
X61942857Y-31411904D01*
X61942857Y-30602380D01*
D11*
X68060000Y-34260000D03*
X73140000Y-34260000D03*
X73140000Y-39340000D03*
X68060000Y-39340000D03*
D12*
X70600000Y-36800000D03*
G04 #@! TA.AperFunction,SMDPad,CuDef*
D13*
G36*
X56900000Y-40518500D02*
G01*
X56300000Y-41368500D01*
X55300000Y-41368500D01*
X54700000Y-40518500D01*
X56900000Y-40518500D01*
G37*
G04 #@! TD.AperFunction*
D14*
X57300000Y-36796500D03*
D15*
X55800000Y-36943000D03*
D14*
X54300000Y-36796500D03*
D16*
X55800000Y-39610000D03*
G04 #@! TA.AperFunction,SMDPad,CuDef*
D13*
G36*
X54700000Y-38700300D02*
G01*
X55400000Y-37700300D01*
X56200000Y-37700300D01*
X56900000Y-38700300D01*
X54700000Y-38700300D01*
G37*
G04 #@! TD.AperFunction*
D17*
X61075000Y-37990000D03*
X61075000Y-36800000D03*
X61075000Y-35610000D03*
X63725000Y-35610000D03*
X63725000Y-36800000D03*
D18*
X63400000Y-38000000D03*
D11*
X45060000Y-39340000D03*
X45060000Y-34260000D03*
X50140000Y-34260000D03*
X50140000Y-39340000D03*
D12*
X47600000Y-36800000D03*
D19*
X54300000Y-35300000D03*
X53100000Y-35400000D03*
X53100000Y-38200000D03*
X54300000Y-38300000D03*
X57300000Y-35300000D03*
X57300000Y-38250000D03*
X62100000Y-37900000D03*
X62000000Y-35650000D03*
X63300000Y-35000000D03*
X63300000Y-38600000D03*
X59900000Y-38200000D03*
X59900000Y-35400000D03*
X58600000Y-38200000D03*
X51900000Y-38200000D03*
X51900000Y-35400000D03*
X55800000Y-37900000D03*
X54500000Y-39700000D03*
X57100000Y-39700000D03*
X55000000Y-41300000D03*
X56600000Y-41300000D03*
X61050000Y-38650000D03*
X61050000Y-34950000D03*
X55800000Y-35800000D03*
X58600000Y-35400000D03*
X64900000Y-38200000D03*
X64900000Y-35400000D03*
X66300000Y-35400000D03*
X66300000Y-38200000D03*
D20*
X54296500Y-36800000D02*
X54300000Y-36796500D01*
X47600000Y-36800000D02*
X54296500Y-36800000D01*
X70600000Y-36800000D02*
X65150000Y-36800000D01*
D21*
X63750000Y-36800000D02*
X65150000Y-36800000D01*
X63725000Y-36800000D02*
X63750000Y-36800000D01*
D20*
X57300000Y-36796500D02*
X59646500Y-36796500D01*
D21*
X60900000Y-36800000D02*
X60896500Y-36796500D01*
X60896500Y-36796500D02*
X59646500Y-36796500D01*
X61075000Y-36800000D02*
X60900000Y-36800000D01*
D22*
G36*
X56000298Y-32395625D02*
G01*
X62599703Y-32395625D01*
X62599703Y-30400000D01*
X75600000Y-30400000D01*
X75600001Y-43200000D01*
X42550000Y-43200000D01*
X42550000Y-40587642D01*
X44180054Y-40587642D01*
X44307863Y-40817566D01*
X44610574Y-40935910D01*
X44930556Y-40992924D01*
X45255513Y-40986417D01*
X45572956Y-40916639D01*
X45812137Y-40817566D01*
X45939946Y-40587642D01*
X49260054Y-40587642D01*
X49387863Y-40817566D01*
X49690574Y-40935910D01*
X50010556Y-40992924D01*
X50335513Y-40986417D01*
X50652956Y-40916639D01*
X50892137Y-40817566D01*
X51019946Y-40587642D01*
X67180054Y-40587642D01*
X67307863Y-40817566D01*
X67610574Y-40935910D01*
X67930556Y-40992924D01*
X68255513Y-40986417D01*
X68572956Y-40916639D01*
X68812137Y-40817566D01*
X68939946Y-40587642D01*
X72260054Y-40587642D01*
X72387863Y-40817566D01*
X72690574Y-40935910D01*
X73010556Y-40992924D01*
X73335513Y-40986417D01*
X73652956Y-40916639D01*
X73892137Y-40817566D01*
X74019946Y-40587642D01*
X73140000Y-39707696D01*
X72260054Y-40587642D01*
X68939946Y-40587642D01*
X68060000Y-39707696D01*
X67180054Y-40587642D01*
X51019946Y-40587642D01*
X50140000Y-39707696D01*
X49260054Y-40587642D01*
X45939946Y-40587642D01*
X45060000Y-39707696D01*
X44180054Y-40587642D01*
X42550000Y-40587642D01*
X42550000Y-39210556D01*
X43407076Y-39210556D01*
X43413583Y-39535513D01*
X43483361Y-39852956D01*
X43582434Y-40092137D01*
X43812358Y-40219946D01*
X44692304Y-39340000D01*
X45427696Y-39340000D01*
X46307642Y-40219946D01*
X46537566Y-40092137D01*
X46655910Y-39789426D01*
X46712924Y-39469444D01*
X46707740Y-39210556D01*
X48487076Y-39210556D01*
X48493583Y-39535513D01*
X48563361Y-39852956D01*
X48662434Y-40092137D01*
X48892358Y-40219946D01*
X49772304Y-39340000D01*
X50507696Y-39340000D01*
X51387642Y-40219946D01*
X51617566Y-40092137D01*
X51735910Y-39789426D01*
X51792924Y-39469444D01*
X51787740Y-39210556D01*
X66407076Y-39210556D01*
X66413583Y-39535513D01*
X66483361Y-39852956D01*
X66582434Y-40092137D01*
X66812358Y-40219946D01*
X67692304Y-39340000D01*
X68427696Y-39340000D01*
X69307642Y-40219946D01*
X69537566Y-40092137D01*
X69655910Y-39789426D01*
X69712924Y-39469444D01*
X69707740Y-39210556D01*
X71487076Y-39210556D01*
X71493583Y-39535513D01*
X71563361Y-39852956D01*
X71662434Y-40092137D01*
X71892358Y-40219946D01*
X72772304Y-39340000D01*
X73507696Y-39340000D01*
X74387642Y-40219946D01*
X74617566Y-40092137D01*
X74735910Y-39789426D01*
X74792924Y-39469444D01*
X74786417Y-39144487D01*
X74716639Y-38827044D01*
X74617566Y-38587863D01*
X74387642Y-38460054D01*
X73507696Y-39340000D01*
X72772304Y-39340000D01*
X71892358Y-38460054D01*
X71662434Y-38587863D01*
X71544090Y-38890574D01*
X71487076Y-39210556D01*
X69707740Y-39210556D01*
X69706417Y-39144487D01*
X69636639Y-38827044D01*
X69537566Y-38587863D01*
X69307642Y-38460054D01*
X68427696Y-39340000D01*
X67692304Y-39340000D01*
X66812358Y-38460054D01*
X66582434Y-38587863D01*
X66464090Y-38890574D01*
X66407076Y-39210556D01*
X51787740Y-39210556D01*
X51786417Y-39144487D01*
X51716639Y-38827044D01*
X51617566Y-38587863D01*
X51387642Y-38460054D01*
X50507696Y-39340000D01*
X49772304Y-39340000D01*
X48892358Y-38460054D01*
X48662434Y-38587863D01*
X48544090Y-38890574D01*
X48487076Y-39210556D01*
X46707740Y-39210556D01*
X46706417Y-39144487D01*
X46636639Y-38827044D01*
X46537566Y-38587863D01*
X46307642Y-38460054D01*
X45427696Y-39340000D01*
X44692304Y-39340000D01*
X43812358Y-38460054D01*
X43582434Y-38587863D01*
X43464090Y-38890574D01*
X43407076Y-39210556D01*
X42550000Y-39210556D01*
X42550000Y-38092358D01*
X44180054Y-38092358D01*
X45060000Y-38972304D01*
X45939946Y-38092358D01*
X45812137Y-37862434D01*
X45509426Y-37744090D01*
X45189444Y-37687076D01*
X44864487Y-37693583D01*
X44547044Y-37763361D01*
X44307863Y-37862434D01*
X44180054Y-38092358D01*
X42550000Y-38092358D01*
X42550000Y-36654233D01*
X46120000Y-36654233D01*
X46120000Y-36945767D01*
X46176876Y-37231700D01*
X46288441Y-37501043D01*
X46450409Y-37743445D01*
X46656555Y-37949591D01*
X46898957Y-38111559D01*
X47168300Y-38223124D01*
X47454233Y-38280000D01*
X47745767Y-38280000D01*
X48031700Y-38223124D01*
X48301043Y-38111559D01*
X48543445Y-37949591D01*
X48588036Y-37905000D01*
X49364202Y-37905000D01*
X49260054Y-38092358D01*
X50140000Y-38972304D01*
X51019946Y-38092358D01*
X50915798Y-37905000D01*
X53519614Y-37905000D01*
X53545993Y-37926649D01*
X53625037Y-37968899D01*
X53710805Y-37994916D01*
X53800000Y-38003701D01*
X54800000Y-38003701D01*
X54889195Y-37994916D01*
X54974963Y-37968899D01*
X55054007Y-37926649D01*
X55123290Y-37869790D01*
X55180149Y-37800507D01*
X55222399Y-37721463D01*
X55248416Y-37635695D01*
X55257201Y-37546500D01*
X55257201Y-37349798D01*
X55325826Y-37221410D01*
X55389011Y-37013117D01*
X55410345Y-36796500D01*
X56189654Y-36796500D01*
X56210989Y-37013118D01*
X56274174Y-37221411D01*
X56342799Y-37349799D01*
X56342799Y-37546500D01*
X56351584Y-37635695D01*
X56377601Y-37721463D01*
X56419851Y-37800507D01*
X56476710Y-37869790D01*
X56545993Y-37926649D01*
X56625037Y-37968899D01*
X56710805Y-37994916D01*
X56800000Y-38003701D01*
X57800000Y-38003701D01*
X57889195Y-37994916D01*
X57974963Y-37968899D01*
X58054007Y-37926649D01*
X58084651Y-37901500D01*
X59700779Y-37901500D01*
X59863118Y-37885511D01*
X60071411Y-37822326D01*
X60263375Y-37719719D01*
X60333461Y-37662201D01*
X60880100Y-37662201D01*
X60900000Y-37664161D01*
X60919900Y-37662201D01*
X61850000Y-37662201D01*
X61939195Y-37653416D01*
X62024963Y-37627399D01*
X62104007Y-37585149D01*
X62173290Y-37528290D01*
X62230149Y-37459007D01*
X62272399Y-37379963D01*
X62298416Y-37294195D01*
X62307201Y-37205000D01*
X62307201Y-36395000D01*
X62492799Y-36395000D01*
X62492799Y-37205000D01*
X62501584Y-37294195D01*
X62527601Y-37379963D01*
X62569851Y-37459007D01*
X62626710Y-37528290D01*
X62695993Y-37585149D01*
X62775037Y-37627399D01*
X62860805Y-37653416D01*
X62950000Y-37662201D01*
X64458774Y-37662201D01*
X64533125Y-37723219D01*
X64725089Y-37825826D01*
X64933382Y-37889011D01*
X65095721Y-37905000D01*
X67284202Y-37905000D01*
X67180054Y-38092358D01*
X68060000Y-38972304D01*
X68939946Y-38092358D01*
X68835798Y-37905000D01*
X69611964Y-37905000D01*
X69656555Y-37949591D01*
X69898957Y-38111559D01*
X70168300Y-38223124D01*
X70454233Y-38280000D01*
X70745767Y-38280000D01*
X71031700Y-38223124D01*
X71301043Y-38111559D01*
X71329779Y-38092358D01*
X72260054Y-38092358D01*
X73140000Y-38972304D01*
X74019946Y-38092358D01*
X73892137Y-37862434D01*
X73589426Y-37744090D01*
X73269444Y-37687076D01*
X72944487Y-37693583D01*
X72627044Y-37763361D01*
X72387863Y-37862434D01*
X72260054Y-38092358D01*
X71329779Y-38092358D01*
X71543445Y-37949591D01*
X71749591Y-37743445D01*
X71911559Y-37501043D01*
X72023124Y-37231700D01*
X72080000Y-36945767D01*
X72080000Y-36654233D01*
X72023124Y-36368300D01*
X71911559Y-36098957D01*
X71749591Y-35856555D01*
X71543445Y-35650409D01*
X71329780Y-35507642D01*
X72260054Y-35507642D01*
X72387863Y-35737566D01*
X72690574Y-35855910D01*
X73010556Y-35912924D01*
X73335513Y-35906417D01*
X73652956Y-35836639D01*
X73892137Y-35737566D01*
X74019946Y-35507642D01*
X73140000Y-34627696D01*
X72260054Y-35507642D01*
X71329780Y-35507642D01*
X71301043Y-35488441D01*
X71031700Y-35376876D01*
X70745767Y-35320000D01*
X70454233Y-35320000D01*
X70168300Y-35376876D01*
X69898957Y-35488441D01*
X69656555Y-35650409D01*
X69611964Y-35695000D01*
X68835798Y-35695000D01*
X68939946Y-35507642D01*
X68060000Y-34627696D01*
X67180054Y-35507642D01*
X67284202Y-35695000D01*
X65095721Y-35695000D01*
X64933382Y-35710989D01*
X64725089Y-35774174D01*
X64533125Y-35876781D01*
X64458774Y-35937799D01*
X62950000Y-35937799D01*
X62860805Y-35946584D01*
X62775037Y-35972601D01*
X62695993Y-36014851D01*
X62626710Y-36071710D01*
X62569851Y-36140993D01*
X62527601Y-36220037D01*
X62501584Y-36305805D01*
X62492799Y-36395000D01*
X62307201Y-36395000D01*
X62298416Y-36305805D01*
X62272399Y-36220037D01*
X62230149Y-36140993D01*
X62173290Y-36071710D01*
X62104007Y-36014851D01*
X62024963Y-35972601D01*
X61939195Y-35946584D01*
X61850000Y-35937799D01*
X60951935Y-35937799D01*
X60938746Y-35936500D01*
X60938739Y-35936500D01*
X60896500Y-35932340D01*
X60854261Y-35936500D01*
X60340407Y-35936500D01*
X60263375Y-35873281D01*
X60071411Y-35770674D01*
X59863118Y-35707489D01*
X59700779Y-35691500D01*
X58084651Y-35691500D01*
X58054007Y-35666351D01*
X57974963Y-35624101D01*
X57889195Y-35598084D01*
X57800000Y-35589299D01*
X56800000Y-35589299D01*
X56710805Y-35598084D01*
X56625037Y-35624101D01*
X56545993Y-35666351D01*
X56476710Y-35723210D01*
X56419851Y-35792493D01*
X56377601Y-35871537D01*
X56351584Y-35957305D01*
X56342799Y-36046500D01*
X56342799Y-36243201D01*
X56274174Y-36371589D01*
X56210989Y-36579882D01*
X56189654Y-36796500D01*
X55410345Y-36796500D01*
X55389011Y-36579882D01*
X55325826Y-36371589D01*
X55257201Y-36243201D01*
X55257201Y-36046500D01*
X55248416Y-35957305D01*
X55222399Y-35871537D01*
X55180149Y-35792493D01*
X55123290Y-35723210D01*
X55054007Y-35666351D01*
X54974963Y-35624101D01*
X54889195Y-35598084D01*
X54800000Y-35589299D01*
X53800000Y-35589299D01*
X53710805Y-35598084D01*
X53625037Y-35624101D01*
X53545993Y-35666351D01*
X53511084Y-35695000D01*
X50915798Y-35695000D01*
X51019946Y-35507642D01*
X50140000Y-34627696D01*
X49260054Y-35507642D01*
X49364202Y-35695000D01*
X48588036Y-35695000D01*
X48543445Y-35650409D01*
X48301043Y-35488441D01*
X48031700Y-35376876D01*
X47745767Y-35320000D01*
X47454233Y-35320000D01*
X47168300Y-35376876D01*
X46898957Y-35488441D01*
X46656555Y-35650409D01*
X46450409Y-35856555D01*
X46288441Y-36098957D01*
X46176876Y-36368300D01*
X46120000Y-36654233D01*
X42550000Y-36654233D01*
X42550000Y-35507642D01*
X44180054Y-35507642D01*
X44307863Y-35737566D01*
X44610574Y-35855910D01*
X44930556Y-35912924D01*
X45255513Y-35906417D01*
X45572956Y-35836639D01*
X45812137Y-35737566D01*
X45939946Y-35507642D01*
X45060000Y-34627696D01*
X44180054Y-35507642D01*
X42550000Y-35507642D01*
X42550000Y-34130556D01*
X43407076Y-34130556D01*
X43413583Y-34455513D01*
X43483361Y-34772956D01*
X43582434Y-35012137D01*
X43812358Y-35139946D01*
X44692304Y-34260000D01*
X45427696Y-34260000D01*
X46307642Y-35139946D01*
X46537566Y-35012137D01*
X46655910Y-34709426D01*
X46712924Y-34389444D01*
X46707740Y-34130556D01*
X48487076Y-34130556D01*
X48493583Y-34455513D01*
X48563361Y-34772956D01*
X48662434Y-35012137D01*
X48892358Y-35139946D01*
X49772304Y-34260000D01*
X50507696Y-34260000D01*
X51387642Y-35139946D01*
X51617566Y-35012137D01*
X51735910Y-34709426D01*
X51792924Y-34389444D01*
X51787740Y-34130556D01*
X66407076Y-34130556D01*
X66413583Y-34455513D01*
X66483361Y-34772956D01*
X66582434Y-35012137D01*
X66812358Y-35139946D01*
X67692304Y-34260000D01*
X68427696Y-34260000D01*
X69307642Y-35139946D01*
X69537566Y-35012137D01*
X69655910Y-34709426D01*
X69712924Y-34389444D01*
X69707740Y-34130556D01*
X71487076Y-34130556D01*
X71493583Y-34455513D01*
X71563361Y-34772956D01*
X71662434Y-35012137D01*
X71892358Y-35139946D01*
X72772304Y-34260000D01*
X73507696Y-34260000D01*
X74387642Y-35139946D01*
X74617566Y-35012137D01*
X74735910Y-34709426D01*
X74792924Y-34389444D01*
X74786417Y-34064487D01*
X74716639Y-33747044D01*
X74617566Y-33507863D01*
X74387642Y-33380054D01*
X73507696Y-34260000D01*
X72772304Y-34260000D01*
X71892358Y-33380054D01*
X71662434Y-33507863D01*
X71544090Y-33810574D01*
X71487076Y-34130556D01*
X69707740Y-34130556D01*
X69706417Y-34064487D01*
X69636639Y-33747044D01*
X69537566Y-33507863D01*
X69307642Y-33380054D01*
X68427696Y-34260000D01*
X67692304Y-34260000D01*
X66812358Y-33380054D01*
X66582434Y-33507863D01*
X66464090Y-33810574D01*
X66407076Y-34130556D01*
X51787740Y-34130556D01*
X51786417Y-34064487D01*
X51716639Y-33747044D01*
X51617566Y-33507863D01*
X51387642Y-33380054D01*
X50507696Y-34260000D01*
X49772304Y-34260000D01*
X48892358Y-33380054D01*
X48662434Y-33507863D01*
X48544090Y-33810574D01*
X48487076Y-34130556D01*
X46707740Y-34130556D01*
X46706417Y-34064487D01*
X46636639Y-33747044D01*
X46537566Y-33507863D01*
X46307642Y-33380054D01*
X45427696Y-34260000D01*
X44692304Y-34260000D01*
X43812358Y-33380054D01*
X43582434Y-33507863D01*
X43464090Y-33810574D01*
X43407076Y-34130556D01*
X42550000Y-34130556D01*
X42550000Y-33012358D01*
X44180054Y-33012358D01*
X45060000Y-33892304D01*
X45939946Y-33012358D01*
X49260054Y-33012358D01*
X50140000Y-33892304D01*
X51019946Y-33012358D01*
X67180054Y-33012358D01*
X68060000Y-33892304D01*
X68939946Y-33012358D01*
X72260054Y-33012358D01*
X73140000Y-33892304D01*
X74019946Y-33012358D01*
X73892137Y-32782434D01*
X73589426Y-32664090D01*
X73269444Y-32607076D01*
X72944487Y-32613583D01*
X72627044Y-32683361D01*
X72387863Y-32782434D01*
X72260054Y-33012358D01*
X68939946Y-33012358D01*
X68812137Y-32782434D01*
X68509426Y-32664090D01*
X68189444Y-32607076D01*
X67864487Y-32613583D01*
X67547044Y-32683361D01*
X67307863Y-32782434D01*
X67180054Y-33012358D01*
X51019946Y-33012358D01*
X50892137Y-32782434D01*
X50589426Y-32664090D01*
X50269444Y-32607076D01*
X49944487Y-32613583D01*
X49627044Y-32683361D01*
X49387863Y-32782434D01*
X49260054Y-33012358D01*
X45939946Y-33012358D01*
X45812137Y-32782434D01*
X45509426Y-32664090D01*
X45189444Y-32607076D01*
X44864487Y-32613583D01*
X44547044Y-32683361D01*
X44307863Y-32782434D01*
X44180054Y-33012358D01*
X42550000Y-33012358D01*
X42550000Y-30400000D01*
X56000298Y-30400000D01*
X56000298Y-32395625D01*
G37*
X56000298Y-32395625D02*
X62599703Y-32395625D01*
X62599703Y-30400000D01*
X75600000Y-30400000D01*
X75600001Y-43200000D01*
X42550000Y-43200000D01*
X42550000Y-40587642D01*
X44180054Y-40587642D01*
X44307863Y-40817566D01*
X44610574Y-40935910D01*
X44930556Y-40992924D01*
X45255513Y-40986417D01*
X45572956Y-40916639D01*
X45812137Y-40817566D01*
X45939946Y-40587642D01*
X49260054Y-40587642D01*
X49387863Y-40817566D01*
X49690574Y-40935910D01*
X50010556Y-40992924D01*
X50335513Y-40986417D01*
X50652956Y-40916639D01*
X50892137Y-40817566D01*
X51019946Y-40587642D01*
X67180054Y-40587642D01*
X67307863Y-40817566D01*
X67610574Y-40935910D01*
X67930556Y-40992924D01*
X68255513Y-40986417D01*
X68572956Y-40916639D01*
X68812137Y-40817566D01*
X68939946Y-40587642D01*
X72260054Y-40587642D01*
X72387863Y-40817566D01*
X72690574Y-40935910D01*
X73010556Y-40992924D01*
X73335513Y-40986417D01*
X73652956Y-40916639D01*
X73892137Y-40817566D01*
X74019946Y-40587642D01*
X73140000Y-39707696D01*
X72260054Y-40587642D01*
X68939946Y-40587642D01*
X68060000Y-39707696D01*
X67180054Y-40587642D01*
X51019946Y-40587642D01*
X50140000Y-39707696D01*
X49260054Y-40587642D01*
X45939946Y-40587642D01*
X45060000Y-39707696D01*
X44180054Y-40587642D01*
X42550000Y-40587642D01*
X42550000Y-39210556D01*
X43407076Y-39210556D01*
X43413583Y-39535513D01*
X43483361Y-39852956D01*
X43582434Y-40092137D01*
X43812358Y-40219946D01*
X44692304Y-39340000D01*
X45427696Y-39340000D01*
X46307642Y-40219946D01*
X46537566Y-40092137D01*
X46655910Y-39789426D01*
X46712924Y-39469444D01*
X46707740Y-39210556D01*
X48487076Y-39210556D01*
X48493583Y-39535513D01*
X48563361Y-39852956D01*
X48662434Y-40092137D01*
X48892358Y-40219946D01*
X49772304Y-39340000D01*
X50507696Y-39340000D01*
X51387642Y-40219946D01*
X51617566Y-40092137D01*
X51735910Y-39789426D01*
X51792924Y-39469444D01*
X51787740Y-39210556D01*
X66407076Y-39210556D01*
X66413583Y-39535513D01*
X66483361Y-39852956D01*
X66582434Y-40092137D01*
X66812358Y-40219946D01*
X67692304Y-39340000D01*
X68427696Y-39340000D01*
X69307642Y-40219946D01*
X69537566Y-40092137D01*
X69655910Y-39789426D01*
X69712924Y-39469444D01*
X69707740Y-39210556D01*
X71487076Y-39210556D01*
X71493583Y-39535513D01*
X71563361Y-39852956D01*
X71662434Y-40092137D01*
X71892358Y-40219946D01*
X72772304Y-39340000D01*
X73507696Y-39340000D01*
X74387642Y-40219946D01*
X74617566Y-40092137D01*
X74735910Y-39789426D01*
X74792924Y-39469444D01*
X74786417Y-39144487D01*
X74716639Y-38827044D01*
X74617566Y-38587863D01*
X74387642Y-38460054D01*
X73507696Y-39340000D01*
X72772304Y-39340000D01*
X71892358Y-38460054D01*
X71662434Y-38587863D01*
X71544090Y-38890574D01*
X71487076Y-39210556D01*
X69707740Y-39210556D01*
X69706417Y-39144487D01*
X69636639Y-38827044D01*
X69537566Y-38587863D01*
X69307642Y-38460054D01*
X68427696Y-39340000D01*
X67692304Y-39340000D01*
X66812358Y-38460054D01*
X66582434Y-38587863D01*
X66464090Y-38890574D01*
X66407076Y-39210556D01*
X51787740Y-39210556D01*
X51786417Y-39144487D01*
X51716639Y-38827044D01*
X51617566Y-38587863D01*
X51387642Y-38460054D01*
X50507696Y-39340000D01*
X49772304Y-39340000D01*
X48892358Y-38460054D01*
X48662434Y-38587863D01*
X48544090Y-38890574D01*
X48487076Y-39210556D01*
X46707740Y-39210556D01*
X46706417Y-39144487D01*
X46636639Y-38827044D01*
X46537566Y-38587863D01*
X46307642Y-38460054D01*
X45427696Y-39340000D01*
X44692304Y-39340000D01*
X43812358Y-38460054D01*
X43582434Y-38587863D01*
X43464090Y-38890574D01*
X43407076Y-39210556D01*
X42550000Y-39210556D01*
X42550000Y-38092358D01*
X44180054Y-38092358D01*
X45060000Y-38972304D01*
X45939946Y-38092358D01*
X45812137Y-37862434D01*
X45509426Y-37744090D01*
X45189444Y-37687076D01*
X44864487Y-37693583D01*
X44547044Y-37763361D01*
X44307863Y-37862434D01*
X44180054Y-38092358D01*
X42550000Y-38092358D01*
X42550000Y-36654233D01*
X46120000Y-36654233D01*
X46120000Y-36945767D01*
X46176876Y-37231700D01*
X46288441Y-37501043D01*
X46450409Y-37743445D01*
X46656555Y-37949591D01*
X46898957Y-38111559D01*
X47168300Y-38223124D01*
X47454233Y-38280000D01*
X47745767Y-38280000D01*
X48031700Y-38223124D01*
X48301043Y-38111559D01*
X48543445Y-37949591D01*
X48588036Y-37905000D01*
X49364202Y-37905000D01*
X49260054Y-38092358D01*
X50140000Y-38972304D01*
X51019946Y-38092358D01*
X50915798Y-37905000D01*
X53519614Y-37905000D01*
X53545993Y-37926649D01*
X53625037Y-37968899D01*
X53710805Y-37994916D01*
X53800000Y-38003701D01*
X54800000Y-38003701D01*
X54889195Y-37994916D01*
X54974963Y-37968899D01*
X55054007Y-37926649D01*
X55123290Y-37869790D01*
X55180149Y-37800507D01*
X55222399Y-37721463D01*
X55248416Y-37635695D01*
X55257201Y-37546500D01*
X55257201Y-37349798D01*
X55325826Y-37221410D01*
X55389011Y-37013117D01*
X55410345Y-36796500D01*
X56189654Y-36796500D01*
X56210989Y-37013118D01*
X56274174Y-37221411D01*
X56342799Y-37349799D01*
X56342799Y-37546500D01*
X56351584Y-37635695D01*
X56377601Y-37721463D01*
X56419851Y-37800507D01*
X56476710Y-37869790D01*
X56545993Y-37926649D01*
X56625037Y-37968899D01*
X56710805Y-37994916D01*
X56800000Y-38003701D01*
X57800000Y-38003701D01*
X57889195Y-37994916D01*
X57974963Y-37968899D01*
X58054007Y-37926649D01*
X58084651Y-37901500D01*
X59700779Y-37901500D01*
X59863118Y-37885511D01*
X60071411Y-37822326D01*
X60263375Y-37719719D01*
X60333461Y-37662201D01*
X60880100Y-37662201D01*
X60900000Y-37664161D01*
X60919900Y-37662201D01*
X61850000Y-37662201D01*
X61939195Y-37653416D01*
X62024963Y-37627399D01*
X62104007Y-37585149D01*
X62173290Y-37528290D01*
X62230149Y-37459007D01*
X62272399Y-37379963D01*
X62298416Y-37294195D01*
X62307201Y-37205000D01*
X62307201Y-36395000D01*
X62492799Y-36395000D01*
X62492799Y-37205000D01*
X62501584Y-37294195D01*
X62527601Y-37379963D01*
X62569851Y-37459007D01*
X62626710Y-37528290D01*
X62695993Y-37585149D01*
X62775037Y-37627399D01*
X62860805Y-37653416D01*
X62950000Y-37662201D01*
X64458774Y-37662201D01*
X64533125Y-37723219D01*
X64725089Y-37825826D01*
X64933382Y-37889011D01*
X65095721Y-37905000D01*
X67284202Y-37905000D01*
X67180054Y-38092358D01*
X68060000Y-38972304D01*
X68939946Y-38092358D01*
X68835798Y-37905000D01*
X69611964Y-37905000D01*
X69656555Y-37949591D01*
X69898957Y-38111559D01*
X70168300Y-38223124D01*
X70454233Y-38280000D01*
X70745767Y-38280000D01*
X71031700Y-38223124D01*
X71301043Y-38111559D01*
X71329779Y-38092358D01*
X72260054Y-38092358D01*
X73140000Y-38972304D01*
X74019946Y-38092358D01*
X73892137Y-37862434D01*
X73589426Y-37744090D01*
X73269444Y-37687076D01*
X72944487Y-37693583D01*
X72627044Y-37763361D01*
X72387863Y-37862434D01*
X72260054Y-38092358D01*
X71329779Y-38092358D01*
X71543445Y-37949591D01*
X71749591Y-37743445D01*
X71911559Y-37501043D01*
X72023124Y-37231700D01*
X72080000Y-36945767D01*
X72080000Y-36654233D01*
X72023124Y-36368300D01*
X71911559Y-36098957D01*
X71749591Y-35856555D01*
X71543445Y-35650409D01*
X71329780Y-35507642D01*
X72260054Y-35507642D01*
X72387863Y-35737566D01*
X72690574Y-35855910D01*
X73010556Y-35912924D01*
X73335513Y-35906417D01*
X73652956Y-35836639D01*
X73892137Y-35737566D01*
X74019946Y-35507642D01*
X73140000Y-34627696D01*
X72260054Y-35507642D01*
X71329780Y-35507642D01*
X71301043Y-35488441D01*
X71031700Y-35376876D01*
X70745767Y-35320000D01*
X70454233Y-35320000D01*
X70168300Y-35376876D01*
X69898957Y-35488441D01*
X69656555Y-35650409D01*
X69611964Y-35695000D01*
X68835798Y-35695000D01*
X68939946Y-35507642D01*
X68060000Y-34627696D01*
X67180054Y-35507642D01*
X67284202Y-35695000D01*
X65095721Y-35695000D01*
X64933382Y-35710989D01*
X64725089Y-35774174D01*
X64533125Y-35876781D01*
X64458774Y-35937799D01*
X62950000Y-35937799D01*
X62860805Y-35946584D01*
X62775037Y-35972601D01*
X62695993Y-36014851D01*
X62626710Y-36071710D01*
X62569851Y-36140993D01*
X62527601Y-36220037D01*
X62501584Y-36305805D01*
X62492799Y-36395000D01*
X62307201Y-36395000D01*
X62298416Y-36305805D01*
X62272399Y-36220037D01*
X62230149Y-36140993D01*
X62173290Y-36071710D01*
X62104007Y-36014851D01*
X62024963Y-35972601D01*
X61939195Y-35946584D01*
X61850000Y-35937799D01*
X60951935Y-35937799D01*
X60938746Y-35936500D01*
X60938739Y-35936500D01*
X60896500Y-35932340D01*
X60854261Y-35936500D01*
X60340407Y-35936500D01*
X60263375Y-35873281D01*
X60071411Y-35770674D01*
X59863118Y-35707489D01*
X59700779Y-35691500D01*
X58084651Y-35691500D01*
X58054007Y-35666351D01*
X57974963Y-35624101D01*
X57889195Y-35598084D01*
X57800000Y-35589299D01*
X56800000Y-35589299D01*
X56710805Y-35598084D01*
X56625037Y-35624101D01*
X56545993Y-35666351D01*
X56476710Y-35723210D01*
X56419851Y-35792493D01*
X56377601Y-35871537D01*
X56351584Y-35957305D01*
X56342799Y-36046500D01*
X56342799Y-36243201D01*
X56274174Y-36371589D01*
X56210989Y-36579882D01*
X56189654Y-36796500D01*
X55410345Y-36796500D01*
X55389011Y-36579882D01*
X55325826Y-36371589D01*
X55257201Y-36243201D01*
X55257201Y-36046500D01*
X55248416Y-35957305D01*
X55222399Y-35871537D01*
X55180149Y-35792493D01*
X55123290Y-35723210D01*
X55054007Y-35666351D01*
X54974963Y-35624101D01*
X54889195Y-35598084D01*
X54800000Y-35589299D01*
X53800000Y-35589299D01*
X53710805Y-35598084D01*
X53625037Y-35624101D01*
X53545993Y-35666351D01*
X53511084Y-35695000D01*
X50915798Y-35695000D01*
X51019946Y-35507642D01*
X50140000Y-34627696D01*
X49260054Y-35507642D01*
X49364202Y-35695000D01*
X48588036Y-35695000D01*
X48543445Y-35650409D01*
X48301043Y-35488441D01*
X48031700Y-35376876D01*
X47745767Y-35320000D01*
X47454233Y-35320000D01*
X47168300Y-35376876D01*
X46898957Y-35488441D01*
X46656555Y-35650409D01*
X46450409Y-35856555D01*
X46288441Y-36098957D01*
X46176876Y-36368300D01*
X46120000Y-36654233D01*
X42550000Y-36654233D01*
X42550000Y-35507642D01*
X44180054Y-35507642D01*
X44307863Y-35737566D01*
X44610574Y-35855910D01*
X44930556Y-35912924D01*
X45255513Y-35906417D01*
X45572956Y-35836639D01*
X45812137Y-35737566D01*
X45939946Y-35507642D01*
X45060000Y-34627696D01*
X44180054Y-35507642D01*
X42550000Y-35507642D01*
X42550000Y-34130556D01*
X43407076Y-34130556D01*
X43413583Y-34455513D01*
X43483361Y-34772956D01*
X43582434Y-35012137D01*
X43812358Y-35139946D01*
X44692304Y-34260000D01*
X45427696Y-34260000D01*
X46307642Y-35139946D01*
X46537566Y-35012137D01*
X46655910Y-34709426D01*
X46712924Y-34389444D01*
X46707740Y-34130556D01*
X48487076Y-34130556D01*
X48493583Y-34455513D01*
X48563361Y-34772956D01*
X48662434Y-35012137D01*
X48892358Y-35139946D01*
X49772304Y-34260000D01*
X50507696Y-34260000D01*
X51387642Y-35139946D01*
X51617566Y-35012137D01*
X51735910Y-34709426D01*
X51792924Y-34389444D01*
X51787740Y-34130556D01*
X66407076Y-34130556D01*
X66413583Y-34455513D01*
X66483361Y-34772956D01*
X66582434Y-35012137D01*
X66812358Y-35139946D01*
X67692304Y-34260000D01*
X68427696Y-34260000D01*
X69307642Y-35139946D01*
X69537566Y-35012137D01*
X69655910Y-34709426D01*
X69712924Y-34389444D01*
X69707740Y-34130556D01*
X71487076Y-34130556D01*
X71493583Y-34455513D01*
X71563361Y-34772956D01*
X71662434Y-35012137D01*
X71892358Y-35139946D01*
X72772304Y-34260000D01*
X73507696Y-34260000D01*
X74387642Y-35139946D01*
X74617566Y-35012137D01*
X74735910Y-34709426D01*
X74792924Y-34389444D01*
X74786417Y-34064487D01*
X74716639Y-33747044D01*
X74617566Y-33507863D01*
X74387642Y-33380054D01*
X73507696Y-34260000D01*
X72772304Y-34260000D01*
X71892358Y-33380054D01*
X71662434Y-33507863D01*
X71544090Y-33810574D01*
X71487076Y-34130556D01*
X69707740Y-34130556D01*
X69706417Y-34064487D01*
X69636639Y-33747044D01*
X69537566Y-33507863D01*
X69307642Y-33380054D01*
X68427696Y-34260000D01*
X67692304Y-34260000D01*
X66812358Y-33380054D01*
X66582434Y-33507863D01*
X66464090Y-33810574D01*
X66407076Y-34130556D01*
X51787740Y-34130556D01*
X51786417Y-34064487D01*
X51716639Y-33747044D01*
X51617566Y-33507863D01*
X51387642Y-33380054D01*
X50507696Y-34260000D01*
X49772304Y-34260000D01*
X48892358Y-33380054D01*
X48662434Y-33507863D01*
X48544090Y-33810574D01*
X48487076Y-34130556D01*
X46707740Y-34130556D01*
X46706417Y-34064487D01*
X46636639Y-33747044D01*
X46537566Y-33507863D01*
X46307642Y-33380054D01*
X45427696Y-34260000D01*
X44692304Y-34260000D01*
X43812358Y-33380054D01*
X43582434Y-33507863D01*
X43464090Y-33810574D01*
X43407076Y-34130556D01*
X42550000Y-34130556D01*
X42550000Y-33012358D01*
X44180054Y-33012358D01*
X45060000Y-33892304D01*
X45939946Y-33012358D01*
X49260054Y-33012358D01*
X50140000Y-33892304D01*
X51019946Y-33012358D01*
X67180054Y-33012358D01*
X68060000Y-33892304D01*
X68939946Y-33012358D01*
X72260054Y-33012358D01*
X73140000Y-33892304D01*
X74019946Y-33012358D01*
X73892137Y-32782434D01*
X73589426Y-32664090D01*
X73269444Y-32607076D01*
X72944487Y-32613583D01*
X72627044Y-32683361D01*
X72387863Y-32782434D01*
X72260054Y-33012358D01*
X68939946Y-33012358D01*
X68812137Y-32782434D01*
X68509426Y-32664090D01*
X68189444Y-32607076D01*
X67864487Y-32613583D01*
X67547044Y-32683361D01*
X67307863Y-32782434D01*
X67180054Y-33012358D01*
X51019946Y-33012358D01*
X50892137Y-32782434D01*
X50589426Y-32664090D01*
X50269444Y-32607076D01*
X49944487Y-32613583D01*
X49627044Y-32683361D01*
X49387863Y-32782434D01*
X49260054Y-33012358D01*
X45939946Y-33012358D01*
X45812137Y-32782434D01*
X45509426Y-32664090D01*
X45189444Y-32607076D01*
X44864487Y-32613583D01*
X44547044Y-32683361D01*
X44307863Y-32782434D01*
X44180054Y-33012358D01*
X42550000Y-33012358D01*
X42550000Y-30400000D01*
X56000298Y-30400000D01*
X56000298Y-32395625D01*
M02*
