M48
; DRILL file {KiCad 5.1.5+dfsg1-2build2} date 2021. márc. 11., csütörtök, 17:10:37 CET
; FORMAT={-:-/ absolute / inch / decimal}
; #@! TF.CreationDate,2021-03-11T17:10:37+01:00
; #@! TF.GenerationSoftware,Kicad,Pcbnew,5.1.5+dfsg1-2build2
; #@! TF.FileFunction,Plated,1,2,PTH
FMAT,2
INCH
T1C0.0157
T2C0.0591
T3C0.0669
%
G90
G05
T1
X2.0433Y-1.3937
X2.0433Y-1.5039
X2.0906Y-1.3937
X2.0906Y-1.5039
X2.1378Y-1.3898
X2.1378Y-1.5079
X2.1457Y-1.563
X2.1654Y-1.626
X2.1969Y-1.4094
X2.1969Y-1.4921
X2.2283Y-1.626
X2.248Y-1.563
X2.2559Y-1.3898
X2.2559Y-1.5059
X2.3071Y-1.3937
X2.3071Y-1.5039
X2.3583Y-1.3937
X2.3583Y-1.5039
X2.4035Y-1.376
X2.4035Y-1.5217
X2.4409Y-1.4035
X2.4449Y-1.4921
X2.4921Y-1.378
X2.4921Y-1.5197
X2.5551Y-1.3937
X2.5551Y-1.5039
X2.6102Y-1.3937
X2.6102Y-1.5039
T2
X1.874Y-1.4488
X2.7795Y-1.4488
T3
X1.774Y-1.3488
X1.774Y-1.5488
X1.974Y-1.3488
X1.974Y-1.5488
X2.6795Y-1.3488
X2.6795Y-1.5488
X2.8795Y-1.3488
X2.8795Y-1.5488
T0
M30
