G04 #@! TF.GenerationSoftware,KiCad,Pcbnew,5.1.5+dfsg1-2build2*
G04 #@! TF.CreationDate,2021-03-12T18:36:22+01:00*
G04 #@! TF.ProjectId,70cm_preamp,3730636d-5f70-4726-9561-6d702e6b6963,rev?*
G04 #@! TF.SameCoordinates,Original*
G04 #@! TF.FileFunction,Soldermask,Top*
G04 #@! TF.FilePolarity,Negative*
%FSLAX46Y46*%
G04 Gerber Fmt 4.6, Leading zero omitted, Abs format (unit mm)*
G04 Created by KiCad (PCBNEW 5.1.5+dfsg1-2build2) date 2021-03-12 18:36:22*
%MOMM*%
%LPD*%
G04 APERTURE LIST*
%ADD10C,0.100000*%
G04 APERTURE END LIST*
D10*
G36*
X56351000Y-37787678D02*
G01*
X56353402Y-37812064D01*
X56360515Y-37835513D01*
X56373596Y-37859360D01*
X56882022Y-38585683D01*
X56897974Y-38604284D01*
X56917248Y-38619415D01*
X56939104Y-38630495D01*
X56951000Y-38633824D01*
X56951000Y-38644822D01*
X56953402Y-38669208D01*
X56960515Y-38692657D01*
X56973596Y-38716504D01*
X56997953Y-38751300D01*
X57011026Y-38769975D01*
X57006553Y-38772366D01*
X56987611Y-38787911D01*
X56972066Y-38806853D01*
X56960515Y-38828464D01*
X56953402Y-38851913D01*
X56951000Y-38876299D01*
X56951000Y-40342501D01*
X56953402Y-40366887D01*
X56960515Y-40390336D01*
X56972066Y-40411947D01*
X56987611Y-40430889D01*
X57006553Y-40446434D01*
X57011450Y-40449051D01*
X56973879Y-40502276D01*
X56961778Y-40523584D01*
X56954067Y-40546843D01*
X56951000Y-40574361D01*
X56951000Y-40585735D01*
X56935243Y-40590515D01*
X56913632Y-40602066D01*
X56894690Y-40617611D01*
X56880958Y-40633914D01*
X56326426Y-41419500D01*
X55273574Y-41419500D01*
X54719042Y-40633914D01*
X54703017Y-40615377D01*
X54683683Y-40600322D01*
X54661784Y-40589328D01*
X54649000Y-40585805D01*
X54649000Y-40574361D01*
X54646598Y-40549975D01*
X54639485Y-40526526D01*
X54626121Y-40502276D01*
X54588550Y-40449051D01*
X54593447Y-40446434D01*
X54612389Y-40430889D01*
X54627934Y-40411947D01*
X54639485Y-40390336D01*
X54646598Y-40366887D01*
X54649000Y-40342501D01*
X54649000Y-38876299D01*
X54646598Y-38851913D01*
X54639485Y-38828464D01*
X54627934Y-38806853D01*
X54612389Y-38787911D01*
X54593447Y-38772366D01*
X54588974Y-38769975D01*
X54626404Y-38716504D01*
X54638421Y-38695149D01*
X54646041Y-38671860D01*
X54649000Y-38644822D01*
X54649000Y-38633856D01*
X54663410Y-38629485D01*
X54685021Y-38617934D01*
X54703963Y-38602389D01*
X54717978Y-38585683D01*
X55226404Y-37859360D01*
X55238421Y-37838005D01*
X55246041Y-37814716D01*
X55249000Y-37787678D01*
X55249000Y-35992000D01*
X56351000Y-35992000D01*
X56351000Y-37787678D01*
G37*
G36*
X45251560Y-38179064D02*
G01*
X45403027Y-38209193D01*
X45617045Y-38297842D01*
X45617046Y-38297843D01*
X45809654Y-38426539D01*
X45973461Y-38590346D01*
X46041823Y-38692657D01*
X46102158Y-38782955D01*
X46190807Y-38996973D01*
X46236000Y-39224174D01*
X46236000Y-39455826D01*
X46190807Y-39683027D01*
X46102158Y-39897045D01*
X46102157Y-39897046D01*
X45973461Y-40089654D01*
X45809654Y-40253461D01*
X45681249Y-40339258D01*
X45617045Y-40382158D01*
X45403027Y-40470807D01*
X45251560Y-40500936D01*
X45175827Y-40516000D01*
X44944173Y-40516000D01*
X44868440Y-40500936D01*
X44716973Y-40470807D01*
X44502955Y-40382158D01*
X44438751Y-40339258D01*
X44310346Y-40253461D01*
X44146539Y-40089654D01*
X44017843Y-39897046D01*
X44017842Y-39897045D01*
X43929193Y-39683027D01*
X43884000Y-39455826D01*
X43884000Y-39224174D01*
X43929193Y-38996973D01*
X44017842Y-38782955D01*
X44078177Y-38692657D01*
X44146539Y-38590346D01*
X44310346Y-38426539D01*
X44502954Y-38297843D01*
X44502955Y-38297842D01*
X44716973Y-38209193D01*
X44868440Y-38179064D01*
X44944173Y-38164000D01*
X45175827Y-38164000D01*
X45251560Y-38179064D01*
G37*
G36*
X73331560Y-38179064D02*
G01*
X73483027Y-38209193D01*
X73697045Y-38297842D01*
X73697046Y-38297843D01*
X73889654Y-38426539D01*
X74053461Y-38590346D01*
X74121823Y-38692657D01*
X74182158Y-38782955D01*
X74270807Y-38996973D01*
X74316000Y-39224174D01*
X74316000Y-39455826D01*
X74270807Y-39683027D01*
X74182158Y-39897045D01*
X74182157Y-39897046D01*
X74053461Y-40089654D01*
X73889654Y-40253461D01*
X73761249Y-40339258D01*
X73697045Y-40382158D01*
X73483027Y-40470807D01*
X73331560Y-40500936D01*
X73255827Y-40516000D01*
X73024173Y-40516000D01*
X72948440Y-40500936D01*
X72796973Y-40470807D01*
X72582955Y-40382158D01*
X72518751Y-40339258D01*
X72390346Y-40253461D01*
X72226539Y-40089654D01*
X72097843Y-39897046D01*
X72097842Y-39897045D01*
X72009193Y-39683027D01*
X71964000Y-39455826D01*
X71964000Y-39224174D01*
X72009193Y-38996973D01*
X72097842Y-38782955D01*
X72158177Y-38692657D01*
X72226539Y-38590346D01*
X72390346Y-38426539D01*
X72582954Y-38297843D01*
X72582955Y-38297842D01*
X72796973Y-38209193D01*
X72948440Y-38179064D01*
X73024173Y-38164000D01*
X73255827Y-38164000D01*
X73331560Y-38179064D01*
G37*
G36*
X68251560Y-38179064D02*
G01*
X68403027Y-38209193D01*
X68617045Y-38297842D01*
X68617046Y-38297843D01*
X68809654Y-38426539D01*
X68973461Y-38590346D01*
X69041823Y-38692657D01*
X69102158Y-38782955D01*
X69190807Y-38996973D01*
X69236000Y-39224174D01*
X69236000Y-39455826D01*
X69190807Y-39683027D01*
X69102158Y-39897045D01*
X69102157Y-39897046D01*
X68973461Y-40089654D01*
X68809654Y-40253461D01*
X68681249Y-40339258D01*
X68617045Y-40382158D01*
X68403027Y-40470807D01*
X68251560Y-40500936D01*
X68175827Y-40516000D01*
X67944173Y-40516000D01*
X67868440Y-40500936D01*
X67716973Y-40470807D01*
X67502955Y-40382158D01*
X67438751Y-40339258D01*
X67310346Y-40253461D01*
X67146539Y-40089654D01*
X67017843Y-39897046D01*
X67017842Y-39897045D01*
X66929193Y-39683027D01*
X66884000Y-39455826D01*
X66884000Y-39224174D01*
X66929193Y-38996973D01*
X67017842Y-38782955D01*
X67078177Y-38692657D01*
X67146539Y-38590346D01*
X67310346Y-38426539D01*
X67502954Y-38297843D01*
X67502955Y-38297842D01*
X67716973Y-38209193D01*
X67868440Y-38179064D01*
X67944173Y-38164000D01*
X68175827Y-38164000D01*
X68251560Y-38179064D01*
G37*
G36*
X50331560Y-38179064D02*
G01*
X50483027Y-38209193D01*
X50697045Y-38297842D01*
X50697046Y-38297843D01*
X50889654Y-38426539D01*
X51053461Y-38590346D01*
X51121823Y-38692657D01*
X51182158Y-38782955D01*
X51270807Y-38996973D01*
X51316000Y-39224174D01*
X51316000Y-39455826D01*
X51270807Y-39683027D01*
X51182158Y-39897045D01*
X51182157Y-39897046D01*
X51053461Y-40089654D01*
X50889654Y-40253461D01*
X50761249Y-40339258D01*
X50697045Y-40382158D01*
X50483027Y-40470807D01*
X50331560Y-40500936D01*
X50255827Y-40516000D01*
X50024173Y-40516000D01*
X49948440Y-40500936D01*
X49796973Y-40470807D01*
X49582955Y-40382158D01*
X49518751Y-40339258D01*
X49390346Y-40253461D01*
X49226539Y-40089654D01*
X49097843Y-39897046D01*
X49097842Y-39897045D01*
X49009193Y-39683027D01*
X48964000Y-39455826D01*
X48964000Y-39224174D01*
X49009193Y-38996973D01*
X49097842Y-38782955D01*
X49158177Y-38692657D01*
X49226539Y-38590346D01*
X49390346Y-38426539D01*
X49582954Y-38297843D01*
X49582955Y-38297842D01*
X49796973Y-38209193D01*
X49948440Y-38179064D01*
X50024173Y-38164000D01*
X50255827Y-38164000D01*
X50331560Y-38179064D01*
G37*
G36*
X64551000Y-38456000D02*
G01*
X62249000Y-38456000D01*
X62249000Y-37544000D01*
X64551000Y-37544000D01*
X64551000Y-38456000D01*
G37*
G36*
X61901000Y-38446000D02*
G01*
X60249000Y-38446000D01*
X60249000Y-37534000D01*
X61901000Y-37534000D01*
X61901000Y-38446000D01*
G37*
G36*
X47775271Y-35737783D02*
G01*
X47913858Y-35765350D01*
X48109677Y-35846461D01*
X48285910Y-35964216D01*
X48435784Y-36114090D01*
X48553539Y-36290323D01*
X48634650Y-36486142D01*
X48676000Y-36694023D01*
X48676000Y-36905977D01*
X48634650Y-37113858D01*
X48553539Y-37309677D01*
X48435784Y-37485910D01*
X48285910Y-37635784D01*
X48109677Y-37753539D01*
X47913858Y-37834650D01*
X47789632Y-37859360D01*
X47705978Y-37876000D01*
X47494022Y-37876000D01*
X47410368Y-37859360D01*
X47286142Y-37834650D01*
X47090323Y-37753539D01*
X46914090Y-37635784D01*
X46764216Y-37485910D01*
X46646461Y-37309677D01*
X46565350Y-37113858D01*
X46524000Y-36905977D01*
X46524000Y-36694023D01*
X46565350Y-36486142D01*
X46646461Y-36290323D01*
X46764216Y-36114090D01*
X46914090Y-35964216D01*
X47090323Y-35846461D01*
X47286142Y-35765350D01*
X47424729Y-35737783D01*
X47494022Y-35724000D01*
X47705978Y-35724000D01*
X47775271Y-35737783D01*
G37*
G36*
X70775271Y-35737783D02*
G01*
X70913858Y-35765350D01*
X71109677Y-35846461D01*
X71285910Y-35964216D01*
X71435784Y-36114090D01*
X71553539Y-36290323D01*
X71634650Y-36486142D01*
X71676000Y-36694023D01*
X71676000Y-36905977D01*
X71634650Y-37113858D01*
X71553539Y-37309677D01*
X71435784Y-37485910D01*
X71285910Y-37635784D01*
X71109677Y-37753539D01*
X70913858Y-37834650D01*
X70789632Y-37859360D01*
X70705978Y-37876000D01*
X70494022Y-37876000D01*
X70410368Y-37859360D01*
X70286142Y-37834650D01*
X70090323Y-37753539D01*
X69914090Y-37635784D01*
X69764216Y-37485910D01*
X69646461Y-37309677D01*
X69565350Y-37113858D01*
X69524000Y-36905977D01*
X69524000Y-36694023D01*
X69565350Y-36486142D01*
X69646461Y-36290323D01*
X69764216Y-36114090D01*
X69914090Y-35964216D01*
X70090323Y-35846461D01*
X70286142Y-35765350D01*
X70424729Y-35737783D01*
X70494022Y-35724000D01*
X70705978Y-35724000D01*
X70775271Y-35737783D01*
G37*
G36*
X57851000Y-37597500D02*
G01*
X56749000Y-37597500D01*
X56749000Y-35995500D01*
X57851000Y-35995500D01*
X57851000Y-37597500D01*
G37*
G36*
X54851000Y-37597500D02*
G01*
X53749000Y-37597500D01*
X53749000Y-35995500D01*
X54851000Y-35995500D01*
X54851000Y-37597500D01*
G37*
G36*
X64551000Y-37256000D02*
G01*
X62899000Y-37256000D01*
X62899000Y-36344000D01*
X64551000Y-36344000D01*
X64551000Y-37256000D01*
G37*
G36*
X61901000Y-37256000D02*
G01*
X60249000Y-37256000D01*
X60249000Y-36344000D01*
X61901000Y-36344000D01*
X61901000Y-37256000D01*
G37*
G36*
X64551000Y-36066000D02*
G01*
X62899000Y-36066000D01*
X62899000Y-35154000D01*
X64551000Y-35154000D01*
X64551000Y-36066000D01*
G37*
G36*
X61901000Y-36066000D02*
G01*
X60249000Y-36066000D01*
X60249000Y-35154000D01*
X61901000Y-35154000D01*
X61901000Y-36066000D01*
G37*
G36*
X68251560Y-33099064D02*
G01*
X68403027Y-33129193D01*
X68617045Y-33217842D01*
X68617046Y-33217843D01*
X68809654Y-33346539D01*
X68973461Y-33510346D01*
X69059258Y-33638751D01*
X69102158Y-33702955D01*
X69190807Y-33916973D01*
X69236000Y-34144174D01*
X69236000Y-34375826D01*
X69190807Y-34603027D01*
X69102158Y-34817045D01*
X69102157Y-34817046D01*
X68973461Y-35009654D01*
X68809654Y-35173461D01*
X68681249Y-35259258D01*
X68617045Y-35302158D01*
X68403027Y-35390807D01*
X68251560Y-35420936D01*
X68175827Y-35436000D01*
X67944173Y-35436000D01*
X67868440Y-35420936D01*
X67716973Y-35390807D01*
X67502955Y-35302158D01*
X67438751Y-35259258D01*
X67310346Y-35173461D01*
X67146539Y-35009654D01*
X67017843Y-34817046D01*
X67017842Y-34817045D01*
X66929193Y-34603027D01*
X66884000Y-34375826D01*
X66884000Y-34144174D01*
X66929193Y-33916973D01*
X67017842Y-33702955D01*
X67060742Y-33638751D01*
X67146539Y-33510346D01*
X67310346Y-33346539D01*
X67502954Y-33217843D01*
X67502955Y-33217842D01*
X67716973Y-33129193D01*
X67868440Y-33099064D01*
X67944173Y-33084000D01*
X68175827Y-33084000D01*
X68251560Y-33099064D01*
G37*
G36*
X73331560Y-33099064D02*
G01*
X73483027Y-33129193D01*
X73697045Y-33217842D01*
X73697046Y-33217843D01*
X73889654Y-33346539D01*
X74053461Y-33510346D01*
X74139258Y-33638751D01*
X74182158Y-33702955D01*
X74270807Y-33916973D01*
X74316000Y-34144174D01*
X74316000Y-34375826D01*
X74270807Y-34603027D01*
X74182158Y-34817045D01*
X74182157Y-34817046D01*
X74053461Y-35009654D01*
X73889654Y-35173461D01*
X73761249Y-35259258D01*
X73697045Y-35302158D01*
X73483027Y-35390807D01*
X73331560Y-35420936D01*
X73255827Y-35436000D01*
X73024173Y-35436000D01*
X72948440Y-35420936D01*
X72796973Y-35390807D01*
X72582955Y-35302158D01*
X72518751Y-35259258D01*
X72390346Y-35173461D01*
X72226539Y-35009654D01*
X72097843Y-34817046D01*
X72097842Y-34817045D01*
X72009193Y-34603027D01*
X71964000Y-34375826D01*
X71964000Y-34144174D01*
X72009193Y-33916973D01*
X72097842Y-33702955D01*
X72140742Y-33638751D01*
X72226539Y-33510346D01*
X72390346Y-33346539D01*
X72582954Y-33217843D01*
X72582955Y-33217842D01*
X72796973Y-33129193D01*
X72948440Y-33099064D01*
X73024173Y-33084000D01*
X73255827Y-33084000D01*
X73331560Y-33099064D01*
G37*
G36*
X50331560Y-33099064D02*
G01*
X50483027Y-33129193D01*
X50697045Y-33217842D01*
X50697046Y-33217843D01*
X50889654Y-33346539D01*
X51053461Y-33510346D01*
X51139258Y-33638751D01*
X51182158Y-33702955D01*
X51270807Y-33916973D01*
X51316000Y-34144174D01*
X51316000Y-34375826D01*
X51270807Y-34603027D01*
X51182158Y-34817045D01*
X51182157Y-34817046D01*
X51053461Y-35009654D01*
X50889654Y-35173461D01*
X50761249Y-35259258D01*
X50697045Y-35302158D01*
X50483027Y-35390807D01*
X50331560Y-35420936D01*
X50255827Y-35436000D01*
X50024173Y-35436000D01*
X49948440Y-35420936D01*
X49796973Y-35390807D01*
X49582955Y-35302158D01*
X49518751Y-35259258D01*
X49390346Y-35173461D01*
X49226539Y-35009654D01*
X49097843Y-34817046D01*
X49097842Y-34817045D01*
X49009193Y-34603027D01*
X48964000Y-34375826D01*
X48964000Y-34144174D01*
X49009193Y-33916973D01*
X49097842Y-33702955D01*
X49140742Y-33638751D01*
X49226539Y-33510346D01*
X49390346Y-33346539D01*
X49582954Y-33217843D01*
X49582955Y-33217842D01*
X49796973Y-33129193D01*
X49948440Y-33099064D01*
X50024173Y-33084000D01*
X50255827Y-33084000D01*
X50331560Y-33099064D01*
G37*
G36*
X45251560Y-33099064D02*
G01*
X45403027Y-33129193D01*
X45617045Y-33217842D01*
X45617046Y-33217843D01*
X45809654Y-33346539D01*
X45973461Y-33510346D01*
X46059258Y-33638751D01*
X46102158Y-33702955D01*
X46190807Y-33916973D01*
X46236000Y-34144174D01*
X46236000Y-34375826D01*
X46190807Y-34603027D01*
X46102158Y-34817045D01*
X46102157Y-34817046D01*
X45973461Y-35009654D01*
X45809654Y-35173461D01*
X45681249Y-35259258D01*
X45617045Y-35302158D01*
X45403027Y-35390807D01*
X45251560Y-35420936D01*
X45175827Y-35436000D01*
X44944173Y-35436000D01*
X44868440Y-35420936D01*
X44716973Y-35390807D01*
X44502955Y-35302158D01*
X44438751Y-35259258D01*
X44310346Y-35173461D01*
X44146539Y-35009654D01*
X44017843Y-34817046D01*
X44017842Y-34817045D01*
X43929193Y-34603027D01*
X43884000Y-34375826D01*
X43884000Y-34144174D01*
X43929193Y-33916973D01*
X44017842Y-33702955D01*
X44060742Y-33638751D01*
X44146539Y-33510346D01*
X44310346Y-33346539D01*
X44502954Y-33217843D01*
X44502955Y-33217842D01*
X44716973Y-33129193D01*
X44868440Y-33099064D01*
X44944173Y-33084000D01*
X45175827Y-33084000D01*
X45251560Y-33099064D01*
G37*
M02*
