G04 #@! TF.GenerationSoftware,KiCad,Pcbnew,5.1.5+dfsg1-2build2*
G04 #@! TF.CreationDate,2021-03-12T18:36:22+01:00*
G04 #@! TF.ProjectId,70cm_preamp,3730636d-5f70-4726-9561-6d702e6b6963,rev?*
G04 #@! TF.SameCoordinates,Original*
G04 #@! TF.FileFunction,Copper,L2,Bot*
G04 #@! TF.FilePolarity,Positive*
%FSLAX46Y46*%
G04 Gerber Fmt 4.6, Leading zero omitted, Abs format (unit mm)*
G04 Created by KiCad (PCBNEW 5.1.5+dfsg1-2build2) date 2021-03-12 18:36:22*
%MOMM*%
%LPD*%
G04 APERTURE LIST*
%ADD10C,0.010000*%
%ADD11C,2.250000*%
%ADD12C,2.050000*%
%ADD13C,0.950000*%
%ADD14C,0.250000*%
G04 APERTURE END LIST*
D10*
G36*
X46360701Y-31319000D02*
G01*
X46302185Y-31480412D01*
X46249899Y-31618404D01*
X46207846Y-31722894D01*
X46180029Y-31783798D01*
X46171624Y-31795250D01*
X46154827Y-31766919D01*
X46121305Y-31688652D01*
X46075056Y-31570534D01*
X46020077Y-31422652D01*
X45982848Y-31319000D01*
X45813993Y-30842750D01*
X45608225Y-30842750D01*
X45491395Y-30846379D01*
X45429834Y-30858354D01*
X45415667Y-30880303D01*
X45416310Y-30882437D01*
X45430993Y-30922598D01*
X45464492Y-31013230D01*
X45513456Y-31145302D01*
X45574534Y-31309778D01*
X45644377Y-31497626D01*
X45681284Y-31596812D01*
X45932406Y-32271500D01*
X46410095Y-32271500D01*
X46661217Y-31596812D01*
X46734166Y-31400714D01*
X46800016Y-31223501D01*
X46855416Y-31074206D01*
X46897014Y-30961864D01*
X46921461Y-30895508D01*
X46926191Y-30882437D01*
X46915308Y-30859628D01*
X46857572Y-30846949D01*
X46745117Y-30842766D01*
X46734951Y-30842750D01*
X46529859Y-30842749D01*
X46360701Y-31319000D01*
G37*
X46360701Y-31319000D02*
X46302185Y-31480412D01*
X46249899Y-31618404D01*
X46207846Y-31722894D01*
X46180029Y-31783798D01*
X46171624Y-31795250D01*
X46154827Y-31766919D01*
X46121305Y-31688652D01*
X46075056Y-31570534D01*
X46020077Y-31422652D01*
X45982848Y-31319000D01*
X45813993Y-30842750D01*
X45608225Y-30842750D01*
X45491395Y-30846379D01*
X45429834Y-30858354D01*
X45415667Y-30880303D01*
X45416310Y-30882437D01*
X45430993Y-30922598D01*
X45464492Y-31013230D01*
X45513456Y-31145302D01*
X45574534Y-31309778D01*
X45644377Y-31497626D01*
X45681284Y-31596812D01*
X45932406Y-32271500D01*
X46410095Y-32271500D01*
X46661217Y-31596812D01*
X46734166Y-31400714D01*
X46800016Y-31223501D01*
X46855416Y-31074206D01*
X46897014Y-30961864D01*
X46921461Y-30895508D01*
X46926191Y-30882437D01*
X46915308Y-30859628D01*
X46857572Y-30846949D01*
X46745117Y-30842766D01*
X46734951Y-30842750D01*
X46529859Y-30842749D01*
X46360701Y-31319000D01*
G36*
X49127253Y-30846529D02*
G01*
X48962582Y-30859440D01*
X48841386Y-30883839D01*
X48753834Y-30922085D01*
X48690095Y-30976534D01*
X48667775Y-31005210D01*
X48625677Y-31110359D01*
X48617537Y-31239766D01*
X48639708Y-31372616D01*
X48688541Y-31488097D01*
X48760387Y-31565393D01*
X48766612Y-31569076D01*
X48800985Y-31594784D01*
X48794893Y-31625706D01*
X48754115Y-31673842D01*
X48709399Y-31735405D01*
X48648263Y-31836431D01*
X48581344Y-31958938D01*
X48555523Y-32009562D01*
X48424792Y-32271500D01*
X48639459Y-32271363D01*
X48854125Y-32271227D01*
X48975035Y-32035700D01*
X49044768Y-31908763D01*
X49102150Y-31828574D01*
X49157411Y-31782533D01*
X49194086Y-31765962D01*
X49269852Y-31742205D01*
X49318215Y-31731771D01*
X49319238Y-31731750D01*
X49331445Y-31761063D01*
X49340781Y-31839286D01*
X49345787Y-31951844D01*
X49346250Y-32001625D01*
X49346250Y-32271500D01*
X49759000Y-32271500D01*
X49759000Y-31483331D01*
X49346250Y-31483331D01*
X49211313Y-31461398D01*
X49121072Y-31441778D01*
X49057943Y-31419124D01*
X49047271Y-31412040D01*
X49026497Y-31363120D01*
X49018167Y-31287250D01*
X49026523Y-31206084D01*
X49061021Y-31157134D01*
X49135807Y-31127645D01*
X49211313Y-31113101D01*
X49346250Y-31091168D01*
X49346250Y-31483331D01*
X49759000Y-31483331D01*
X49759000Y-30842750D01*
X49345231Y-30842749D01*
X49127253Y-30846529D01*
G37*
X49127253Y-30846529D02*
X48962582Y-30859440D01*
X48841386Y-30883839D01*
X48753834Y-30922085D01*
X48690095Y-30976534D01*
X48667775Y-31005210D01*
X48625677Y-31110359D01*
X48617537Y-31239766D01*
X48639708Y-31372616D01*
X48688541Y-31488097D01*
X48760387Y-31565393D01*
X48766612Y-31569076D01*
X48800985Y-31594784D01*
X48794893Y-31625706D01*
X48754115Y-31673842D01*
X48709399Y-31735405D01*
X48648263Y-31836431D01*
X48581344Y-31958938D01*
X48555523Y-32009562D01*
X48424792Y-32271500D01*
X48639459Y-32271363D01*
X48854125Y-32271227D01*
X48975035Y-32035700D01*
X49044768Y-31908763D01*
X49102150Y-31828574D01*
X49157411Y-31782533D01*
X49194086Y-31765962D01*
X49269852Y-31742205D01*
X49318215Y-31731771D01*
X49319238Y-31731750D01*
X49331445Y-31761063D01*
X49340781Y-31839286D01*
X49345787Y-31951844D01*
X49346250Y-32001625D01*
X49346250Y-32271500D01*
X49759000Y-32271500D01*
X49759000Y-31483331D01*
X49346250Y-31483331D01*
X49211313Y-31461398D01*
X49121072Y-31441778D01*
X49057943Y-31419124D01*
X49047271Y-31412040D01*
X49026497Y-31363120D01*
X49018167Y-31287250D01*
X49026523Y-31206084D01*
X49061021Y-31157134D01*
X49135807Y-31127645D01*
X49211313Y-31113101D01*
X49346250Y-31091168D01*
X49346250Y-31483331D01*
X49759000Y-31483331D01*
X49759000Y-30842750D01*
X49345231Y-30842749D01*
X49127253Y-30846529D01*
G36*
X47290483Y-30826876D02*
G01*
X47173679Y-30855644D01*
X47170356Y-30857004D01*
X47102213Y-30890912D01*
X47070141Y-30932379D01*
X47060700Y-31004657D01*
X47060250Y-31047504D01*
X47062611Y-31133309D01*
X47068588Y-31185084D01*
X47072248Y-31192000D01*
X47106389Y-31180938D01*
X47176262Y-31153461D01*
X47198228Y-31144375D01*
X47312028Y-31112985D01*
X47444690Y-31099657D01*
X47573375Y-31104365D01*
X47675244Y-31127088D01*
X47708578Y-31144888D01*
X47813226Y-31255366D01*
X47870622Y-31397188D01*
X47885541Y-31550764D01*
X47864573Y-31742268D01*
X47801198Y-31886595D01*
X47720117Y-31967947D01*
X47631088Y-32001951D01*
X47505174Y-32015957D01*
X47365787Y-32009878D01*
X47236340Y-31983628D01*
X47198228Y-31969875D01*
X47122610Y-31939443D01*
X47076633Y-31923125D01*
X47072248Y-31922250D01*
X47065124Y-31950674D01*
X47060825Y-32022667D01*
X47060250Y-32066745D01*
X47064393Y-32157902D01*
X47085779Y-32208927D01*
X47137849Y-32243072D01*
X47170356Y-32257245D01*
X47294011Y-32288842D01*
X47453873Y-32302597D01*
X47625346Y-32298988D01*
X47783836Y-32278492D01*
X47901625Y-32243056D01*
X48074429Y-32132409D01*
X48197694Y-31982949D01*
X48271963Y-31793729D01*
X48297778Y-31563802D01*
X48297803Y-31550207D01*
X48271933Y-31321044D01*
X48196511Y-31130283D01*
X48072416Y-30979368D01*
X47900525Y-30869744D01*
X47878833Y-30860309D01*
X47762240Y-30829901D01*
X47609096Y-30814118D01*
X47443733Y-30813071D01*
X47290483Y-30826876D01*
G37*
X47290483Y-30826876D02*
X47173679Y-30855644D01*
X47170356Y-30857004D01*
X47102213Y-30890912D01*
X47070141Y-30932379D01*
X47060700Y-31004657D01*
X47060250Y-31047504D01*
X47062611Y-31133309D01*
X47068588Y-31185084D01*
X47072248Y-31192000D01*
X47106389Y-31180938D01*
X47176262Y-31153461D01*
X47198228Y-31144375D01*
X47312028Y-31112985D01*
X47444690Y-31099657D01*
X47573375Y-31104365D01*
X47675244Y-31127088D01*
X47708578Y-31144888D01*
X47813226Y-31255366D01*
X47870622Y-31397188D01*
X47885541Y-31550764D01*
X47864573Y-31742268D01*
X47801198Y-31886595D01*
X47720117Y-31967947D01*
X47631088Y-32001951D01*
X47505174Y-32015957D01*
X47365787Y-32009878D01*
X47236340Y-31983628D01*
X47198228Y-31969875D01*
X47122610Y-31939443D01*
X47076633Y-31923125D01*
X47072248Y-31922250D01*
X47065124Y-31950674D01*
X47060825Y-32022667D01*
X47060250Y-32066745D01*
X47064393Y-32157902D01*
X47085779Y-32208927D01*
X47137849Y-32243072D01*
X47170356Y-32257245D01*
X47294011Y-32288842D01*
X47453873Y-32302597D01*
X47625346Y-32298988D01*
X47783836Y-32278492D01*
X47901625Y-32243056D01*
X48074429Y-32132409D01*
X48197694Y-31982949D01*
X48271963Y-31793729D01*
X48297778Y-31563802D01*
X48297803Y-31550207D01*
X48271933Y-31321044D01*
X48196511Y-31130283D01*
X48072416Y-30979368D01*
X47900525Y-30869744D01*
X47878833Y-30860309D01*
X47762240Y-30829901D01*
X47609096Y-30814118D01*
X47443733Y-30813071D01*
X47290483Y-30826876D01*
G36*
X68377500Y-31128500D02*
G01*
X68853750Y-31128500D01*
X68853750Y-32271500D01*
X69234750Y-32271500D01*
X69234750Y-31128500D01*
X69711000Y-31128500D01*
X69711000Y-30842750D01*
X68377500Y-30842750D01*
X68377500Y-31128500D01*
G37*
X68377500Y-31128500D02*
X68853750Y-31128500D01*
X68853750Y-32271500D01*
X69234750Y-32271500D01*
X69234750Y-31128500D01*
X69711000Y-31128500D01*
X69711000Y-30842750D01*
X68377500Y-30842750D01*
X68377500Y-31128500D01*
G36*
X69869750Y-32271500D02*
G01*
X70099938Y-32271303D01*
X70330125Y-32271106D01*
X70568250Y-31823475D01*
X70806375Y-31375845D01*
X70815185Y-31823672D01*
X70823994Y-32271500D01*
X71203250Y-32271500D01*
X71203250Y-30842750D01*
X70973063Y-30842772D01*
X70742875Y-30842794D01*
X70504750Y-31295209D01*
X70266625Y-31747625D01*
X70257816Y-31295187D01*
X70249007Y-30842750D01*
X69869750Y-30842750D01*
X69869750Y-32271500D01*
G37*
X69869750Y-32271500D02*
X70099938Y-32271303D01*
X70330125Y-32271106D01*
X70568250Y-31823475D01*
X70806375Y-31375845D01*
X70815185Y-31823672D01*
X70823994Y-32271500D01*
X71203250Y-32271500D01*
X71203250Y-30842750D01*
X70973063Y-30842772D01*
X70742875Y-30842794D01*
X70504750Y-31295209D01*
X70266625Y-31747625D01*
X70257816Y-31295187D01*
X70249007Y-30842750D01*
X69869750Y-30842750D01*
X69869750Y-32271500D01*
G36*
X71634034Y-31517437D02*
G01*
X71561085Y-31713535D01*
X71495235Y-31890748D01*
X71439835Y-32040043D01*
X71398237Y-32152385D01*
X71373790Y-32218741D01*
X71369060Y-32231812D01*
X71379931Y-32254596D01*
X71437606Y-32267275D01*
X71549958Y-32271480D01*
X71560852Y-32271500D01*
X71766498Y-32271500D01*
X71806501Y-32128625D01*
X71846503Y-31985750D01*
X72401498Y-31985750D01*
X72441500Y-32128625D01*
X72481503Y-32271500D01*
X72687149Y-32271500D01*
X72803936Y-32267867D01*
X72865454Y-32255882D01*
X72879576Y-32233916D01*
X72878941Y-32231812D01*
X72864258Y-32191651D01*
X72830759Y-32101019D01*
X72781795Y-31968947D01*
X72720717Y-31804471D01*
X72684166Y-31706164D01*
X72282750Y-31706164D01*
X72254186Y-31720761D01*
X72181154Y-31730025D01*
X72124000Y-31731750D01*
X72033429Y-31727146D01*
X71975952Y-31715376D01*
X71965250Y-31706164D01*
X71975556Y-31653060D01*
X72001768Y-31568454D01*
X72036834Y-31470962D01*
X72073697Y-31379201D01*
X72105304Y-31311787D01*
X72124000Y-31287250D01*
X72144125Y-31314443D01*
X72176187Y-31383614D01*
X72213132Y-31476146D01*
X72247905Y-31573422D01*
X72273452Y-31656827D01*
X72282750Y-31706164D01*
X72684166Y-31706164D01*
X72650874Y-31616623D01*
X72613967Y-31517437D01*
X72362845Y-30842750D01*
X71885156Y-30842750D01*
X71634034Y-31517437D01*
G37*
X71634034Y-31517437D02*
X71561085Y-31713535D01*
X71495235Y-31890748D01*
X71439835Y-32040043D01*
X71398237Y-32152385D01*
X71373790Y-32218741D01*
X71369060Y-32231812D01*
X71379931Y-32254596D01*
X71437606Y-32267275D01*
X71549958Y-32271480D01*
X71560852Y-32271500D01*
X71766498Y-32271500D01*
X71806501Y-32128625D01*
X71846503Y-31985750D01*
X72401498Y-31985750D01*
X72441500Y-32128625D01*
X72481503Y-32271500D01*
X72687149Y-32271500D01*
X72803936Y-32267867D01*
X72865454Y-32255882D01*
X72879576Y-32233916D01*
X72878941Y-32231812D01*
X72864258Y-32191651D01*
X72830759Y-32101019D01*
X72781795Y-31968947D01*
X72720717Y-31804471D01*
X72684166Y-31706164D01*
X72282750Y-31706164D01*
X72254186Y-31720761D01*
X72181154Y-31730025D01*
X72124000Y-31731750D01*
X72033429Y-31727146D01*
X71975952Y-31715376D01*
X71965250Y-31706164D01*
X71975556Y-31653060D01*
X72001768Y-31568454D01*
X72036834Y-31470962D01*
X72073697Y-31379201D01*
X72105304Y-31311787D01*
X72124000Y-31287250D01*
X72144125Y-31314443D01*
X72176187Y-31383614D01*
X72213132Y-31476146D01*
X72247905Y-31573422D01*
X72273452Y-31656827D01*
X72282750Y-31706164D01*
X72684166Y-31706164D01*
X72650874Y-31616623D01*
X72613967Y-31517437D01*
X72362845Y-30842750D01*
X71885156Y-30842750D01*
X71634034Y-31517437D01*
D11*
X68060000Y-34260000D03*
X73140000Y-34260000D03*
X73140000Y-39340000D03*
X68060000Y-39340000D03*
D12*
X70600000Y-36800000D03*
D11*
X45060000Y-39340000D03*
X45060000Y-34260000D03*
X50140000Y-34260000D03*
X50140000Y-39340000D03*
D12*
X47600000Y-36800000D03*
D13*
X54290000Y-35230000D03*
X53100000Y-35330000D03*
X53090000Y-38260000D03*
X54290000Y-38370000D03*
X57290000Y-35230000D03*
X57290000Y-38370000D03*
X62400000Y-35650000D03*
X63750000Y-34750000D03*
X63750000Y-38850000D03*
X59900000Y-38250000D03*
X59900000Y-35350000D03*
X58590000Y-38270000D03*
X51890000Y-38260000D03*
X51900000Y-35330000D03*
X55800000Y-37900000D03*
X54300000Y-39700000D03*
X57300000Y-39700000D03*
X54700000Y-41300000D03*
X56900000Y-41300000D03*
X61050000Y-38850000D03*
X61050000Y-34750000D03*
X55800000Y-35600000D03*
X58590000Y-35330000D03*
X65040000Y-38270000D03*
X65040000Y-35330000D03*
X66440000Y-35330000D03*
X66440000Y-38270000D03*
X62400000Y-38850000D03*
D14*
G36*
X75400001Y-43200000D02*
G01*
X42800000Y-43200000D01*
X42800000Y-40651657D01*
X44278673Y-40651657D01*
X44414097Y-40866998D01*
X44724411Y-40963666D01*
X45047621Y-40997938D01*
X45371307Y-40968497D01*
X45683029Y-40876472D01*
X45705903Y-40866998D01*
X45841327Y-40651657D01*
X49358673Y-40651657D01*
X49494097Y-40866998D01*
X49804411Y-40963666D01*
X50127621Y-40997938D01*
X50451307Y-40968497D01*
X50763029Y-40876472D01*
X50785903Y-40866998D01*
X50921327Y-40651657D01*
X67278673Y-40651657D01*
X67414097Y-40866998D01*
X67724411Y-40963666D01*
X68047621Y-40997938D01*
X68371307Y-40968497D01*
X68683029Y-40876472D01*
X68705903Y-40866998D01*
X68841327Y-40651657D01*
X72358673Y-40651657D01*
X72494097Y-40866998D01*
X72804411Y-40963666D01*
X73127621Y-40997938D01*
X73451307Y-40968497D01*
X73763029Y-40876472D01*
X73785903Y-40866998D01*
X73921327Y-40651657D01*
X73140000Y-39870330D01*
X72358673Y-40651657D01*
X68841327Y-40651657D01*
X68060000Y-39870330D01*
X67278673Y-40651657D01*
X50921327Y-40651657D01*
X50140000Y-39870330D01*
X49358673Y-40651657D01*
X45841327Y-40651657D01*
X45060000Y-39870330D01*
X44278673Y-40651657D01*
X42800000Y-40651657D01*
X42800000Y-39327621D01*
X43402062Y-39327621D01*
X43431503Y-39651307D01*
X43523528Y-39963029D01*
X43533002Y-39985903D01*
X43748343Y-40121327D01*
X44529670Y-39340000D01*
X45590330Y-39340000D01*
X46371657Y-40121327D01*
X46586998Y-39985903D01*
X46683666Y-39675589D01*
X46717938Y-39352379D01*
X46715687Y-39327621D01*
X48482062Y-39327621D01*
X48511503Y-39651307D01*
X48603528Y-39963029D01*
X48613002Y-39985903D01*
X48828343Y-40121327D01*
X49609670Y-39340000D01*
X50670330Y-39340000D01*
X51451657Y-40121327D01*
X51666998Y-39985903D01*
X51763666Y-39675589D01*
X51797938Y-39352379D01*
X51795687Y-39327621D01*
X66402062Y-39327621D01*
X66431503Y-39651307D01*
X66523528Y-39963029D01*
X66533002Y-39985903D01*
X66748343Y-40121327D01*
X67529670Y-39340000D01*
X68590330Y-39340000D01*
X69371657Y-40121327D01*
X69586998Y-39985903D01*
X69683666Y-39675589D01*
X69717938Y-39352379D01*
X69715687Y-39327621D01*
X71482062Y-39327621D01*
X71511503Y-39651307D01*
X71603528Y-39963029D01*
X71613002Y-39985903D01*
X71828343Y-40121327D01*
X72609670Y-39340000D01*
X73670330Y-39340000D01*
X74451657Y-40121327D01*
X74666998Y-39985903D01*
X74763666Y-39675589D01*
X74797938Y-39352379D01*
X74768497Y-39028693D01*
X74676472Y-38716971D01*
X74666998Y-38694097D01*
X74451657Y-38558673D01*
X73670330Y-39340000D01*
X72609670Y-39340000D01*
X71828343Y-38558673D01*
X71613002Y-38694097D01*
X71516334Y-39004411D01*
X71482062Y-39327621D01*
X69715687Y-39327621D01*
X69688497Y-39028693D01*
X69596472Y-38716971D01*
X69586998Y-38694097D01*
X69371657Y-38558673D01*
X68590330Y-39340000D01*
X67529670Y-39340000D01*
X66748343Y-38558673D01*
X66533002Y-38694097D01*
X66436334Y-39004411D01*
X66402062Y-39327621D01*
X51795687Y-39327621D01*
X51768497Y-39028693D01*
X51676472Y-38716971D01*
X51666998Y-38694097D01*
X51451657Y-38558673D01*
X50670330Y-39340000D01*
X49609670Y-39340000D01*
X48828343Y-38558673D01*
X48613002Y-38694097D01*
X48516334Y-39004411D01*
X48482062Y-39327621D01*
X46715687Y-39327621D01*
X46688497Y-39028693D01*
X46596472Y-38716971D01*
X46586998Y-38694097D01*
X46371657Y-38558673D01*
X45590330Y-39340000D01*
X44529670Y-39340000D01*
X43748343Y-38558673D01*
X43533002Y-38694097D01*
X43436334Y-39004411D01*
X43402062Y-39327621D01*
X42800000Y-39327621D01*
X42800000Y-38028343D01*
X44278673Y-38028343D01*
X45060000Y-38809670D01*
X45841327Y-38028343D01*
X45705903Y-37813002D01*
X45395589Y-37716334D01*
X45072379Y-37682062D01*
X44748693Y-37711503D01*
X44436971Y-37803528D01*
X44414097Y-37813002D01*
X44278673Y-38028343D01*
X42800000Y-38028343D01*
X42800000Y-36654233D01*
X46120000Y-36654233D01*
X46120000Y-36945767D01*
X46176876Y-37231700D01*
X46288441Y-37501043D01*
X46450409Y-37743445D01*
X46656555Y-37949591D01*
X46898957Y-38111559D01*
X47168300Y-38223124D01*
X47454233Y-38280000D01*
X47745767Y-38280000D01*
X48031700Y-38223124D01*
X48301043Y-38111559D01*
X48425584Y-38028343D01*
X49358673Y-38028343D01*
X50140000Y-38809670D01*
X50921327Y-38028343D01*
X67278673Y-38028343D01*
X68060000Y-38809670D01*
X68841327Y-38028343D01*
X68705903Y-37813002D01*
X68395589Y-37716334D01*
X68072379Y-37682062D01*
X67748693Y-37711503D01*
X67436971Y-37803528D01*
X67414097Y-37813002D01*
X67278673Y-38028343D01*
X50921327Y-38028343D01*
X50785903Y-37813002D01*
X50475589Y-37716334D01*
X50152379Y-37682062D01*
X49828693Y-37711503D01*
X49516971Y-37803528D01*
X49494097Y-37813002D01*
X49358673Y-38028343D01*
X48425584Y-38028343D01*
X48543445Y-37949591D01*
X48749591Y-37743445D01*
X48911559Y-37501043D01*
X49023124Y-37231700D01*
X49080000Y-36945767D01*
X49080000Y-36654233D01*
X69120000Y-36654233D01*
X69120000Y-36945767D01*
X69176876Y-37231700D01*
X69288441Y-37501043D01*
X69450409Y-37743445D01*
X69656555Y-37949591D01*
X69898957Y-38111559D01*
X70168300Y-38223124D01*
X70454233Y-38280000D01*
X70745767Y-38280000D01*
X71031700Y-38223124D01*
X71301043Y-38111559D01*
X71425584Y-38028343D01*
X72358673Y-38028343D01*
X73140000Y-38809670D01*
X73921327Y-38028343D01*
X73785903Y-37813002D01*
X73475589Y-37716334D01*
X73152379Y-37682062D01*
X72828693Y-37711503D01*
X72516971Y-37803528D01*
X72494097Y-37813002D01*
X72358673Y-38028343D01*
X71425584Y-38028343D01*
X71543445Y-37949591D01*
X71749591Y-37743445D01*
X71911559Y-37501043D01*
X72023124Y-37231700D01*
X72080000Y-36945767D01*
X72080000Y-36654233D01*
X72023124Y-36368300D01*
X71911559Y-36098957D01*
X71749591Y-35856555D01*
X71543445Y-35650409D01*
X71425585Y-35571657D01*
X72358673Y-35571657D01*
X72494097Y-35786998D01*
X72804411Y-35883666D01*
X73127621Y-35917938D01*
X73451307Y-35888497D01*
X73763029Y-35796472D01*
X73785903Y-35786998D01*
X73921327Y-35571657D01*
X73140000Y-34790330D01*
X72358673Y-35571657D01*
X71425585Y-35571657D01*
X71301043Y-35488441D01*
X71031700Y-35376876D01*
X70745767Y-35320000D01*
X70454233Y-35320000D01*
X70168300Y-35376876D01*
X69898957Y-35488441D01*
X69656555Y-35650409D01*
X69450409Y-35856555D01*
X69288441Y-36098957D01*
X69176876Y-36368300D01*
X69120000Y-36654233D01*
X49080000Y-36654233D01*
X49023124Y-36368300D01*
X48911559Y-36098957D01*
X48749591Y-35856555D01*
X48543445Y-35650409D01*
X48425585Y-35571657D01*
X49358673Y-35571657D01*
X49494097Y-35786998D01*
X49804411Y-35883666D01*
X50127621Y-35917938D01*
X50451307Y-35888497D01*
X50763029Y-35796472D01*
X50785903Y-35786998D01*
X50921327Y-35571657D01*
X67278673Y-35571657D01*
X67414097Y-35786998D01*
X67724411Y-35883666D01*
X68047621Y-35917938D01*
X68371307Y-35888497D01*
X68683029Y-35796472D01*
X68705903Y-35786998D01*
X68841327Y-35571657D01*
X68060000Y-34790330D01*
X67278673Y-35571657D01*
X50921327Y-35571657D01*
X50140000Y-34790330D01*
X49358673Y-35571657D01*
X48425585Y-35571657D01*
X48301043Y-35488441D01*
X48031700Y-35376876D01*
X47745767Y-35320000D01*
X47454233Y-35320000D01*
X47168300Y-35376876D01*
X46898957Y-35488441D01*
X46656555Y-35650409D01*
X46450409Y-35856555D01*
X46288441Y-36098957D01*
X46176876Y-36368300D01*
X46120000Y-36654233D01*
X42800000Y-36654233D01*
X42800000Y-35571657D01*
X44278673Y-35571657D01*
X44414097Y-35786998D01*
X44724411Y-35883666D01*
X45047621Y-35917938D01*
X45371307Y-35888497D01*
X45683029Y-35796472D01*
X45705903Y-35786998D01*
X45841327Y-35571657D01*
X45060000Y-34790330D01*
X44278673Y-35571657D01*
X42800000Y-35571657D01*
X42800000Y-34247621D01*
X43402062Y-34247621D01*
X43431503Y-34571307D01*
X43523528Y-34883029D01*
X43533002Y-34905903D01*
X43748343Y-35041327D01*
X44529670Y-34260000D01*
X45590330Y-34260000D01*
X46371657Y-35041327D01*
X46586998Y-34905903D01*
X46683666Y-34595589D01*
X46717938Y-34272379D01*
X46715687Y-34247621D01*
X48482062Y-34247621D01*
X48511503Y-34571307D01*
X48603528Y-34883029D01*
X48613002Y-34905903D01*
X48828343Y-35041327D01*
X49609670Y-34260000D01*
X50670330Y-34260000D01*
X51451657Y-35041327D01*
X51666998Y-34905903D01*
X51763666Y-34595589D01*
X51797938Y-34272379D01*
X51795687Y-34247621D01*
X66402062Y-34247621D01*
X66431503Y-34571307D01*
X66523528Y-34883029D01*
X66533002Y-34905903D01*
X66748343Y-35041327D01*
X67529670Y-34260000D01*
X68590330Y-34260000D01*
X69371657Y-35041327D01*
X69586998Y-34905903D01*
X69683666Y-34595589D01*
X69717938Y-34272379D01*
X69715687Y-34247621D01*
X71482062Y-34247621D01*
X71511503Y-34571307D01*
X71603528Y-34883029D01*
X71613002Y-34905903D01*
X71828343Y-35041327D01*
X72609670Y-34260000D01*
X73670330Y-34260000D01*
X74451657Y-35041327D01*
X74666998Y-34905903D01*
X74763666Y-34595589D01*
X74797938Y-34272379D01*
X74768497Y-33948693D01*
X74676472Y-33636971D01*
X74666998Y-33614097D01*
X74451657Y-33478673D01*
X73670330Y-34260000D01*
X72609670Y-34260000D01*
X71828343Y-33478673D01*
X71613002Y-33614097D01*
X71516334Y-33924411D01*
X71482062Y-34247621D01*
X69715687Y-34247621D01*
X69688497Y-33948693D01*
X69596472Y-33636971D01*
X69586998Y-33614097D01*
X69371657Y-33478673D01*
X68590330Y-34260000D01*
X67529670Y-34260000D01*
X66748343Y-33478673D01*
X66533002Y-33614097D01*
X66436334Y-33924411D01*
X66402062Y-34247621D01*
X51795687Y-34247621D01*
X51768497Y-33948693D01*
X51676472Y-33636971D01*
X51666998Y-33614097D01*
X51451657Y-33478673D01*
X50670330Y-34260000D01*
X49609670Y-34260000D01*
X48828343Y-33478673D01*
X48613002Y-33614097D01*
X48516334Y-33924411D01*
X48482062Y-34247621D01*
X46715687Y-34247621D01*
X46688497Y-33948693D01*
X46596472Y-33636971D01*
X46586998Y-33614097D01*
X46371657Y-33478673D01*
X45590330Y-34260000D01*
X44529670Y-34260000D01*
X43748343Y-33478673D01*
X43533002Y-33614097D01*
X43436334Y-33924411D01*
X43402062Y-34247621D01*
X42800000Y-34247621D01*
X42800000Y-32948343D01*
X44278673Y-32948343D01*
X45060000Y-33729670D01*
X45841327Y-32948343D01*
X49358673Y-32948343D01*
X50140000Y-33729670D01*
X50921327Y-32948343D01*
X67278673Y-32948343D01*
X68060000Y-33729670D01*
X68841327Y-32948343D01*
X72358673Y-32948343D01*
X73140000Y-33729670D01*
X73921327Y-32948343D01*
X73785903Y-32733002D01*
X73475589Y-32636334D01*
X73152379Y-32602062D01*
X72828693Y-32631503D01*
X72516971Y-32723528D01*
X72494097Y-32733002D01*
X72358673Y-32948343D01*
X68841327Y-32948343D01*
X68705903Y-32733002D01*
X68395589Y-32636334D01*
X68072379Y-32602062D01*
X67748693Y-32631503D01*
X67436971Y-32723528D01*
X67414097Y-32733002D01*
X67278673Y-32948343D01*
X50921327Y-32948343D01*
X50785903Y-32733002D01*
X50475589Y-32636334D01*
X50152379Y-32602062D01*
X49828693Y-32631503D01*
X49516971Y-32723528D01*
X49494097Y-32733002D01*
X49358673Y-32948343D01*
X45841327Y-32948343D01*
X45705903Y-32733002D01*
X45395589Y-32636334D01*
X45072379Y-32602062D01*
X44748693Y-32631503D01*
X44436971Y-32723528D01*
X44414097Y-32733002D01*
X44278673Y-32948343D01*
X42800000Y-32948343D01*
X42800000Y-30884679D01*
X45085696Y-30884679D01*
X45086977Y-30896170D01*
X45086809Y-30907734D01*
X45089252Y-30921087D01*
X45089588Y-30928835D01*
X45091488Y-30936640D01*
X45092831Y-30948687D01*
X45096318Y-30959706D01*
X45098400Y-30971087D01*
X45099699Y-30975508D01*
X45100342Y-30977642D01*
X45103103Y-30984352D01*
X45104822Y-30991412D01*
X45106374Y-30995751D01*
X45121057Y-31035912D01*
X45121086Y-31035972D01*
X45121460Y-31037006D01*
X45154959Y-31127638D01*
X45154967Y-31127654D01*
X45155072Y-31127944D01*
X45204036Y-31260015D01*
X45204041Y-31260025D01*
X45204098Y-31260182D01*
X45265175Y-31424657D01*
X45265181Y-31424669D01*
X45265222Y-31424782D01*
X45335058Y-31612612D01*
X45335094Y-31612710D01*
X45372001Y-31711896D01*
X45372004Y-31711902D01*
X45372012Y-31711924D01*
X45623134Y-32386612D01*
X45625142Y-32390725D01*
X45626435Y-32395120D01*
X45639255Y-32419642D01*
X45651383Y-32444491D01*
X45654152Y-32448137D01*
X45656274Y-32452196D01*
X45673612Y-32473760D01*
X45690336Y-32495781D01*
X45693760Y-32498819D01*
X45696630Y-32502389D01*
X45717818Y-32520168D01*
X45738509Y-32538528D01*
X45742461Y-32540845D01*
X45745967Y-32543787D01*
X45770205Y-32557112D01*
X45794068Y-32571104D01*
X45798391Y-32572608D01*
X45802405Y-32574815D01*
X45828780Y-32583182D01*
X45854895Y-32592268D01*
X45859429Y-32592904D01*
X45863795Y-32594289D01*
X45891298Y-32597374D01*
X45918676Y-32601214D01*
X45923245Y-32600957D01*
X45927798Y-32601468D01*
X45932406Y-32601500D01*
X46410095Y-32601500D01*
X46414651Y-32601053D01*
X46419220Y-32601374D01*
X46446672Y-32597914D01*
X46474192Y-32595215D01*
X46478574Y-32593892D01*
X46483119Y-32593319D01*
X46509374Y-32584593D01*
X46535848Y-32576600D01*
X46539890Y-32574451D01*
X46544237Y-32573006D01*
X46568288Y-32559351D01*
X46592714Y-32546364D01*
X46596264Y-32543468D01*
X46600244Y-32541209D01*
X46621185Y-32523144D01*
X46642624Y-32505658D01*
X46645542Y-32502131D01*
X46649010Y-32499139D01*
X46666053Y-32477338D01*
X46683677Y-32456034D01*
X46685854Y-32452008D01*
X46688676Y-32448398D01*
X46701164Y-32423693D01*
X46714310Y-32399380D01*
X46715663Y-32395009D01*
X46717730Y-32390920D01*
X46719367Y-32386612D01*
X46758455Y-32281595D01*
X46760044Y-32285463D01*
X46781430Y-32336489D01*
X46796235Y-32363939D01*
X46810740Y-32391283D01*
X46811460Y-32392168D01*
X46812003Y-32393174D01*
X46831780Y-32417131D01*
X46851398Y-32441232D01*
X46852278Y-32441962D01*
X46853005Y-32442842D01*
X46877083Y-32462521D01*
X46900983Y-32482332D01*
X46902806Y-32483546D01*
X46902872Y-32483600D01*
X46902947Y-32483640D01*
X46904818Y-32484886D01*
X46956889Y-32519031D01*
X46979569Y-32530916D01*
X47001749Y-32543699D01*
X47005960Y-32545570D01*
X47038467Y-32559743D01*
X47061521Y-32567215D01*
X47084201Y-32575800D01*
X47088658Y-32576972D01*
X47212313Y-32608569D01*
X47236813Y-32612333D01*
X47261133Y-32617200D01*
X47265721Y-32617627D01*
X47425584Y-32631382D01*
X47440923Y-32631199D01*
X47456209Y-32632589D01*
X47460817Y-32632524D01*
X47632290Y-32628915D01*
X47647638Y-32627083D01*
X47663095Y-32626822D01*
X47667669Y-32626263D01*
X47826160Y-32605767D01*
X47850208Y-32600229D01*
X47874483Y-32595798D01*
X47878905Y-32594501D01*
X47996694Y-32559065D01*
X48007065Y-32554802D01*
X48017903Y-32551892D01*
X48036799Y-32542581D01*
X48056263Y-32534581D01*
X48065608Y-32528386D01*
X48075675Y-32523425D01*
X48079573Y-32520967D01*
X48161676Y-32468396D01*
X48162208Y-32469058D01*
X48174520Y-32486591D01*
X48182361Y-32494090D01*
X48189163Y-32502539D01*
X48205581Y-32516297D01*
X48221064Y-32531105D01*
X48230213Y-32536939D01*
X48238527Y-32543906D01*
X48257304Y-32554213D01*
X48275368Y-32565732D01*
X48285474Y-32569677D01*
X48294985Y-32574898D01*
X48315412Y-32581364D01*
X48335364Y-32589152D01*
X48346041Y-32591058D01*
X48356387Y-32594333D01*
X48377684Y-32596708D01*
X48398766Y-32600472D01*
X48409610Y-32600268D01*
X48420395Y-32601471D01*
X48425003Y-32601500D01*
X48639670Y-32601363D01*
X48854334Y-32601227D01*
X48871511Y-32599532D01*
X48888768Y-32599403D01*
X48903480Y-32596376D01*
X48918427Y-32594901D01*
X48934939Y-32589904D01*
X48951851Y-32586425D01*
X48965702Y-32580595D01*
X48980071Y-32576247D01*
X48995300Y-32568138D01*
X49011212Y-32561440D01*
X49023665Y-32553033D01*
X49036918Y-32545975D01*
X49050278Y-32535064D01*
X49064590Y-32525402D01*
X49075175Y-32514733D01*
X49086802Y-32505238D01*
X49097792Y-32491936D01*
X49100155Y-32489555D01*
X49110474Y-32502389D01*
X49111362Y-32503134D01*
X49112092Y-32504029D01*
X49136010Y-32523816D01*
X49159811Y-32543787D01*
X49160823Y-32544344D01*
X49161716Y-32545082D01*
X49189030Y-32559851D01*
X49216249Y-32574815D01*
X49217353Y-32575165D01*
X49218370Y-32575715D01*
X49248013Y-32584891D01*
X49277639Y-32594289D01*
X49278789Y-32594418D01*
X49279894Y-32594760D01*
X49310762Y-32598004D01*
X49341642Y-32601468D01*
X49343864Y-32601483D01*
X49343946Y-32601492D01*
X49344028Y-32601485D01*
X49346250Y-32601500D01*
X49759000Y-32601500D01*
X49789874Y-32598473D01*
X49820836Y-32595655D01*
X49821948Y-32595328D01*
X49823097Y-32595215D01*
X49852756Y-32586261D01*
X49882620Y-32577471D01*
X49883648Y-32576934D01*
X49884753Y-32576600D01*
X49912145Y-32562035D01*
X49939696Y-32547632D01*
X49940598Y-32546907D01*
X49941619Y-32546364D01*
X49965654Y-32526761D01*
X49989889Y-32507276D01*
X49990634Y-32506388D01*
X49991529Y-32505658D01*
X50011316Y-32481740D01*
X50031287Y-32457939D01*
X50031844Y-32456927D01*
X50032582Y-32456034D01*
X50047351Y-32428720D01*
X50062315Y-32401501D01*
X50062665Y-32400397D01*
X50063215Y-32399380D01*
X50072391Y-32369737D01*
X50081789Y-32340111D01*
X50081918Y-32338961D01*
X50082260Y-32337856D01*
X50085504Y-32306988D01*
X50088968Y-32276108D01*
X50088983Y-32273886D01*
X50088992Y-32273804D01*
X50088985Y-32273722D01*
X50089000Y-32271500D01*
X50089000Y-30842750D01*
X68047500Y-30842750D01*
X68047500Y-31128500D01*
X68050527Y-31159374D01*
X68053345Y-31190336D01*
X68053672Y-31191448D01*
X68053785Y-31192597D01*
X68062739Y-31222256D01*
X68071529Y-31252120D01*
X68072066Y-31253148D01*
X68072400Y-31254253D01*
X68086965Y-31281645D01*
X68101368Y-31309196D01*
X68102093Y-31310098D01*
X68102636Y-31311119D01*
X68122239Y-31335154D01*
X68141724Y-31359389D01*
X68142612Y-31360134D01*
X68143342Y-31361029D01*
X68167260Y-31380816D01*
X68191061Y-31400787D01*
X68192073Y-31401344D01*
X68192966Y-31402082D01*
X68220280Y-31416851D01*
X68247499Y-31431815D01*
X68248603Y-31432165D01*
X68249620Y-31432715D01*
X68279263Y-31441891D01*
X68308889Y-31451289D01*
X68310039Y-31451418D01*
X68311144Y-31451760D01*
X68342012Y-31455004D01*
X68372892Y-31458468D01*
X68375114Y-31458483D01*
X68375196Y-31458492D01*
X68375278Y-31458485D01*
X68377500Y-31458500D01*
X68523750Y-31458500D01*
X68523750Y-32271500D01*
X68526777Y-32302374D01*
X68529595Y-32333336D01*
X68529922Y-32334448D01*
X68530035Y-32335597D01*
X68538989Y-32365256D01*
X68547779Y-32395120D01*
X68548316Y-32396148D01*
X68548650Y-32397253D01*
X68563191Y-32424600D01*
X68577618Y-32452196D01*
X68578343Y-32453098D01*
X68578886Y-32454119D01*
X68598489Y-32478154D01*
X68617974Y-32502389D01*
X68618862Y-32503134D01*
X68619592Y-32504029D01*
X68643510Y-32523816D01*
X68667311Y-32543787D01*
X68668323Y-32544344D01*
X68669216Y-32545082D01*
X68696530Y-32559851D01*
X68723749Y-32574815D01*
X68724853Y-32575165D01*
X68725870Y-32575715D01*
X68755513Y-32584891D01*
X68785139Y-32594289D01*
X68786289Y-32594418D01*
X68787394Y-32594760D01*
X68818262Y-32598004D01*
X68849142Y-32601468D01*
X68851364Y-32601483D01*
X68851446Y-32601492D01*
X68851528Y-32601485D01*
X68853750Y-32601500D01*
X69234750Y-32601500D01*
X69265624Y-32598473D01*
X69296586Y-32595655D01*
X69297698Y-32595328D01*
X69298847Y-32595215D01*
X69328506Y-32586261D01*
X69358370Y-32577471D01*
X69359398Y-32576934D01*
X69360503Y-32576600D01*
X69387895Y-32562035D01*
X69415446Y-32547632D01*
X69416348Y-32546907D01*
X69417369Y-32546364D01*
X69441404Y-32526761D01*
X69465639Y-32507276D01*
X69466384Y-32506388D01*
X69467279Y-32505658D01*
X69487066Y-32481740D01*
X69507037Y-32457939D01*
X69507594Y-32456927D01*
X69508332Y-32456034D01*
X69523101Y-32428720D01*
X69538065Y-32401501D01*
X69538415Y-32400397D01*
X69538965Y-32399380D01*
X69548141Y-32369737D01*
X69552343Y-32356491D01*
X69555030Y-32365389D01*
X69563885Y-32395382D01*
X69564357Y-32396284D01*
X69564650Y-32397253D01*
X69579292Y-32424791D01*
X69593773Y-32452432D01*
X69594409Y-32453221D01*
X69594886Y-32454119D01*
X69614595Y-32478284D01*
X69634172Y-32502591D01*
X69634952Y-32503244D01*
X69635592Y-32504029D01*
X69659634Y-32523918D01*
X69683544Y-32543946D01*
X69684431Y-32544433D01*
X69685216Y-32545082D01*
X69712640Y-32559910D01*
X69740009Y-32574926D01*
X69740977Y-32575232D01*
X69741870Y-32575715D01*
X69771626Y-32584926D01*
X69801415Y-32594348D01*
X69802427Y-32594461D01*
X69803394Y-32594760D01*
X69834347Y-32598013D01*
X69865424Y-32601472D01*
X69867368Y-32601484D01*
X69867446Y-32601492D01*
X69867525Y-32601485D01*
X69870032Y-32601500D01*
X70100220Y-32601303D01*
X70330407Y-32601106D01*
X70345151Y-32599647D01*
X70359968Y-32599754D01*
X70377124Y-32596485D01*
X70394499Y-32594766D01*
X70408678Y-32590472D01*
X70423234Y-32587698D01*
X70439429Y-32581159D01*
X70456139Y-32576098D01*
X70469212Y-32569133D01*
X70482954Y-32563584D01*
X70497570Y-32554024D01*
X70512979Y-32545814D01*
X70524451Y-32536441D01*
X70536853Y-32528329D01*
X70549337Y-32516109D01*
X70562854Y-32505065D01*
X70572285Y-32493645D01*
X70577267Y-32488769D01*
X70588218Y-32502389D01*
X70591597Y-32505224D01*
X70594454Y-32508590D01*
X70616260Y-32525918D01*
X70637555Y-32543787D01*
X70641417Y-32545910D01*
X70644876Y-32548659D01*
X70669628Y-32561420D01*
X70693993Y-32574815D01*
X70698198Y-32576149D01*
X70702122Y-32578172D01*
X70728877Y-32585881D01*
X70755383Y-32594289D01*
X70759765Y-32594781D01*
X70764008Y-32596003D01*
X70791750Y-32598368D01*
X70819386Y-32601468D01*
X70823994Y-32601500D01*
X71203250Y-32601500D01*
X71234124Y-32598473D01*
X71265086Y-32595655D01*
X71266198Y-32595328D01*
X71267347Y-32595215D01*
X71297006Y-32586261D01*
X71320373Y-32579383D01*
X71366752Y-32589579D01*
X71393756Y-32592798D01*
X71420660Y-32596840D01*
X71425264Y-32597044D01*
X71537616Y-32601249D01*
X71541187Y-32601033D01*
X71544744Y-32601439D01*
X71549352Y-32601479D01*
X71560246Y-32601499D01*
X71560277Y-32601496D01*
X71560852Y-32601500D01*
X71766498Y-32601500D01*
X71784726Y-32599713D01*
X71803045Y-32599470D01*
X71816703Y-32596577D01*
X71830595Y-32595215D01*
X71848130Y-32589921D01*
X71866052Y-32586125D01*
X71878887Y-32580635D01*
X71892251Y-32576600D01*
X71908426Y-32568000D01*
X71925267Y-32560796D01*
X71936789Y-32552919D01*
X71949117Y-32546364D01*
X71963316Y-32534784D01*
X71978434Y-32524448D01*
X71988209Y-32514481D01*
X71999027Y-32505658D01*
X72010699Y-32491549D01*
X72023530Y-32478466D01*
X72031186Y-32466784D01*
X72040080Y-32456034D01*
X72048788Y-32439929D01*
X72058835Y-32424600D01*
X72064076Y-32411655D01*
X72070713Y-32399380D01*
X72076130Y-32381882D01*
X72083004Y-32364902D01*
X72084277Y-32360474D01*
X72096799Y-32315750D01*
X72151202Y-32315750D01*
X72163724Y-32360473D01*
X72170357Y-32377538D01*
X72175532Y-32395120D01*
X72182003Y-32407498D01*
X72187058Y-32420502D01*
X72196880Y-32435954D01*
X72205371Y-32452196D01*
X72214121Y-32463079D01*
X72221607Y-32474856D01*
X72234245Y-32488108D01*
X72245727Y-32502389D01*
X72256423Y-32511364D01*
X72266055Y-32521464D01*
X72281030Y-32532011D01*
X72295064Y-32543787D01*
X72307302Y-32550515D01*
X72318710Y-32558550D01*
X72335439Y-32565984D01*
X72351502Y-32574815D01*
X72364815Y-32579038D01*
X72377565Y-32584704D01*
X72395423Y-32588748D01*
X72412892Y-32594289D01*
X72426773Y-32595846D01*
X72440380Y-32598927D01*
X72458681Y-32599425D01*
X72476895Y-32601468D01*
X72481503Y-32601500D01*
X72687149Y-32601500D01*
X72689971Y-32601223D01*
X72692803Y-32601452D01*
X72697410Y-32601340D01*
X72814196Y-32597707D01*
X72838286Y-32594586D01*
X72862511Y-32592627D01*
X72867041Y-32591777D01*
X72928559Y-32579792D01*
X72930326Y-32579264D01*
X72932165Y-32579069D01*
X72961191Y-32570049D01*
X72990271Y-32561366D01*
X72991904Y-32560504D01*
X72993668Y-32559956D01*
X73020401Y-32545464D01*
X73047230Y-32531304D01*
X73048662Y-32530144D01*
X73050288Y-32529262D01*
X73073709Y-32509843D01*
X73097264Y-32490752D01*
X73098443Y-32489335D01*
X73099868Y-32488154D01*
X73119080Y-32464545D01*
X73138469Y-32441253D01*
X73139350Y-32439635D01*
X73140518Y-32438200D01*
X73143037Y-32434341D01*
X73157159Y-32412375D01*
X73162330Y-32402286D01*
X73168741Y-32392925D01*
X73176991Y-32373681D01*
X73186535Y-32355060D01*
X73189649Y-32344155D01*
X73194118Y-32333731D01*
X73198078Y-32315110D01*
X73198691Y-32313419D01*
X73198998Y-32311418D01*
X73204220Y-32293131D01*
X73205157Y-32281828D01*
X73207516Y-32270735D01*
X73207746Y-32254367D01*
X73208453Y-32249758D01*
X73208234Y-32244698D01*
X73209539Y-32228946D01*
X73208262Y-32217678D01*
X73208422Y-32206336D01*
X73205997Y-32193116D01*
X73205663Y-32185414D01*
X73203688Y-32177302D01*
X73202289Y-32164951D01*
X73198849Y-32154147D01*
X73196802Y-32142989D01*
X73195501Y-32138568D01*
X73194866Y-32136464D01*
X73192130Y-32129824D01*
X73190429Y-32122837D01*
X73188877Y-32118499D01*
X73174194Y-32078337D01*
X73174165Y-32078277D01*
X73173791Y-32077243D01*
X73140292Y-31986611D01*
X73140284Y-31986595D01*
X73140179Y-31986305D01*
X73091215Y-31854233D01*
X73091208Y-31854219D01*
X73091153Y-31854067D01*
X73030075Y-31689591D01*
X73030072Y-31689584D01*
X73030029Y-31689467D01*
X72993478Y-31591160D01*
X72960186Y-31501619D01*
X72960157Y-31501539D01*
X72923250Y-31402353D01*
X72923248Y-31402348D01*
X72923239Y-31402324D01*
X72672117Y-30727637D01*
X72670109Y-30723522D01*
X72668816Y-30719130D01*
X72655999Y-30694614D01*
X72643868Y-30669759D01*
X72641099Y-30666113D01*
X72638977Y-30662054D01*
X72621639Y-30640490D01*
X72604915Y-30618469D01*
X72601491Y-30615431D01*
X72598621Y-30611861D01*
X72577433Y-30594082D01*
X72556742Y-30575722D01*
X72552790Y-30573405D01*
X72549284Y-30570463D01*
X72525046Y-30557138D01*
X72501183Y-30543146D01*
X72496861Y-30541642D01*
X72492846Y-30539435D01*
X72466464Y-30531066D01*
X72440355Y-30521982D01*
X72435823Y-30521346D01*
X72431456Y-30519961D01*
X72403948Y-30516876D01*
X72376574Y-30513036D01*
X72372005Y-30513293D01*
X72367453Y-30512782D01*
X72362845Y-30512750D01*
X71885156Y-30512750D01*
X71880600Y-30513197D01*
X71876031Y-30512876D01*
X71848579Y-30516336D01*
X71821059Y-30519035D01*
X71816677Y-30520358D01*
X71812132Y-30520931D01*
X71785877Y-30529657D01*
X71759403Y-30537650D01*
X71755361Y-30539799D01*
X71751014Y-30541244D01*
X71726963Y-30554899D01*
X71702537Y-30567886D01*
X71698987Y-30570782D01*
X71695007Y-30573041D01*
X71674066Y-30591106D01*
X71652627Y-30608592D01*
X71649709Y-30612119D01*
X71646241Y-30615111D01*
X71629198Y-30636912D01*
X71611574Y-30658216D01*
X71609397Y-30662242D01*
X71606575Y-30665852D01*
X71594087Y-30690557D01*
X71580941Y-30714870D01*
X71579588Y-30719241D01*
X71577521Y-30723330D01*
X71575884Y-30727638D01*
X71533206Y-30842301D01*
X71530219Y-30811842D01*
X71527399Y-30780883D01*
X71527076Y-30779786D01*
X71526965Y-30778653D01*
X71517999Y-30748957D01*
X71509209Y-30719101D01*
X71508680Y-30718088D01*
X71508350Y-30716997D01*
X71493771Y-30689578D01*
X71479365Y-30662028D01*
X71478650Y-30661138D01*
X71478114Y-30660131D01*
X71458517Y-30636102D01*
X71439004Y-30611838D01*
X71438126Y-30611102D01*
X71437408Y-30610221D01*
X71413509Y-30590449D01*
X71389663Y-30570445D01*
X71388664Y-30569896D01*
X71387784Y-30569168D01*
X71360442Y-30554384D01*
X71333222Y-30539423D01*
X71332134Y-30539078D01*
X71331130Y-30538535D01*
X71301472Y-30529354D01*
X71271830Y-30519954D01*
X71270694Y-30519827D01*
X71269606Y-30519490D01*
X71238716Y-30516243D01*
X71207826Y-30512782D01*
X71205638Y-30512767D01*
X71205554Y-30512758D01*
X71205470Y-30512766D01*
X71203218Y-30512750D01*
X70973031Y-30512772D01*
X70742843Y-30512794D01*
X70727249Y-30514325D01*
X70711588Y-30514281D01*
X70695284Y-30517462D01*
X70678747Y-30519085D01*
X70663751Y-30523614D01*
X70648375Y-30526614D01*
X70632995Y-30532903D01*
X70617093Y-30537706D01*
X70603262Y-30545062D01*
X70588762Y-30550991D01*
X70574901Y-30560145D01*
X70560230Y-30567947D01*
X70548091Y-30577850D01*
X70535019Y-30586482D01*
X70523195Y-30598159D01*
X70510324Y-30608658D01*
X70500342Y-30620726D01*
X70495642Y-30625367D01*
X70484783Y-30611861D01*
X70481425Y-30609043D01*
X70478594Y-30605707D01*
X70456799Y-30588380D01*
X70435446Y-30570463D01*
X70431607Y-30568352D01*
X70428180Y-30565628D01*
X70403428Y-30552861D01*
X70379008Y-30539435D01*
X70374833Y-30538111D01*
X70370941Y-30536103D01*
X70344178Y-30528386D01*
X70317618Y-30519961D01*
X70313263Y-30519473D01*
X70309058Y-30518260D01*
X70281318Y-30515889D01*
X70253615Y-30512782D01*
X70249007Y-30512750D01*
X69869750Y-30512750D01*
X69838876Y-30515777D01*
X69807914Y-30518595D01*
X69806802Y-30518922D01*
X69805653Y-30519035D01*
X69790815Y-30523515D01*
X69779611Y-30519961D01*
X69778461Y-30519832D01*
X69777356Y-30519490D01*
X69746488Y-30516246D01*
X69715608Y-30512782D01*
X69713386Y-30512767D01*
X69713304Y-30512758D01*
X69713222Y-30512765D01*
X69711000Y-30512750D01*
X68377500Y-30512750D01*
X68346626Y-30515777D01*
X68315664Y-30518595D01*
X68314552Y-30518922D01*
X68313403Y-30519035D01*
X68283744Y-30527989D01*
X68253880Y-30536779D01*
X68252852Y-30537316D01*
X68251747Y-30537650D01*
X68224355Y-30552215D01*
X68196804Y-30566618D01*
X68195902Y-30567343D01*
X68194881Y-30567886D01*
X68170846Y-30587489D01*
X68146611Y-30606974D01*
X68145866Y-30607862D01*
X68144971Y-30608592D01*
X68125184Y-30632510D01*
X68105213Y-30656311D01*
X68104656Y-30657323D01*
X68103918Y-30658216D01*
X68089149Y-30685530D01*
X68074185Y-30712749D01*
X68073835Y-30713853D01*
X68073285Y-30714870D01*
X68064112Y-30744502D01*
X68054711Y-30774139D01*
X68054582Y-30775289D01*
X68054240Y-30776394D01*
X68050996Y-30807262D01*
X68047532Y-30838142D01*
X68047517Y-30840364D01*
X68047508Y-30840446D01*
X68047515Y-30840522D01*
X68047500Y-30842750D01*
X50089000Y-30842750D01*
X50085971Y-30811863D01*
X50083155Y-30780915D01*
X50082828Y-30779803D01*
X50082715Y-30778653D01*
X50073749Y-30748956D01*
X50064971Y-30719131D01*
X50064434Y-30718105D01*
X50064100Y-30716997D01*
X50049504Y-30689546D01*
X50035132Y-30662055D01*
X50034409Y-30661155D01*
X50033864Y-30660131D01*
X50014241Y-30636071D01*
X49994777Y-30611862D01*
X49993888Y-30611116D01*
X49993158Y-30610221D01*
X49969270Y-30590459D01*
X49945440Y-30570463D01*
X49944425Y-30569905D01*
X49943534Y-30569168D01*
X49916281Y-30554432D01*
X49889002Y-30539435D01*
X49887895Y-30539084D01*
X49886880Y-30538535D01*
X49857278Y-30529372D01*
X49827612Y-30519961D01*
X49826460Y-30519832D01*
X49825356Y-30519490D01*
X49794504Y-30516247D01*
X49763609Y-30512782D01*
X49761385Y-30512767D01*
X49761304Y-30512758D01*
X49761222Y-30512765D01*
X49759001Y-30512750D01*
X49345232Y-30512749D01*
X49344674Y-30512804D01*
X49344117Y-30512751D01*
X49339509Y-30512799D01*
X49121531Y-30516579D01*
X49113822Y-30517470D01*
X49106055Y-30517210D01*
X49101458Y-30517539D01*
X48936788Y-30530450D01*
X48919489Y-30533526D01*
X48901978Y-30535053D01*
X48897454Y-30535931D01*
X48776258Y-30560330D01*
X48775667Y-30560511D01*
X48775044Y-30560576D01*
X48744670Y-30569977D01*
X48714662Y-30579141D01*
X48714117Y-30579433D01*
X48713519Y-30579618D01*
X48709284Y-30581434D01*
X48621732Y-30619680D01*
X48609383Y-30626581D01*
X48596343Y-30632091D01*
X48581327Y-30642260D01*
X48565511Y-30651098D01*
X48554741Y-30660263D01*
X48543016Y-30668203D01*
X48539491Y-30671172D01*
X48475753Y-30725621D01*
X48454267Y-30747952D01*
X48432537Y-30770224D01*
X48431155Y-30771974D01*
X48431099Y-30772032D01*
X48431056Y-30772100D01*
X48429681Y-30773840D01*
X48407361Y-30802517D01*
X48401082Y-30812451D01*
X48393612Y-30821539D01*
X48384238Y-30839007D01*
X48327309Y-30769774D01*
X48314994Y-30757472D01*
X48303830Y-30744107D01*
X48292259Y-30734761D01*
X48281744Y-30724257D01*
X48267280Y-30714585D01*
X48253728Y-30703639D01*
X48249860Y-30701135D01*
X48077969Y-30591511D01*
X48056879Y-30580799D01*
X48036361Y-30568997D01*
X48032148Y-30567130D01*
X48010456Y-30557695D01*
X47988311Y-30550540D01*
X47966564Y-30542184D01*
X47962113Y-30540990D01*
X47845520Y-30510582D01*
X47822970Y-30507004D01*
X47800651Y-30502144D01*
X47796070Y-30501640D01*
X47642927Y-30485857D01*
X47629316Y-30485790D01*
X47615793Y-30484186D01*
X47611185Y-30484125D01*
X47445822Y-30483078D01*
X47432305Y-30484317D01*
X47418719Y-30484020D01*
X47414126Y-30484402D01*
X47260876Y-30498207D01*
X47238576Y-30502440D01*
X47216047Y-30505380D01*
X47211565Y-30506451D01*
X47094761Y-30535219D01*
X47088800Y-30537323D01*
X47087982Y-30537450D01*
X47074742Y-30542283D01*
X47074069Y-30542521D01*
X47052961Y-30548517D01*
X47048684Y-30550232D01*
X47045361Y-30551593D01*
X47039335Y-30554778D01*
X47039144Y-30554845D01*
X47038736Y-30554707D01*
X47026509Y-30548929D01*
X47008341Y-30544368D01*
X46990584Y-30538328D01*
X46986091Y-30537309D01*
X46928354Y-30524629D01*
X46901358Y-30521417D01*
X46874442Y-30517380D01*
X46869839Y-30517177D01*
X46757384Y-30512994D01*
X46753805Y-30513211D01*
X46750244Y-30512806D01*
X46745636Y-30512766D01*
X46735470Y-30512750D01*
X46735435Y-30512753D01*
X46734953Y-30512750D01*
X46529861Y-30512749D01*
X46522829Y-30513439D01*
X46515778Y-30513050D01*
X46490834Y-30516576D01*
X46465764Y-30519034D01*
X46459004Y-30521075D01*
X46452006Y-30522064D01*
X46428222Y-30530368D01*
X46404107Y-30537648D01*
X46397868Y-30540965D01*
X46391201Y-30543293D01*
X46369503Y-30556047D01*
X46347241Y-30567884D01*
X46341761Y-30572354D01*
X46335678Y-30575929D01*
X46316858Y-30592664D01*
X46297331Y-30608590D01*
X46292832Y-30614028D01*
X46287549Y-30618726D01*
X46272323Y-30638820D01*
X46256278Y-30658214D01*
X46252920Y-30664424D01*
X46248651Y-30670058D01*
X46237617Y-30692726D01*
X46225645Y-30714868D01*
X46223558Y-30721610D01*
X46220464Y-30727966D01*
X46218892Y-30732298D01*
X46171884Y-30864646D01*
X46125022Y-30732474D01*
X46121985Y-30725998D01*
X46119964Y-30719130D01*
X46108330Y-30696877D01*
X46097679Y-30674162D01*
X46093442Y-30668398D01*
X46090125Y-30662054D01*
X46074394Y-30642489D01*
X46059531Y-30622271D01*
X46054254Y-30617439D01*
X46049769Y-30611861D01*
X46030540Y-30595727D01*
X46012030Y-30578778D01*
X46005913Y-30575062D01*
X46000432Y-30570463D01*
X45978433Y-30558369D01*
X45956986Y-30545340D01*
X45950269Y-30542885D01*
X45943994Y-30539435D01*
X45920054Y-30531841D01*
X45896496Y-30523230D01*
X45889430Y-30522126D01*
X45882604Y-30519961D01*
X45857649Y-30517162D01*
X45832862Y-30513290D01*
X45825714Y-30513580D01*
X45818601Y-30512782D01*
X45813993Y-30512750D01*
X45608225Y-30512750D01*
X45605409Y-30513026D01*
X45602586Y-30512798D01*
X45597979Y-30512909D01*
X45481149Y-30516538D01*
X45457100Y-30519653D01*
X45432913Y-30521602D01*
X45428384Y-30522451D01*
X45366823Y-30534426D01*
X45365294Y-30534882D01*
X45363705Y-30535048D01*
X45334458Y-30544079D01*
X45305105Y-30552834D01*
X45303691Y-30553580D01*
X45302168Y-30554050D01*
X45275224Y-30568593D01*
X45248138Y-30582879D01*
X45246899Y-30583882D01*
X45245492Y-30584642D01*
X45221839Y-30604182D01*
X45198092Y-30623417D01*
X45197072Y-30624641D01*
X45195839Y-30625660D01*
X45176422Y-30649433D01*
X45156872Y-30672904D01*
X45156110Y-30674302D01*
X45155098Y-30675541D01*
X45152573Y-30679395D01*
X45138406Y-30701344D01*
X45133113Y-30711625D01*
X45126574Y-30721164D01*
X45118404Y-30740198D01*
X45108927Y-30758606D01*
X45105733Y-30769717D01*
X45101170Y-30780346D01*
X45097152Y-30799195D01*
X45096560Y-30800830D01*
X45096300Y-30802525D01*
X45091131Y-30820504D01*
X45090156Y-30832022D01*
X45087744Y-30843336D01*
X45087504Y-30859889D01*
X45086798Y-30864491D01*
X45087004Y-30869237D01*
X45085696Y-30884679D01*
X42800000Y-30884679D01*
X42800000Y-30400000D01*
X75400000Y-30400000D01*
X75400001Y-43200000D01*
G37*
X75400001Y-43200000D02*
X42800000Y-43200000D01*
X42800000Y-40651657D01*
X44278673Y-40651657D01*
X44414097Y-40866998D01*
X44724411Y-40963666D01*
X45047621Y-40997938D01*
X45371307Y-40968497D01*
X45683029Y-40876472D01*
X45705903Y-40866998D01*
X45841327Y-40651657D01*
X49358673Y-40651657D01*
X49494097Y-40866998D01*
X49804411Y-40963666D01*
X50127621Y-40997938D01*
X50451307Y-40968497D01*
X50763029Y-40876472D01*
X50785903Y-40866998D01*
X50921327Y-40651657D01*
X67278673Y-40651657D01*
X67414097Y-40866998D01*
X67724411Y-40963666D01*
X68047621Y-40997938D01*
X68371307Y-40968497D01*
X68683029Y-40876472D01*
X68705903Y-40866998D01*
X68841327Y-40651657D01*
X72358673Y-40651657D01*
X72494097Y-40866998D01*
X72804411Y-40963666D01*
X73127621Y-40997938D01*
X73451307Y-40968497D01*
X73763029Y-40876472D01*
X73785903Y-40866998D01*
X73921327Y-40651657D01*
X73140000Y-39870330D01*
X72358673Y-40651657D01*
X68841327Y-40651657D01*
X68060000Y-39870330D01*
X67278673Y-40651657D01*
X50921327Y-40651657D01*
X50140000Y-39870330D01*
X49358673Y-40651657D01*
X45841327Y-40651657D01*
X45060000Y-39870330D01*
X44278673Y-40651657D01*
X42800000Y-40651657D01*
X42800000Y-39327621D01*
X43402062Y-39327621D01*
X43431503Y-39651307D01*
X43523528Y-39963029D01*
X43533002Y-39985903D01*
X43748343Y-40121327D01*
X44529670Y-39340000D01*
X45590330Y-39340000D01*
X46371657Y-40121327D01*
X46586998Y-39985903D01*
X46683666Y-39675589D01*
X46717938Y-39352379D01*
X46715687Y-39327621D01*
X48482062Y-39327621D01*
X48511503Y-39651307D01*
X48603528Y-39963029D01*
X48613002Y-39985903D01*
X48828343Y-40121327D01*
X49609670Y-39340000D01*
X50670330Y-39340000D01*
X51451657Y-40121327D01*
X51666998Y-39985903D01*
X51763666Y-39675589D01*
X51797938Y-39352379D01*
X51795687Y-39327621D01*
X66402062Y-39327621D01*
X66431503Y-39651307D01*
X66523528Y-39963029D01*
X66533002Y-39985903D01*
X66748343Y-40121327D01*
X67529670Y-39340000D01*
X68590330Y-39340000D01*
X69371657Y-40121327D01*
X69586998Y-39985903D01*
X69683666Y-39675589D01*
X69717938Y-39352379D01*
X69715687Y-39327621D01*
X71482062Y-39327621D01*
X71511503Y-39651307D01*
X71603528Y-39963029D01*
X71613002Y-39985903D01*
X71828343Y-40121327D01*
X72609670Y-39340000D01*
X73670330Y-39340000D01*
X74451657Y-40121327D01*
X74666998Y-39985903D01*
X74763666Y-39675589D01*
X74797938Y-39352379D01*
X74768497Y-39028693D01*
X74676472Y-38716971D01*
X74666998Y-38694097D01*
X74451657Y-38558673D01*
X73670330Y-39340000D01*
X72609670Y-39340000D01*
X71828343Y-38558673D01*
X71613002Y-38694097D01*
X71516334Y-39004411D01*
X71482062Y-39327621D01*
X69715687Y-39327621D01*
X69688497Y-39028693D01*
X69596472Y-38716971D01*
X69586998Y-38694097D01*
X69371657Y-38558673D01*
X68590330Y-39340000D01*
X67529670Y-39340000D01*
X66748343Y-38558673D01*
X66533002Y-38694097D01*
X66436334Y-39004411D01*
X66402062Y-39327621D01*
X51795687Y-39327621D01*
X51768497Y-39028693D01*
X51676472Y-38716971D01*
X51666998Y-38694097D01*
X51451657Y-38558673D01*
X50670330Y-39340000D01*
X49609670Y-39340000D01*
X48828343Y-38558673D01*
X48613002Y-38694097D01*
X48516334Y-39004411D01*
X48482062Y-39327621D01*
X46715687Y-39327621D01*
X46688497Y-39028693D01*
X46596472Y-38716971D01*
X46586998Y-38694097D01*
X46371657Y-38558673D01*
X45590330Y-39340000D01*
X44529670Y-39340000D01*
X43748343Y-38558673D01*
X43533002Y-38694097D01*
X43436334Y-39004411D01*
X43402062Y-39327621D01*
X42800000Y-39327621D01*
X42800000Y-38028343D01*
X44278673Y-38028343D01*
X45060000Y-38809670D01*
X45841327Y-38028343D01*
X45705903Y-37813002D01*
X45395589Y-37716334D01*
X45072379Y-37682062D01*
X44748693Y-37711503D01*
X44436971Y-37803528D01*
X44414097Y-37813002D01*
X44278673Y-38028343D01*
X42800000Y-38028343D01*
X42800000Y-36654233D01*
X46120000Y-36654233D01*
X46120000Y-36945767D01*
X46176876Y-37231700D01*
X46288441Y-37501043D01*
X46450409Y-37743445D01*
X46656555Y-37949591D01*
X46898957Y-38111559D01*
X47168300Y-38223124D01*
X47454233Y-38280000D01*
X47745767Y-38280000D01*
X48031700Y-38223124D01*
X48301043Y-38111559D01*
X48425584Y-38028343D01*
X49358673Y-38028343D01*
X50140000Y-38809670D01*
X50921327Y-38028343D01*
X67278673Y-38028343D01*
X68060000Y-38809670D01*
X68841327Y-38028343D01*
X68705903Y-37813002D01*
X68395589Y-37716334D01*
X68072379Y-37682062D01*
X67748693Y-37711503D01*
X67436971Y-37803528D01*
X67414097Y-37813002D01*
X67278673Y-38028343D01*
X50921327Y-38028343D01*
X50785903Y-37813002D01*
X50475589Y-37716334D01*
X50152379Y-37682062D01*
X49828693Y-37711503D01*
X49516971Y-37803528D01*
X49494097Y-37813002D01*
X49358673Y-38028343D01*
X48425584Y-38028343D01*
X48543445Y-37949591D01*
X48749591Y-37743445D01*
X48911559Y-37501043D01*
X49023124Y-37231700D01*
X49080000Y-36945767D01*
X49080000Y-36654233D01*
X69120000Y-36654233D01*
X69120000Y-36945767D01*
X69176876Y-37231700D01*
X69288441Y-37501043D01*
X69450409Y-37743445D01*
X69656555Y-37949591D01*
X69898957Y-38111559D01*
X70168300Y-38223124D01*
X70454233Y-38280000D01*
X70745767Y-38280000D01*
X71031700Y-38223124D01*
X71301043Y-38111559D01*
X71425584Y-38028343D01*
X72358673Y-38028343D01*
X73140000Y-38809670D01*
X73921327Y-38028343D01*
X73785903Y-37813002D01*
X73475589Y-37716334D01*
X73152379Y-37682062D01*
X72828693Y-37711503D01*
X72516971Y-37803528D01*
X72494097Y-37813002D01*
X72358673Y-38028343D01*
X71425584Y-38028343D01*
X71543445Y-37949591D01*
X71749591Y-37743445D01*
X71911559Y-37501043D01*
X72023124Y-37231700D01*
X72080000Y-36945767D01*
X72080000Y-36654233D01*
X72023124Y-36368300D01*
X71911559Y-36098957D01*
X71749591Y-35856555D01*
X71543445Y-35650409D01*
X71425585Y-35571657D01*
X72358673Y-35571657D01*
X72494097Y-35786998D01*
X72804411Y-35883666D01*
X73127621Y-35917938D01*
X73451307Y-35888497D01*
X73763029Y-35796472D01*
X73785903Y-35786998D01*
X73921327Y-35571657D01*
X73140000Y-34790330D01*
X72358673Y-35571657D01*
X71425585Y-35571657D01*
X71301043Y-35488441D01*
X71031700Y-35376876D01*
X70745767Y-35320000D01*
X70454233Y-35320000D01*
X70168300Y-35376876D01*
X69898957Y-35488441D01*
X69656555Y-35650409D01*
X69450409Y-35856555D01*
X69288441Y-36098957D01*
X69176876Y-36368300D01*
X69120000Y-36654233D01*
X49080000Y-36654233D01*
X49023124Y-36368300D01*
X48911559Y-36098957D01*
X48749591Y-35856555D01*
X48543445Y-35650409D01*
X48425585Y-35571657D01*
X49358673Y-35571657D01*
X49494097Y-35786998D01*
X49804411Y-35883666D01*
X50127621Y-35917938D01*
X50451307Y-35888497D01*
X50763029Y-35796472D01*
X50785903Y-35786998D01*
X50921327Y-35571657D01*
X67278673Y-35571657D01*
X67414097Y-35786998D01*
X67724411Y-35883666D01*
X68047621Y-35917938D01*
X68371307Y-35888497D01*
X68683029Y-35796472D01*
X68705903Y-35786998D01*
X68841327Y-35571657D01*
X68060000Y-34790330D01*
X67278673Y-35571657D01*
X50921327Y-35571657D01*
X50140000Y-34790330D01*
X49358673Y-35571657D01*
X48425585Y-35571657D01*
X48301043Y-35488441D01*
X48031700Y-35376876D01*
X47745767Y-35320000D01*
X47454233Y-35320000D01*
X47168300Y-35376876D01*
X46898957Y-35488441D01*
X46656555Y-35650409D01*
X46450409Y-35856555D01*
X46288441Y-36098957D01*
X46176876Y-36368300D01*
X46120000Y-36654233D01*
X42800000Y-36654233D01*
X42800000Y-35571657D01*
X44278673Y-35571657D01*
X44414097Y-35786998D01*
X44724411Y-35883666D01*
X45047621Y-35917938D01*
X45371307Y-35888497D01*
X45683029Y-35796472D01*
X45705903Y-35786998D01*
X45841327Y-35571657D01*
X45060000Y-34790330D01*
X44278673Y-35571657D01*
X42800000Y-35571657D01*
X42800000Y-34247621D01*
X43402062Y-34247621D01*
X43431503Y-34571307D01*
X43523528Y-34883029D01*
X43533002Y-34905903D01*
X43748343Y-35041327D01*
X44529670Y-34260000D01*
X45590330Y-34260000D01*
X46371657Y-35041327D01*
X46586998Y-34905903D01*
X46683666Y-34595589D01*
X46717938Y-34272379D01*
X46715687Y-34247621D01*
X48482062Y-34247621D01*
X48511503Y-34571307D01*
X48603528Y-34883029D01*
X48613002Y-34905903D01*
X48828343Y-35041327D01*
X49609670Y-34260000D01*
X50670330Y-34260000D01*
X51451657Y-35041327D01*
X51666998Y-34905903D01*
X51763666Y-34595589D01*
X51797938Y-34272379D01*
X51795687Y-34247621D01*
X66402062Y-34247621D01*
X66431503Y-34571307D01*
X66523528Y-34883029D01*
X66533002Y-34905903D01*
X66748343Y-35041327D01*
X67529670Y-34260000D01*
X68590330Y-34260000D01*
X69371657Y-35041327D01*
X69586998Y-34905903D01*
X69683666Y-34595589D01*
X69717938Y-34272379D01*
X69715687Y-34247621D01*
X71482062Y-34247621D01*
X71511503Y-34571307D01*
X71603528Y-34883029D01*
X71613002Y-34905903D01*
X71828343Y-35041327D01*
X72609670Y-34260000D01*
X73670330Y-34260000D01*
X74451657Y-35041327D01*
X74666998Y-34905903D01*
X74763666Y-34595589D01*
X74797938Y-34272379D01*
X74768497Y-33948693D01*
X74676472Y-33636971D01*
X74666998Y-33614097D01*
X74451657Y-33478673D01*
X73670330Y-34260000D01*
X72609670Y-34260000D01*
X71828343Y-33478673D01*
X71613002Y-33614097D01*
X71516334Y-33924411D01*
X71482062Y-34247621D01*
X69715687Y-34247621D01*
X69688497Y-33948693D01*
X69596472Y-33636971D01*
X69586998Y-33614097D01*
X69371657Y-33478673D01*
X68590330Y-34260000D01*
X67529670Y-34260000D01*
X66748343Y-33478673D01*
X66533002Y-33614097D01*
X66436334Y-33924411D01*
X66402062Y-34247621D01*
X51795687Y-34247621D01*
X51768497Y-33948693D01*
X51676472Y-33636971D01*
X51666998Y-33614097D01*
X51451657Y-33478673D01*
X50670330Y-34260000D01*
X49609670Y-34260000D01*
X48828343Y-33478673D01*
X48613002Y-33614097D01*
X48516334Y-33924411D01*
X48482062Y-34247621D01*
X46715687Y-34247621D01*
X46688497Y-33948693D01*
X46596472Y-33636971D01*
X46586998Y-33614097D01*
X46371657Y-33478673D01*
X45590330Y-34260000D01*
X44529670Y-34260000D01*
X43748343Y-33478673D01*
X43533002Y-33614097D01*
X43436334Y-33924411D01*
X43402062Y-34247621D01*
X42800000Y-34247621D01*
X42800000Y-32948343D01*
X44278673Y-32948343D01*
X45060000Y-33729670D01*
X45841327Y-32948343D01*
X49358673Y-32948343D01*
X50140000Y-33729670D01*
X50921327Y-32948343D01*
X67278673Y-32948343D01*
X68060000Y-33729670D01*
X68841327Y-32948343D01*
X72358673Y-32948343D01*
X73140000Y-33729670D01*
X73921327Y-32948343D01*
X73785903Y-32733002D01*
X73475589Y-32636334D01*
X73152379Y-32602062D01*
X72828693Y-32631503D01*
X72516971Y-32723528D01*
X72494097Y-32733002D01*
X72358673Y-32948343D01*
X68841327Y-32948343D01*
X68705903Y-32733002D01*
X68395589Y-32636334D01*
X68072379Y-32602062D01*
X67748693Y-32631503D01*
X67436971Y-32723528D01*
X67414097Y-32733002D01*
X67278673Y-32948343D01*
X50921327Y-32948343D01*
X50785903Y-32733002D01*
X50475589Y-32636334D01*
X50152379Y-32602062D01*
X49828693Y-32631503D01*
X49516971Y-32723528D01*
X49494097Y-32733002D01*
X49358673Y-32948343D01*
X45841327Y-32948343D01*
X45705903Y-32733002D01*
X45395589Y-32636334D01*
X45072379Y-32602062D01*
X44748693Y-32631503D01*
X44436971Y-32723528D01*
X44414097Y-32733002D01*
X44278673Y-32948343D01*
X42800000Y-32948343D01*
X42800000Y-30884679D01*
X45085696Y-30884679D01*
X45086977Y-30896170D01*
X45086809Y-30907734D01*
X45089252Y-30921087D01*
X45089588Y-30928835D01*
X45091488Y-30936640D01*
X45092831Y-30948687D01*
X45096318Y-30959706D01*
X45098400Y-30971087D01*
X45099699Y-30975508D01*
X45100342Y-30977642D01*
X45103103Y-30984352D01*
X45104822Y-30991412D01*
X45106374Y-30995751D01*
X45121057Y-31035912D01*
X45121086Y-31035972D01*
X45121460Y-31037006D01*
X45154959Y-31127638D01*
X45154967Y-31127654D01*
X45155072Y-31127944D01*
X45204036Y-31260015D01*
X45204041Y-31260025D01*
X45204098Y-31260182D01*
X45265175Y-31424657D01*
X45265181Y-31424669D01*
X45265222Y-31424782D01*
X45335058Y-31612612D01*
X45335094Y-31612710D01*
X45372001Y-31711896D01*
X45372004Y-31711902D01*
X45372012Y-31711924D01*
X45623134Y-32386612D01*
X45625142Y-32390725D01*
X45626435Y-32395120D01*
X45639255Y-32419642D01*
X45651383Y-32444491D01*
X45654152Y-32448137D01*
X45656274Y-32452196D01*
X45673612Y-32473760D01*
X45690336Y-32495781D01*
X45693760Y-32498819D01*
X45696630Y-32502389D01*
X45717818Y-32520168D01*
X45738509Y-32538528D01*
X45742461Y-32540845D01*
X45745967Y-32543787D01*
X45770205Y-32557112D01*
X45794068Y-32571104D01*
X45798391Y-32572608D01*
X45802405Y-32574815D01*
X45828780Y-32583182D01*
X45854895Y-32592268D01*
X45859429Y-32592904D01*
X45863795Y-32594289D01*
X45891298Y-32597374D01*
X45918676Y-32601214D01*
X45923245Y-32600957D01*
X45927798Y-32601468D01*
X45932406Y-32601500D01*
X46410095Y-32601500D01*
X46414651Y-32601053D01*
X46419220Y-32601374D01*
X46446672Y-32597914D01*
X46474192Y-32595215D01*
X46478574Y-32593892D01*
X46483119Y-32593319D01*
X46509374Y-32584593D01*
X46535848Y-32576600D01*
X46539890Y-32574451D01*
X46544237Y-32573006D01*
X46568288Y-32559351D01*
X46592714Y-32546364D01*
X46596264Y-32543468D01*
X46600244Y-32541209D01*
X46621185Y-32523144D01*
X46642624Y-32505658D01*
X46645542Y-32502131D01*
X46649010Y-32499139D01*
X46666053Y-32477338D01*
X46683677Y-32456034D01*
X46685854Y-32452008D01*
X46688676Y-32448398D01*
X46701164Y-32423693D01*
X46714310Y-32399380D01*
X46715663Y-32395009D01*
X46717730Y-32390920D01*
X46719367Y-32386612D01*
X46758455Y-32281595D01*
X46760044Y-32285463D01*
X46781430Y-32336489D01*
X46796235Y-32363939D01*
X46810740Y-32391283D01*
X46811460Y-32392168D01*
X46812003Y-32393174D01*
X46831780Y-32417131D01*
X46851398Y-32441232D01*
X46852278Y-32441962D01*
X46853005Y-32442842D01*
X46877083Y-32462521D01*
X46900983Y-32482332D01*
X46902806Y-32483546D01*
X46902872Y-32483600D01*
X46902947Y-32483640D01*
X46904818Y-32484886D01*
X46956889Y-32519031D01*
X46979569Y-32530916D01*
X47001749Y-32543699D01*
X47005960Y-32545570D01*
X47038467Y-32559743D01*
X47061521Y-32567215D01*
X47084201Y-32575800D01*
X47088658Y-32576972D01*
X47212313Y-32608569D01*
X47236813Y-32612333D01*
X47261133Y-32617200D01*
X47265721Y-32617627D01*
X47425584Y-32631382D01*
X47440923Y-32631199D01*
X47456209Y-32632589D01*
X47460817Y-32632524D01*
X47632290Y-32628915D01*
X47647638Y-32627083D01*
X47663095Y-32626822D01*
X47667669Y-32626263D01*
X47826160Y-32605767D01*
X47850208Y-32600229D01*
X47874483Y-32595798D01*
X47878905Y-32594501D01*
X47996694Y-32559065D01*
X48007065Y-32554802D01*
X48017903Y-32551892D01*
X48036799Y-32542581D01*
X48056263Y-32534581D01*
X48065608Y-32528386D01*
X48075675Y-32523425D01*
X48079573Y-32520967D01*
X48161676Y-32468396D01*
X48162208Y-32469058D01*
X48174520Y-32486591D01*
X48182361Y-32494090D01*
X48189163Y-32502539D01*
X48205581Y-32516297D01*
X48221064Y-32531105D01*
X48230213Y-32536939D01*
X48238527Y-32543906D01*
X48257304Y-32554213D01*
X48275368Y-32565732D01*
X48285474Y-32569677D01*
X48294985Y-32574898D01*
X48315412Y-32581364D01*
X48335364Y-32589152D01*
X48346041Y-32591058D01*
X48356387Y-32594333D01*
X48377684Y-32596708D01*
X48398766Y-32600472D01*
X48409610Y-32600268D01*
X48420395Y-32601471D01*
X48425003Y-32601500D01*
X48639670Y-32601363D01*
X48854334Y-32601227D01*
X48871511Y-32599532D01*
X48888768Y-32599403D01*
X48903480Y-32596376D01*
X48918427Y-32594901D01*
X48934939Y-32589904D01*
X48951851Y-32586425D01*
X48965702Y-32580595D01*
X48980071Y-32576247D01*
X48995300Y-32568138D01*
X49011212Y-32561440D01*
X49023665Y-32553033D01*
X49036918Y-32545975D01*
X49050278Y-32535064D01*
X49064590Y-32525402D01*
X49075175Y-32514733D01*
X49086802Y-32505238D01*
X49097792Y-32491936D01*
X49100155Y-32489555D01*
X49110474Y-32502389D01*
X49111362Y-32503134D01*
X49112092Y-32504029D01*
X49136010Y-32523816D01*
X49159811Y-32543787D01*
X49160823Y-32544344D01*
X49161716Y-32545082D01*
X49189030Y-32559851D01*
X49216249Y-32574815D01*
X49217353Y-32575165D01*
X49218370Y-32575715D01*
X49248013Y-32584891D01*
X49277639Y-32594289D01*
X49278789Y-32594418D01*
X49279894Y-32594760D01*
X49310762Y-32598004D01*
X49341642Y-32601468D01*
X49343864Y-32601483D01*
X49343946Y-32601492D01*
X49344028Y-32601485D01*
X49346250Y-32601500D01*
X49759000Y-32601500D01*
X49789874Y-32598473D01*
X49820836Y-32595655D01*
X49821948Y-32595328D01*
X49823097Y-32595215D01*
X49852756Y-32586261D01*
X49882620Y-32577471D01*
X49883648Y-32576934D01*
X49884753Y-32576600D01*
X49912145Y-32562035D01*
X49939696Y-32547632D01*
X49940598Y-32546907D01*
X49941619Y-32546364D01*
X49965654Y-32526761D01*
X49989889Y-32507276D01*
X49990634Y-32506388D01*
X49991529Y-32505658D01*
X50011316Y-32481740D01*
X50031287Y-32457939D01*
X50031844Y-32456927D01*
X50032582Y-32456034D01*
X50047351Y-32428720D01*
X50062315Y-32401501D01*
X50062665Y-32400397D01*
X50063215Y-32399380D01*
X50072391Y-32369737D01*
X50081789Y-32340111D01*
X50081918Y-32338961D01*
X50082260Y-32337856D01*
X50085504Y-32306988D01*
X50088968Y-32276108D01*
X50088983Y-32273886D01*
X50088992Y-32273804D01*
X50088985Y-32273722D01*
X50089000Y-32271500D01*
X50089000Y-30842750D01*
X68047500Y-30842750D01*
X68047500Y-31128500D01*
X68050527Y-31159374D01*
X68053345Y-31190336D01*
X68053672Y-31191448D01*
X68053785Y-31192597D01*
X68062739Y-31222256D01*
X68071529Y-31252120D01*
X68072066Y-31253148D01*
X68072400Y-31254253D01*
X68086965Y-31281645D01*
X68101368Y-31309196D01*
X68102093Y-31310098D01*
X68102636Y-31311119D01*
X68122239Y-31335154D01*
X68141724Y-31359389D01*
X68142612Y-31360134D01*
X68143342Y-31361029D01*
X68167260Y-31380816D01*
X68191061Y-31400787D01*
X68192073Y-31401344D01*
X68192966Y-31402082D01*
X68220280Y-31416851D01*
X68247499Y-31431815D01*
X68248603Y-31432165D01*
X68249620Y-31432715D01*
X68279263Y-31441891D01*
X68308889Y-31451289D01*
X68310039Y-31451418D01*
X68311144Y-31451760D01*
X68342012Y-31455004D01*
X68372892Y-31458468D01*
X68375114Y-31458483D01*
X68375196Y-31458492D01*
X68375278Y-31458485D01*
X68377500Y-31458500D01*
X68523750Y-31458500D01*
X68523750Y-32271500D01*
X68526777Y-32302374D01*
X68529595Y-32333336D01*
X68529922Y-32334448D01*
X68530035Y-32335597D01*
X68538989Y-32365256D01*
X68547779Y-32395120D01*
X68548316Y-32396148D01*
X68548650Y-32397253D01*
X68563191Y-32424600D01*
X68577618Y-32452196D01*
X68578343Y-32453098D01*
X68578886Y-32454119D01*
X68598489Y-32478154D01*
X68617974Y-32502389D01*
X68618862Y-32503134D01*
X68619592Y-32504029D01*
X68643510Y-32523816D01*
X68667311Y-32543787D01*
X68668323Y-32544344D01*
X68669216Y-32545082D01*
X68696530Y-32559851D01*
X68723749Y-32574815D01*
X68724853Y-32575165D01*
X68725870Y-32575715D01*
X68755513Y-32584891D01*
X68785139Y-32594289D01*
X68786289Y-32594418D01*
X68787394Y-32594760D01*
X68818262Y-32598004D01*
X68849142Y-32601468D01*
X68851364Y-32601483D01*
X68851446Y-32601492D01*
X68851528Y-32601485D01*
X68853750Y-32601500D01*
X69234750Y-32601500D01*
X69265624Y-32598473D01*
X69296586Y-32595655D01*
X69297698Y-32595328D01*
X69298847Y-32595215D01*
X69328506Y-32586261D01*
X69358370Y-32577471D01*
X69359398Y-32576934D01*
X69360503Y-32576600D01*
X69387895Y-32562035D01*
X69415446Y-32547632D01*
X69416348Y-32546907D01*
X69417369Y-32546364D01*
X69441404Y-32526761D01*
X69465639Y-32507276D01*
X69466384Y-32506388D01*
X69467279Y-32505658D01*
X69487066Y-32481740D01*
X69507037Y-32457939D01*
X69507594Y-32456927D01*
X69508332Y-32456034D01*
X69523101Y-32428720D01*
X69538065Y-32401501D01*
X69538415Y-32400397D01*
X69538965Y-32399380D01*
X69548141Y-32369737D01*
X69552343Y-32356491D01*
X69555030Y-32365389D01*
X69563885Y-32395382D01*
X69564357Y-32396284D01*
X69564650Y-32397253D01*
X69579292Y-32424791D01*
X69593773Y-32452432D01*
X69594409Y-32453221D01*
X69594886Y-32454119D01*
X69614595Y-32478284D01*
X69634172Y-32502591D01*
X69634952Y-32503244D01*
X69635592Y-32504029D01*
X69659634Y-32523918D01*
X69683544Y-32543946D01*
X69684431Y-32544433D01*
X69685216Y-32545082D01*
X69712640Y-32559910D01*
X69740009Y-32574926D01*
X69740977Y-32575232D01*
X69741870Y-32575715D01*
X69771626Y-32584926D01*
X69801415Y-32594348D01*
X69802427Y-32594461D01*
X69803394Y-32594760D01*
X69834347Y-32598013D01*
X69865424Y-32601472D01*
X69867368Y-32601484D01*
X69867446Y-32601492D01*
X69867525Y-32601485D01*
X69870032Y-32601500D01*
X70100220Y-32601303D01*
X70330407Y-32601106D01*
X70345151Y-32599647D01*
X70359968Y-32599754D01*
X70377124Y-32596485D01*
X70394499Y-32594766D01*
X70408678Y-32590472D01*
X70423234Y-32587698D01*
X70439429Y-32581159D01*
X70456139Y-32576098D01*
X70469212Y-32569133D01*
X70482954Y-32563584D01*
X70497570Y-32554024D01*
X70512979Y-32545814D01*
X70524451Y-32536441D01*
X70536853Y-32528329D01*
X70549337Y-32516109D01*
X70562854Y-32505065D01*
X70572285Y-32493645D01*
X70577267Y-32488769D01*
X70588218Y-32502389D01*
X70591597Y-32505224D01*
X70594454Y-32508590D01*
X70616260Y-32525918D01*
X70637555Y-32543787D01*
X70641417Y-32545910D01*
X70644876Y-32548659D01*
X70669628Y-32561420D01*
X70693993Y-32574815D01*
X70698198Y-32576149D01*
X70702122Y-32578172D01*
X70728877Y-32585881D01*
X70755383Y-32594289D01*
X70759765Y-32594781D01*
X70764008Y-32596003D01*
X70791750Y-32598368D01*
X70819386Y-32601468D01*
X70823994Y-32601500D01*
X71203250Y-32601500D01*
X71234124Y-32598473D01*
X71265086Y-32595655D01*
X71266198Y-32595328D01*
X71267347Y-32595215D01*
X71297006Y-32586261D01*
X71320373Y-32579383D01*
X71366752Y-32589579D01*
X71393756Y-32592798D01*
X71420660Y-32596840D01*
X71425264Y-32597044D01*
X71537616Y-32601249D01*
X71541187Y-32601033D01*
X71544744Y-32601439D01*
X71549352Y-32601479D01*
X71560246Y-32601499D01*
X71560277Y-32601496D01*
X71560852Y-32601500D01*
X71766498Y-32601500D01*
X71784726Y-32599713D01*
X71803045Y-32599470D01*
X71816703Y-32596577D01*
X71830595Y-32595215D01*
X71848130Y-32589921D01*
X71866052Y-32586125D01*
X71878887Y-32580635D01*
X71892251Y-32576600D01*
X71908426Y-32568000D01*
X71925267Y-32560796D01*
X71936789Y-32552919D01*
X71949117Y-32546364D01*
X71963316Y-32534784D01*
X71978434Y-32524448D01*
X71988209Y-32514481D01*
X71999027Y-32505658D01*
X72010699Y-32491549D01*
X72023530Y-32478466D01*
X72031186Y-32466784D01*
X72040080Y-32456034D01*
X72048788Y-32439929D01*
X72058835Y-32424600D01*
X72064076Y-32411655D01*
X72070713Y-32399380D01*
X72076130Y-32381882D01*
X72083004Y-32364902D01*
X72084277Y-32360474D01*
X72096799Y-32315750D01*
X72151202Y-32315750D01*
X72163724Y-32360473D01*
X72170357Y-32377538D01*
X72175532Y-32395120D01*
X72182003Y-32407498D01*
X72187058Y-32420502D01*
X72196880Y-32435954D01*
X72205371Y-32452196D01*
X72214121Y-32463079D01*
X72221607Y-32474856D01*
X72234245Y-32488108D01*
X72245727Y-32502389D01*
X72256423Y-32511364D01*
X72266055Y-32521464D01*
X72281030Y-32532011D01*
X72295064Y-32543787D01*
X72307302Y-32550515D01*
X72318710Y-32558550D01*
X72335439Y-32565984D01*
X72351502Y-32574815D01*
X72364815Y-32579038D01*
X72377565Y-32584704D01*
X72395423Y-32588748D01*
X72412892Y-32594289D01*
X72426773Y-32595846D01*
X72440380Y-32598927D01*
X72458681Y-32599425D01*
X72476895Y-32601468D01*
X72481503Y-32601500D01*
X72687149Y-32601500D01*
X72689971Y-32601223D01*
X72692803Y-32601452D01*
X72697410Y-32601340D01*
X72814196Y-32597707D01*
X72838286Y-32594586D01*
X72862511Y-32592627D01*
X72867041Y-32591777D01*
X72928559Y-32579792D01*
X72930326Y-32579264D01*
X72932165Y-32579069D01*
X72961191Y-32570049D01*
X72990271Y-32561366D01*
X72991904Y-32560504D01*
X72993668Y-32559956D01*
X73020401Y-32545464D01*
X73047230Y-32531304D01*
X73048662Y-32530144D01*
X73050288Y-32529262D01*
X73073709Y-32509843D01*
X73097264Y-32490752D01*
X73098443Y-32489335D01*
X73099868Y-32488154D01*
X73119080Y-32464545D01*
X73138469Y-32441253D01*
X73139350Y-32439635D01*
X73140518Y-32438200D01*
X73143037Y-32434341D01*
X73157159Y-32412375D01*
X73162330Y-32402286D01*
X73168741Y-32392925D01*
X73176991Y-32373681D01*
X73186535Y-32355060D01*
X73189649Y-32344155D01*
X73194118Y-32333731D01*
X73198078Y-32315110D01*
X73198691Y-32313419D01*
X73198998Y-32311418D01*
X73204220Y-32293131D01*
X73205157Y-32281828D01*
X73207516Y-32270735D01*
X73207746Y-32254367D01*
X73208453Y-32249758D01*
X73208234Y-32244698D01*
X73209539Y-32228946D01*
X73208262Y-32217678D01*
X73208422Y-32206336D01*
X73205997Y-32193116D01*
X73205663Y-32185414D01*
X73203688Y-32177302D01*
X73202289Y-32164951D01*
X73198849Y-32154147D01*
X73196802Y-32142989D01*
X73195501Y-32138568D01*
X73194866Y-32136464D01*
X73192130Y-32129824D01*
X73190429Y-32122837D01*
X73188877Y-32118499D01*
X73174194Y-32078337D01*
X73174165Y-32078277D01*
X73173791Y-32077243D01*
X73140292Y-31986611D01*
X73140284Y-31986595D01*
X73140179Y-31986305D01*
X73091215Y-31854233D01*
X73091208Y-31854219D01*
X73091153Y-31854067D01*
X73030075Y-31689591D01*
X73030072Y-31689584D01*
X73030029Y-31689467D01*
X72993478Y-31591160D01*
X72960186Y-31501619D01*
X72960157Y-31501539D01*
X72923250Y-31402353D01*
X72923248Y-31402348D01*
X72923239Y-31402324D01*
X72672117Y-30727637D01*
X72670109Y-30723522D01*
X72668816Y-30719130D01*
X72655999Y-30694614D01*
X72643868Y-30669759D01*
X72641099Y-30666113D01*
X72638977Y-30662054D01*
X72621639Y-30640490D01*
X72604915Y-30618469D01*
X72601491Y-30615431D01*
X72598621Y-30611861D01*
X72577433Y-30594082D01*
X72556742Y-30575722D01*
X72552790Y-30573405D01*
X72549284Y-30570463D01*
X72525046Y-30557138D01*
X72501183Y-30543146D01*
X72496861Y-30541642D01*
X72492846Y-30539435D01*
X72466464Y-30531066D01*
X72440355Y-30521982D01*
X72435823Y-30521346D01*
X72431456Y-30519961D01*
X72403948Y-30516876D01*
X72376574Y-30513036D01*
X72372005Y-30513293D01*
X72367453Y-30512782D01*
X72362845Y-30512750D01*
X71885156Y-30512750D01*
X71880600Y-30513197D01*
X71876031Y-30512876D01*
X71848579Y-30516336D01*
X71821059Y-30519035D01*
X71816677Y-30520358D01*
X71812132Y-30520931D01*
X71785877Y-30529657D01*
X71759403Y-30537650D01*
X71755361Y-30539799D01*
X71751014Y-30541244D01*
X71726963Y-30554899D01*
X71702537Y-30567886D01*
X71698987Y-30570782D01*
X71695007Y-30573041D01*
X71674066Y-30591106D01*
X71652627Y-30608592D01*
X71649709Y-30612119D01*
X71646241Y-30615111D01*
X71629198Y-30636912D01*
X71611574Y-30658216D01*
X71609397Y-30662242D01*
X71606575Y-30665852D01*
X71594087Y-30690557D01*
X71580941Y-30714870D01*
X71579588Y-30719241D01*
X71577521Y-30723330D01*
X71575884Y-30727638D01*
X71533206Y-30842301D01*
X71530219Y-30811842D01*
X71527399Y-30780883D01*
X71527076Y-30779786D01*
X71526965Y-30778653D01*
X71517999Y-30748957D01*
X71509209Y-30719101D01*
X71508680Y-30718088D01*
X71508350Y-30716997D01*
X71493771Y-30689578D01*
X71479365Y-30662028D01*
X71478650Y-30661138D01*
X71478114Y-30660131D01*
X71458517Y-30636102D01*
X71439004Y-30611838D01*
X71438126Y-30611102D01*
X71437408Y-30610221D01*
X71413509Y-30590449D01*
X71389663Y-30570445D01*
X71388664Y-30569896D01*
X71387784Y-30569168D01*
X71360442Y-30554384D01*
X71333222Y-30539423D01*
X71332134Y-30539078D01*
X71331130Y-30538535D01*
X71301472Y-30529354D01*
X71271830Y-30519954D01*
X71270694Y-30519827D01*
X71269606Y-30519490D01*
X71238716Y-30516243D01*
X71207826Y-30512782D01*
X71205638Y-30512767D01*
X71205554Y-30512758D01*
X71205470Y-30512766D01*
X71203218Y-30512750D01*
X70973031Y-30512772D01*
X70742843Y-30512794D01*
X70727249Y-30514325D01*
X70711588Y-30514281D01*
X70695284Y-30517462D01*
X70678747Y-30519085D01*
X70663751Y-30523614D01*
X70648375Y-30526614D01*
X70632995Y-30532903D01*
X70617093Y-30537706D01*
X70603262Y-30545062D01*
X70588762Y-30550991D01*
X70574901Y-30560145D01*
X70560230Y-30567947D01*
X70548091Y-30577850D01*
X70535019Y-30586482D01*
X70523195Y-30598159D01*
X70510324Y-30608658D01*
X70500342Y-30620726D01*
X70495642Y-30625367D01*
X70484783Y-30611861D01*
X70481425Y-30609043D01*
X70478594Y-30605707D01*
X70456799Y-30588380D01*
X70435446Y-30570463D01*
X70431607Y-30568352D01*
X70428180Y-30565628D01*
X70403428Y-30552861D01*
X70379008Y-30539435D01*
X70374833Y-30538111D01*
X70370941Y-30536103D01*
X70344178Y-30528386D01*
X70317618Y-30519961D01*
X70313263Y-30519473D01*
X70309058Y-30518260D01*
X70281318Y-30515889D01*
X70253615Y-30512782D01*
X70249007Y-30512750D01*
X69869750Y-30512750D01*
X69838876Y-30515777D01*
X69807914Y-30518595D01*
X69806802Y-30518922D01*
X69805653Y-30519035D01*
X69790815Y-30523515D01*
X69779611Y-30519961D01*
X69778461Y-30519832D01*
X69777356Y-30519490D01*
X69746488Y-30516246D01*
X69715608Y-30512782D01*
X69713386Y-30512767D01*
X69713304Y-30512758D01*
X69713222Y-30512765D01*
X69711000Y-30512750D01*
X68377500Y-30512750D01*
X68346626Y-30515777D01*
X68315664Y-30518595D01*
X68314552Y-30518922D01*
X68313403Y-30519035D01*
X68283744Y-30527989D01*
X68253880Y-30536779D01*
X68252852Y-30537316D01*
X68251747Y-30537650D01*
X68224355Y-30552215D01*
X68196804Y-30566618D01*
X68195902Y-30567343D01*
X68194881Y-30567886D01*
X68170846Y-30587489D01*
X68146611Y-30606974D01*
X68145866Y-30607862D01*
X68144971Y-30608592D01*
X68125184Y-30632510D01*
X68105213Y-30656311D01*
X68104656Y-30657323D01*
X68103918Y-30658216D01*
X68089149Y-30685530D01*
X68074185Y-30712749D01*
X68073835Y-30713853D01*
X68073285Y-30714870D01*
X68064112Y-30744502D01*
X68054711Y-30774139D01*
X68054582Y-30775289D01*
X68054240Y-30776394D01*
X68050996Y-30807262D01*
X68047532Y-30838142D01*
X68047517Y-30840364D01*
X68047508Y-30840446D01*
X68047515Y-30840522D01*
X68047500Y-30842750D01*
X50089000Y-30842750D01*
X50085971Y-30811863D01*
X50083155Y-30780915D01*
X50082828Y-30779803D01*
X50082715Y-30778653D01*
X50073749Y-30748956D01*
X50064971Y-30719131D01*
X50064434Y-30718105D01*
X50064100Y-30716997D01*
X50049504Y-30689546D01*
X50035132Y-30662055D01*
X50034409Y-30661155D01*
X50033864Y-30660131D01*
X50014241Y-30636071D01*
X49994777Y-30611862D01*
X49993888Y-30611116D01*
X49993158Y-30610221D01*
X49969270Y-30590459D01*
X49945440Y-30570463D01*
X49944425Y-30569905D01*
X49943534Y-30569168D01*
X49916281Y-30554432D01*
X49889002Y-30539435D01*
X49887895Y-30539084D01*
X49886880Y-30538535D01*
X49857278Y-30529372D01*
X49827612Y-30519961D01*
X49826460Y-30519832D01*
X49825356Y-30519490D01*
X49794504Y-30516247D01*
X49763609Y-30512782D01*
X49761385Y-30512767D01*
X49761304Y-30512758D01*
X49761222Y-30512765D01*
X49759001Y-30512750D01*
X49345232Y-30512749D01*
X49344674Y-30512804D01*
X49344117Y-30512751D01*
X49339509Y-30512799D01*
X49121531Y-30516579D01*
X49113822Y-30517470D01*
X49106055Y-30517210D01*
X49101458Y-30517539D01*
X48936788Y-30530450D01*
X48919489Y-30533526D01*
X48901978Y-30535053D01*
X48897454Y-30535931D01*
X48776258Y-30560330D01*
X48775667Y-30560511D01*
X48775044Y-30560576D01*
X48744670Y-30569977D01*
X48714662Y-30579141D01*
X48714117Y-30579433D01*
X48713519Y-30579618D01*
X48709284Y-30581434D01*
X48621732Y-30619680D01*
X48609383Y-30626581D01*
X48596343Y-30632091D01*
X48581327Y-30642260D01*
X48565511Y-30651098D01*
X48554741Y-30660263D01*
X48543016Y-30668203D01*
X48539491Y-30671172D01*
X48475753Y-30725621D01*
X48454267Y-30747952D01*
X48432537Y-30770224D01*
X48431155Y-30771974D01*
X48431099Y-30772032D01*
X48431056Y-30772100D01*
X48429681Y-30773840D01*
X48407361Y-30802517D01*
X48401082Y-30812451D01*
X48393612Y-30821539D01*
X48384238Y-30839007D01*
X48327309Y-30769774D01*
X48314994Y-30757472D01*
X48303830Y-30744107D01*
X48292259Y-30734761D01*
X48281744Y-30724257D01*
X48267280Y-30714585D01*
X48253728Y-30703639D01*
X48249860Y-30701135D01*
X48077969Y-30591511D01*
X48056879Y-30580799D01*
X48036361Y-30568997D01*
X48032148Y-30567130D01*
X48010456Y-30557695D01*
X47988311Y-30550540D01*
X47966564Y-30542184D01*
X47962113Y-30540990D01*
X47845520Y-30510582D01*
X47822970Y-30507004D01*
X47800651Y-30502144D01*
X47796070Y-30501640D01*
X47642927Y-30485857D01*
X47629316Y-30485790D01*
X47615793Y-30484186D01*
X47611185Y-30484125D01*
X47445822Y-30483078D01*
X47432305Y-30484317D01*
X47418719Y-30484020D01*
X47414126Y-30484402D01*
X47260876Y-30498207D01*
X47238576Y-30502440D01*
X47216047Y-30505380D01*
X47211565Y-30506451D01*
X47094761Y-30535219D01*
X47088800Y-30537323D01*
X47087982Y-30537450D01*
X47074742Y-30542283D01*
X47074069Y-30542521D01*
X47052961Y-30548517D01*
X47048684Y-30550232D01*
X47045361Y-30551593D01*
X47039335Y-30554778D01*
X47039144Y-30554845D01*
X47038736Y-30554707D01*
X47026509Y-30548929D01*
X47008341Y-30544368D01*
X46990584Y-30538328D01*
X46986091Y-30537309D01*
X46928354Y-30524629D01*
X46901358Y-30521417D01*
X46874442Y-30517380D01*
X46869839Y-30517177D01*
X46757384Y-30512994D01*
X46753805Y-30513211D01*
X46750244Y-30512806D01*
X46745636Y-30512766D01*
X46735470Y-30512750D01*
X46735435Y-30512753D01*
X46734953Y-30512750D01*
X46529861Y-30512749D01*
X46522829Y-30513439D01*
X46515778Y-30513050D01*
X46490834Y-30516576D01*
X46465764Y-30519034D01*
X46459004Y-30521075D01*
X46452006Y-30522064D01*
X46428222Y-30530368D01*
X46404107Y-30537648D01*
X46397868Y-30540965D01*
X46391201Y-30543293D01*
X46369503Y-30556047D01*
X46347241Y-30567884D01*
X46341761Y-30572354D01*
X46335678Y-30575929D01*
X46316858Y-30592664D01*
X46297331Y-30608590D01*
X46292832Y-30614028D01*
X46287549Y-30618726D01*
X46272323Y-30638820D01*
X46256278Y-30658214D01*
X46252920Y-30664424D01*
X46248651Y-30670058D01*
X46237617Y-30692726D01*
X46225645Y-30714868D01*
X46223558Y-30721610D01*
X46220464Y-30727966D01*
X46218892Y-30732298D01*
X46171884Y-30864646D01*
X46125022Y-30732474D01*
X46121985Y-30725998D01*
X46119964Y-30719130D01*
X46108330Y-30696877D01*
X46097679Y-30674162D01*
X46093442Y-30668398D01*
X46090125Y-30662054D01*
X46074394Y-30642489D01*
X46059531Y-30622271D01*
X46054254Y-30617439D01*
X46049769Y-30611861D01*
X46030540Y-30595727D01*
X46012030Y-30578778D01*
X46005913Y-30575062D01*
X46000432Y-30570463D01*
X45978433Y-30558369D01*
X45956986Y-30545340D01*
X45950269Y-30542885D01*
X45943994Y-30539435D01*
X45920054Y-30531841D01*
X45896496Y-30523230D01*
X45889430Y-30522126D01*
X45882604Y-30519961D01*
X45857649Y-30517162D01*
X45832862Y-30513290D01*
X45825714Y-30513580D01*
X45818601Y-30512782D01*
X45813993Y-30512750D01*
X45608225Y-30512750D01*
X45605409Y-30513026D01*
X45602586Y-30512798D01*
X45597979Y-30512909D01*
X45481149Y-30516538D01*
X45457100Y-30519653D01*
X45432913Y-30521602D01*
X45428384Y-30522451D01*
X45366823Y-30534426D01*
X45365294Y-30534882D01*
X45363705Y-30535048D01*
X45334458Y-30544079D01*
X45305105Y-30552834D01*
X45303691Y-30553580D01*
X45302168Y-30554050D01*
X45275224Y-30568593D01*
X45248138Y-30582879D01*
X45246899Y-30583882D01*
X45245492Y-30584642D01*
X45221839Y-30604182D01*
X45198092Y-30623417D01*
X45197072Y-30624641D01*
X45195839Y-30625660D01*
X45176422Y-30649433D01*
X45156872Y-30672904D01*
X45156110Y-30674302D01*
X45155098Y-30675541D01*
X45152573Y-30679395D01*
X45138406Y-30701344D01*
X45133113Y-30711625D01*
X45126574Y-30721164D01*
X45118404Y-30740198D01*
X45108927Y-30758606D01*
X45105733Y-30769717D01*
X45101170Y-30780346D01*
X45097152Y-30799195D01*
X45096560Y-30800830D01*
X45096300Y-30802525D01*
X45091131Y-30820504D01*
X45090156Y-30832022D01*
X45087744Y-30843336D01*
X45087504Y-30859889D01*
X45086798Y-30864491D01*
X45087004Y-30869237D01*
X45085696Y-30884679D01*
X42800000Y-30884679D01*
X42800000Y-30400000D01*
X75400000Y-30400000D01*
X75400001Y-43200000D01*
M02*
