M48
; DRILL file {KiCad 5.1.5+dfsg1-2build2} date 2021. márc. 12., péntek, 18:38:22 CET
; FORMAT={-:-/ absolute / inch / decimal}
; #@! TF.CreationDate,2021-03-12T18:38:22+01:00
; #@! TF.GenerationSoftware,Kicad,Pcbnew,5.1.5+dfsg1-2build2
; #@! TF.FileFunction,Plated,1,2,PTH
FMAT,2
INCH
T1C0.0276
T2C0.0591
T3C0.0669
%
G90
G05
T1
X2.0429Y-1.5063
X2.0433Y-1.3909
X2.0902Y-1.5063
X2.0906Y-1.3909
X2.1374Y-1.387
X2.1374Y-1.5106
X2.1378Y-1.563
X2.1535Y-1.626
X2.1969Y-1.4016
X2.1969Y-1.4921
X2.2402Y-1.626
X2.2555Y-1.387
X2.2555Y-1.5106
X2.2559Y-1.563
X2.3067Y-1.3909
X2.3067Y-1.5067
X2.3583Y-1.3917
X2.3583Y-1.5059
X2.4035Y-1.3681
X2.4035Y-1.5295
X2.4567Y-1.4035
X2.4567Y-1.5295
X2.5098Y-1.3681
X2.5098Y-1.5295
X2.5606Y-1.3909
X2.5606Y-1.5067
X2.6157Y-1.3909
X2.6157Y-1.5067
T2
X1.874Y-1.4488
X2.7795Y-1.4488
T3
X1.774Y-1.3488
X1.774Y-1.5488
X1.974Y-1.3488
X1.974Y-1.5488
X2.6795Y-1.3488
X2.6795Y-1.5488
X2.8795Y-1.3488
X2.8795Y-1.5488
T0
M30
